<svg width="154" height="167" viewBox="0 0 154 167" fill="none" xmlns="http://www.w3.org/2000/svg">
<path d="M35.5801 121.981L43.0406 128.407L117.656 43.7717L110.196 37.346C90.5435 20.4196 57.9117 25.6476 37.3078 49.0184C16.7038 72.3892 15.9305 105.057 35.5801 121.981Z" fill="#E59B00"/>
<path d="M115.451 46.2228L117.489 43.9028L109.988 37.4213C101.595 30.1694 90.8365 26.9693 79.6504 27.4807L109.648 52.8221L115.448 46.2206L115.451 46.2228Z" fill="#DBA97F"/>
<path d="M53.0247 85.8396L27.2985 64.103C23.7905 71.4494 21.8536 79.1176 21.499 86.5726L39.3584 101.661L53.0247 85.8396Z" fill="#FCE898"/>
<path d="M36.8695 104.676L21.6522 91.7398C21.7258 93.2084 21.8617 94.6605 22.0644 96.0956L34.8844 106.993L36.8695 104.676Z" fill="#FCE898"/>
<path d="M117.629 44.1082C137.39 61.1653 136.751 93.9291 116.201 117.288C95.652 140.648 62.9745 145.756 43.2138 128.699C23.4532 111.642 24.0925 78.8786 44.6418 55.5193C65.191 32.1601 97.8686 27.0512 117.629 44.1082Z" fill="#FEE475"/>
<path d="M116.408 45.4969C135.52 61.9946 134.903 93.6833 115.028 116.276C95.1534 138.868 63.5481 143.809 44.4355 127.311C25.3229 110.813 25.9407 79.1247 45.8153 56.5324C65.6899 33.94 97.2953 28.9993 116.408 45.4969Z" fill="#FED425"/>
<path d="M128.813 65.6358L35.9368 71.5024C32.5326 78.7625 30.7132 86.351 30.4996 93.7052L129.384 87.4624C130.812 79.9687 130.624 72.5022 128.813 65.6358Z" fill="#FCE898"/>
<path d="M56.2979 46.7094L113.456 43.0995C97.4806 31.7131 74.4821 33.53 56.2979 46.7094Z" fill="#FCE898"/>
<path d="M102.979 127.211L48.7437 130.636C52.6494 133.18 56.9386 134.972 61.4477 136.039L88.8576 134.308C93.7141 132.638 98.4797 130.265 102.979 127.211Z" fill="#FCE898"/>
<path d="M128.157 92.8171L30.6491 98.9759C30.7377 100.136 30.8813 101.282 31.0524 102.422L126.989 96.3635C127.417 95.1856 127.809 94.0032 128.157 92.8171Z" fill="#FCE898"/>
<path d="M44.6711 127.223C25.1115 110.324 25.5403 78.0354 45.4504 54.6774C45.2178 54.9322 44.9799 55.1782 44.7522 55.4373C24.1765 78.8497 23.5295 111.684 43.3068 128.771C63.084 145.858 95.7988 140.731 116.375 117.319C116.602 117.059 116.815 116.792 117.038 116.529C96.4308 139.284 64.2283 144.121 44.6711 127.223Z" fill="#FCE898"/>
<path d="M106.225 55.4656C119.819 67.1997 119.379 89.7393 105.242 105.809C91.1052 121.879 68.625 125.394 55.031 113.66C41.4371 101.926 41.8772 79.3865 56.0141 63.3165C70.1509 47.2465 92.6312 43.7315 106.225 55.4656Z" fill="#FCE898"/>
<path d="M106.018 57.3085C119.612 69.0426 119.171 91.5822 105.035 107.652C90.8977 123.722 68.4175 127.237 54.8235 115.503C41.2296 103.769 41.6697 81.2294 55.8065 65.1594C69.9434 49.0894 92.4237 45.5744 106.018 57.3085Z" fill="#FEB724"/>
<path d="M74.2364 87.8638L71.8428 85.0032C71.5112 84.6064 71.2818 84.1346 71.1753 83.6301C71.0688 83.1256 71.0884 82.6042 71.2324 82.1125C71.3764 81.6208 71.6403 81.1742 72.0004 80.8127C72.3606 80.4512 72.8057 80.186 73.296 80.041L93.1754 74.1719C93.6525 74.0326 94.165 74.063 94.6268 74.2578C95.0886 74.4526 95.4715 74.8001 95.711 75.2417C95.9505 75.6833 96.032 76.1921 95.9419 76.6825C95.8517 77.1729 95.5954 77.6149 95.216 77.9343L84.2996 87.0689L86.1727 89.4516C86.6728 90.0909 86.908 90.8967 86.8284 91.6989C86.7489 92.501 86.3609 93.2366 85.7465 93.7501L76.4029 101.569C75.7753 102.094 74.962 102.345 74.1419 102.266C73.3217 102.188 72.5619 101.786 72.0296 101.15L68.4064 96.8202C67.8741 96.1841 67.6129 95.3654 67.6803 94.5443C67.7476 93.7231 68.1381 92.9668 68.7656 92.4417L74.2364 87.8638Z" fill="#E88C03"/>
<path d="M105.583 103.791C91.4449 119.863 68.9594 123.38 55.3626 111.643C48.0094 105.295 44.7702 95.7887 45.572 85.8538C43.4771 97.1548 46.5354 108.36 54.8423 115.53C68.4392 127.267 90.9246 123.751 105.063 107.679C111.557 100.296 115.151 91.5505 115.834 83.1155C114.501 90.3087 111.083 97.5392 105.583 103.791Z" fill="#FB9D12"/>
</svg>
