<svg width="61" height="82" viewBox="0 0 61 82" fill="none" xmlns="http://www.w3.org/2000/svg">
<path d="M45.3623 0H23.4511C22.9017 0 22.42 0.367232 22.2745 0.897071L0.423887 80.4566C0.210561 81.2333 0.795059 82 1.60055 82H21.6117C22.1511 82 22.6266 81.6457 22.7809 81.1288L46.5315 1.56929C46.7651 0.786714 46.179 0 45.3623 0Z" fill="#9EE792"/>
<path d="M59.3594 0H53.5345C52.9957 0 52.5208 0.353287 52.3658 0.869251L28.4719 80.4288C28.2367 81.2118 28.823 82 29.6406 82H35.4655C36.0043 82 36.4792 81.6467 36.6342 81.1307L60.5281 1.57122C60.7633 0.788227 60.177 0 59.3594 0Z" fill="#9EE792"/>
</svg>
