<svg id="q" viewBox="0 0 42 42" xmlns="http://www.w3.org/2000/svg">
<circle cx="21" cy="21" r="20" fill="none" stroke-width="2"/>
<path d="M20.0317 11.6309C19.9146 11.6308 19.7996 11.6626 19.6991 11.7228C19.5987 11.7831 19.5164 11.8695 19.4613 11.9729L14.2918 21.6665C14.2393 21.765 14.2132 21.8754 14.216 21.9869C14.2189 22.0985 14.2506 22.2074 14.308 22.3031C14.3654 22.3988 14.4467 22.478 14.5438 22.533C14.6409 22.5879 14.7506 22.6168 14.8623 22.6168H17.9859L16.8083 30.2724C16.7871 30.4122 16.8124 30.555 16.8801 30.6791C16.9479 30.8031 17.0544 30.9016 17.1835 30.9593C17.3125 31.017 17.4569 31.0308 17.5945 30.9986C17.7322 30.9664 17.8555 30.89 17.9455 30.781L26.9923 19.7951C27.0699 19.7005 27.1191 19.5859 27.1342 19.4644C27.1492 19.343 27.1294 19.2198 27.0772 19.1092C27.025 18.9986 26.9425 18.905 26.8392 18.8394C26.7359 18.7739 26.6161 18.7389 26.4938 18.7388H22.4122L25.768 12.5864C25.8216 12.488 25.8487 12.3774 25.8466 12.2655C25.8445 12.1535 25.8134 12.044 25.7563 11.9476C25.6991 11.8513 25.6179 11.7715 25.5207 11.716C25.4234 11.6605 25.3133 11.6312 25.2013 11.6311L20.0317 11.6309Z" stroke="none" />
</svg>
