<svg id="q" viewBox="0 0 50 53" fill="none" xmlns="http://www.w3.org/2000/svg">
<path d="M27.5145 23.3793L35.4367 15.4786L10.3471 1.66772C9.36557 1.12373 8.26062 0.839604 7.13768 0.842428C6.01473 0.845252 4.91124 1.13493 3.93243 1.68385L27.5145 23.3793ZM1.57422 3.9034C0.998412 4.84219 0.668457 5.91647 0.668457 7.05528V46.2393C0.668457 47.3426 0.969299 48.3943 1.51275 49.3138L25.2275 25.6633L1.57422 3.9034ZM45.9403 21.2597L38.3836 17.1013L29.8921 25.5666L40.2987 35.1384L45.9435 32.0316C47.975 30.909 49.1913 28.8959 49.1913 26.6441C49.1893 25.5371 48.8858 24.4514 48.3132 23.5031C47.7406 22.5547 46.9204 21.7793 45.9403 21.2597ZM27.6051 27.8506L3.82568 51.5656C4.82952 52.1462 5.96801 52.4554 7.12846 52.4624C8.22831 52.4624 9.33463 52.185 10.3471 51.6269L37.3161 36.7837L27.6051 27.8506Z" fill="#252525"/>
</svg>
