<svg id="q" viewBox="0 0 23 28" fill="none" xmlns="http://www.w3.org/2000/svg">
<path d="M12.3481 7.51278H12.4597C13.8654 7.2237 15.1258 6.45147 16.0223 5.32995C16.9188 4.20843 17.3949 2.80833 17.3681 1.37233C17.3678 1.28849 17.3485 1.2058 17.3118 1.13042C17.2751 1.05504 17.2219 0.988905 17.1562 0.93692C17.094 0.883438 17.0206 0.844632 16.9415 0.823373C16.8623 0.802115 16.7794 0.79895 16.6988 0.814111C15.2912 1.10354 14.0293 1.87741 13.1326 3.00125C12.2359 4.12508 11.7609 5.52783 11.7903 6.96572C11.7903 7.11377 11.8491 7.25576 11.9537 7.36045C12.0583 7.46513 12.2002 7.52395 12.3481 7.52395V7.51278Z" fill="#252525"/>
<path d="M22.5773 19.2694C21.6927 18.9067 20.9366 18.2879 20.4059 17.4922C19.8752 16.6965 19.5941 15.7602 19.5988 14.8036C19.5989 13.9341 19.8266 13.0797 20.2592 12.3256C20.6917 11.5715 21.314 10.9439 22.0642 10.5053C22.1364 10.4636 22.1985 10.4062 22.2457 10.3374C22.2928 10.2686 22.324 10.19 22.3369 10.1075C22.3497 10.025 22.3439 9.94072 22.3199 9.86077C22.2958 9.78083 22.2542 9.7073 22.198 9.64559C21.5794 8.98098 20.8322 8.44921 20.0018 8.08263C19.1714 7.71605 18.2752 7.52231 17.3677 7.51318C16.4678 7.5326 15.5806 7.7299 14.7573 8.09373C13.9978 8.43155 13.1785 8.61376 12.3476 8.62963C11.5168 8.61376 10.6974 8.43155 9.93804 8.09373C9.11465 7.7299 8.2275 7.5326 7.32763 7.51318C6.64714 7.51318 0.634277 7.73647 0.634277 15.3283C0.634277 21.5357 4.8734 27.6092 7.32763 27.6092C8.40807 27.6214 9.47807 27.3966 10.4624 26.9505C11.0508 26.6647 11.6937 26.5087 12.3476 26.4927C13.0016 26.5087 13.6444 26.6647 14.2329 26.9505C15.2172 27.3966 16.2872 27.6214 17.3677 27.6092C19.3645 27.6092 21.7183 23.6681 22.9455 19.9727C22.9679 19.9023 22.9761 19.8282 22.9697 19.7547C22.9633 19.6811 22.9424 19.6095 22.9081 19.5441C22.8739 19.4787 22.827 19.4207 22.7702 19.3735C22.7135 19.3264 22.6479 19.291 22.5773 19.2694Z" fill="#252525"/>
</svg>
