<svg id="q" viewBox="0 0 33 34" fill="none" xmlns="http://www.w3.org/2000/svg">
<path d="M13.9504 0.758789C6.27276 0.758827 0.00938219 7.01905 0.00976564 14.6972C0.00974044 22.375 6.27315 28.6321 13.9513 28.6316C17.207 28.6316 20.2009 27.4979 22.5771 25.6162L30.0991 33.1358C30.7411 33.7766 31.7807 33.7779 32.4215 33.1357C33.0613 32.4946 33.0613 31.4544 32.4215 30.8133L24.8964 23.2905C26.7629 20.9193 27.886 17.938 27.8861 14.6968C27.8861 7.01901 21.6285 0.758456 13.9504 0.758789Z" fill="white"/>
<path d="M16.1904 13.0033L17.7174 13.4693C17.9291 13.5341 18.1216 13.6496 18.2778 13.8056C18.4339 13.9616 18.5488 14.1531 18.6121 14.3631C18.6754 14.573 18.6852 14.7949 18.6406 15.0087C18.596 15.2225 18.4984 15.4216 18.3565 15.5882L12.6011 22.34C12.4626 22.5015 12.2717 22.6104 12.0606 22.6485C11.8495 22.6866 11.631 22.6516 11.4419 22.5492C11.2528 22.4469 11.1046 22.2835 11.0223 22.0866C10.94 21.8897 10.9285 21.6713 10.9899 21.4681L12.7683 15.6409L11.5397 15.2245C11.2109 15.1123 10.9382 14.8783 10.7792 14.5721C10.6202 14.2659 10.5873 13.9115 10.6875 13.5837L12.2097 8.59609C12.312 8.2611 12.5449 7.98098 12.8573 7.81738C13.1697 7.65378 13.536 7.62009 13.8755 7.72372L16.1869 8.42913C16.5264 8.53276 16.8115 8.76522 16.9793 9.07538C17.1471 9.38554 17.1839 9.74798 17.0817 10.083L16.1904 13.0033Z" fill="#7C72FF"/>
</svg>
