<svg width="263" height="268" viewBox="0 0 263 268" fill="none" xmlns="http://www.w3.org/2000/svg">
<circle cx="130.5" cy="143.5" r="122.5" fill="#7DDF6D" stroke="#252525" stroke-width="4"/>
<circle cx="120" cy="144" r="118" fill="#7DDF6D" stroke="#252525" stroke-width="4"/>
<path fill-rule="evenodd" clip-rule="evenodd" d="M217.821 195.033C191.764 221.303 151.474 238.798 117.618 238.798C73.9564 238.798 28.1677 202.491 11 160C18.4185 213.541 64.3718 254.764 119.953 254.764C162.592 254.764 199.565 230.504 217.821 195.033Z" fill="#AAF29E"/>
<path fill-rule="evenodd" clip-rule="evenodd" d="M222.05 70.1052C236.8 92.8323 246.232 119.264 247.319 143.053C249.003 179.881 226.207 219.269 194.492 243.811C229.142 222.426 251.465 183.386 249.475 139.827C248.256 113.148 238.108 88.9895 222.05 70.1052Z" fill="#AAF29E"/>
<path fill-rule="evenodd" clip-rule="evenodd" d="M94.392 35.5551C126.252 32.5809 159.247 41.7647 185.82 63.8102C214.113 87.2827 229.42 120.602 230.893 154.648C234.935 119.01 221.492 82.099 191.827 57.4885C163.673 34.1306 127.326 27.1797 94.392 35.5551Z" fill="#AAF29E"/>
<path d="M177.206 134.272C185.319 139.123 185.319 150.877 177.206 155.728L101.175 201.193C92.843 206.175 82.2597 200.172 82.2597 190.464L82.2597 99.5358C82.2597 89.828 92.843 83.8254 101.175 88.8076L177.206 134.272Z" fill="#FEE480" stroke="black" stroke-width="3"/>
<path fill-rule="evenodd" clip-rule="evenodd" d="M87.7423 145.786C88.9079 158.437 92.0171 176.147 100.31 180.612C108.318 184.924 138.601 170.763 145.631 167.363C145.399 167.597 145.132 167.807 144.829 167.988L93.7917 198.436C91.1254 200.027 87.7423 198.106 87.7423 195.001V145.786Z" fill="#FFCA42"/>
<path fill-rule="evenodd" clip-rule="evenodd" d="M161.224 156.498C163.348 153.829 164.902 150.276 164.554 145.698C164.184 140.826 156.792 133.983 149.117 128.133L174.5 140.809C177.278 142.196 177.485 146.081 174.871 147.756L161.224 156.498Z" fill="#FFCA42"/>
</svg>
