<svg width="107" height="79" viewBox="0 0 107 79" fill="none" xmlns="http://www.w3.org/2000/svg">
<path d="M103.405 66.0569C102.707 66.0399 102.005 63.7443 101.15 63.2878C101.25 62.7757 101.37 62.2509 101.419 61.9224C101.603 60.574 101.8 59.23 102.001 57.8859C102.402 55.1978 102.819 52.514 103.177 49.8174C103.915 44.2619 104.469 38.7065 104.212 33.0913C104.096 30.5952 102.105 27.6767 99.4316 28.0095C98.1753 28.1674 97.208 28.1418 95.9958 27.7578C94.8318 27.3866 93.6035 27.5786 92.5639 28.1589C80.1892 27.9114 67.8145 27.6639 55.4358 27.4207C54.2597 27.3994 53.2723 27.809 52.5097 28.4746C47.8376 28.3296 43.1695 28.1973 38.4973 28.0991C36.077 27.6255 34.7604 28.2314 32.2759 29.0037C31.4691 29.2555 29.9759 28.4192 29.2655 28.8757C26.7046 29.025 23.9351 28.6368 21.3622 29.0208C16.4372 29.7589 11.2754 30.9579 6.29417 30.1046C4.3595 29.7717 2.51313 30.1558 1.26883 31.9265C0.181077 33.4754 -0.184187 35.8648 0.89554 37.5715C1.67824 38.8089 2.28032 40.0591 2.72987 41.369C2.86233 42.7003 3.16337 44.0059 3.63299 45.3244C3.63299 45.3329 3.637 45.3414 3.637 45.35H3.64102C3.78551 45.7553 3.94206 46.1564 4.11866 46.566C4.13472 46.6001 4.15479 46.6343 4.17085 46.6684C5.35493 55.6715 5.67203 64.7726 5.19036 73.8738C5.04586 76.6174 6.73168 77.8761 9.21225 77.8761C9.61363 77.8761 10.4405 78.1876 10.8057 78.0937C11.3275 78.3028 13.0174 78.1449 13.5954 78.0937C28.6714 76.7752 42.9848 77.236 58.113 77.5774C65.5106 77.7438 72.7877 78.0425 80.1531 77.0483C87.6068 76.0456 95.0405 74.8893 102.482 73.8012C106.616 73.1911 108.126 66.1764 103.405 66.0569ZM17.8782 41.0575C17.6574 40.5583 18.2314 40.618 17.8902 41.0917C17.8902 41.0703 17.8902 41.049 17.8942 41.0277C17.9183 40.665 17.9143 40.6735 17.8782 41.0575Z" fill="#7DDF6D"/>
<path d="M80.6775 73.4509C81.0789 73.9032 81.1712 74.4792 81.0949 75.0766C81.0387 75.5289 81.5003 75.9214 81.8897 75.9214C82.3673 75.9214 82.6282 75.5289 82.6844 75.0766C82.8129 74.044 82.4637 73.0072 81.7974 72.2562C81.099 71.4626 79.9751 72.6616 80.6775 73.4509Z" fill="#252525"/>
<path d="M28.5217 74.607C28.2568 75.5628 28.2809 76.7746 29.0757 77.4487C29.8182 78.0759 30.8939 77.9522 31.4077 77.0818C31.9536 76.1559 30.5768 75.3068 30.031 76.2284C30.0631 76.1729 30.1193 76.1815 30.1594 76.1516C30.1353 76.1687 30.0791 76.1857 30.0711 76.1601C30.1514 76.1687 30.1474 76.1644 30.051 76.1388C30.0671 76.1431 30.0791 76.1473 30.0952 76.1559C29.9467 75.9425 30.1393 76.2924 30.051 76.1217C29.8865 75.7932 29.9587 75.4177 30.0591 75.0636C30.3521 74.0139 28.8148 73.5659 28.5217 74.607Z" fill="#252525"/>
<path d="M8.6568 78.6608C40.2177 77.2357 72.0677 80.0859 103.328 74.0483C104.335 73.8521 103.91 72.2221 102.902 72.4141C71.7947 78.4218 40.0652 75.546 8.65279 76.9668C7.63327 77.0138 7.62926 78.7077 8.6568 78.6608Z" fill="#252525"/>
<path d="M9.00249 77.0569C7.2083 77.6841 5.96802 75.9901 5.68303 74.2962C5.48636 73.1399 5.3539 70.4475 6.41757 69.7222C7.28055 69.1376 9.30353 69.5174 10.2949 69.5302C11.6195 69.5515 12.9361 69.496 14.2566 69.351C19.567 68.7664 24.6846 67.3114 30.0632 67.5247C31.0867 67.5674 31.0867 65.8735 30.0632 65.8308C25.9691 65.6644 22.0395 66.3684 18.0216 67.0853C15.81 67.4778 13.5903 67.8192 11.3466 67.8448C9.60457 67.8618 7.69799 67.5546 5.99611 68.088C3.6159 68.8347 3.74033 72.8668 4.1658 74.9618C4.67957 77.4963 6.93536 79.5572 9.42796 78.6868C10.3953 78.3497 9.98187 76.7155 9.00249 77.0569Z" fill="#252525"/>
<path d="M36.8269 68.2154C48.5554 67.2596 60.316 66.8798 72.0766 67.0761C73.1041 67.0932 73.1041 65.3993 72.0766 65.3822C60.316 65.1859 48.5554 65.5657 36.8269 66.5214C35.8114 66.6025 35.7993 68.3007 36.8269 68.2154Z" fill="#252525"/>
<path d="M78.2586 66.7985C84.151 66.8241 90.0473 66.8497 95.9437 66.8711C97.3846 66.8753 98.8256 66.8838 100.267 66.8881C101.708 66.8924 103.514 66.5041 104.65 67.494C106.083 68.7399 105.513 71.3 103.735 71.987C102.944 72.2899 102.169 72.1875 101.382 72.6398C100.479 73.1604 101.282 74.6196 102.185 74.1033C103.293 73.4676 104.69 73.8644 105.737 73.0537C106.697 72.307 106.877 71.0696 106.97 69.8834C107.166 67.3148 106.283 65.3777 103.702 65.2198C99.5722 64.968 95.3697 65.1771 91.2314 65.16C86.9085 65.143 82.5856 65.1259 78.2626 65.1046C77.2311 65.1003 77.2311 66.7942 78.2586 66.7985Z" fill="#252525"/>
<path d="M4.59304 68.9198C4.5248 68.9923 4.46058 69.0606 4.39234 69.1331C4.09532 69.4489 4.07525 70.0206 4.39234 70.3321C4.70944 70.6436 5.20314 70.6649 5.52024 70.3321C5.58847 70.2596 5.65269 70.1913 5.72093 70.1188C6.01795 69.803 6.03802 69.2313 5.72093 68.9198C5.39982 68.6126 4.90612 68.587 4.59304 68.9198Z" fill="#252525"/>
<path d="M6.88563 69.0909C6.50833 57.7155 4.40908 46.5407 2.05696 35.4682C1.94859 34.9562 1.47897 33.5695 1.6034 33.1727C1.96866 32.0121 3.17683 31.739 4.11607 31.7219C5.55303 31.6921 6.98598 31.6494 8.42294 31.6025C11.1644 31.5086 13.9018 31.3763 16.6393 31.2056C22.2426 30.86 27.838 30.3608 33.4212 29.7208C34.4287 29.6056 34.4407 27.9117 33.4212 28.0269C27.1917 28.7394 20.9422 29.2813 14.6846 29.6269C11.5537 29.7976 8.42294 29.9256 5.29213 30.0024C3.46181 30.0493 1.21004 29.7464 0.294882 31.8713C-0.59218 33.9279 0.764501 37.0598 1.18997 39.1078C1.85226 42.2994 2.48243 45.4953 3.04437 48.7039C4.22445 55.4413 5.06735 62.2341 5.29213 69.0866C5.32825 70.1789 6.92176 70.1832 6.88563 69.0909Z" fill="#252525"/>
<path d="M39.8175 28.6486C49.3785 28.7553 58.9395 28.623 68.4965 28.2561C69.52 28.2177 69.524 26.5238 68.4965 26.5622C58.9395 26.9291 49.3785 27.0614 39.8175 26.9547C38.7899 26.9462 38.7899 28.6401 39.8175 28.6486Z" fill="#252525"/>
<path d="M73.8447 28.5212C78.9744 28.0135 84.1282 27.8343 89.2779 28.0391C91.8508 28.1415 94.4237 28.3335 96.9845 28.6194C98.4375 28.7815 99.9387 28.8967 101.372 29.1997C102.977 29.5367 103.254 30.2066 103.206 31.8622C102.877 42.9133 101.657 54.0284 100.806 65.0496C100.721 66.1377 102.315 66.1291 102.399 65.0496C102.889 58.692 103.363 52.3302 103.82 45.9683C104.037 42.9261 104.254 39.8838 104.462 36.8416C104.615 34.6271 105.47 31.3544 104.49 29.2637C103.7 27.5697 101.701 27.5399 100.159 27.3265C97.3137 26.9297 94.4598 26.6396 91.5939 26.4646C85.6775 26.1019 79.745 26.247 73.8447 26.8316C72.8292 26.9297 72.8211 28.6236 73.8447 28.5212Z" fill="#252525"/>
<path d="M79.4276 68.6514C77.2401 64.6065 76.4935 62.3408 75.0525 58.2873C73.2543 53.2268 70.6613 47.9487 69.5174 42.6408C68.3614 37.2816 71.7491 32.4217 73.5272 27.677C75.8111 21.5968 74.9602 15.7128 72.4435 9.87148C71.4039 7.45218 70.2078 5.4169 67.948 4.10272C65.4233 2.63493 62.5253 1.76449 59.6955 1.32074C54.1805 0.458843 48.4647 1.28661 43.4554 3.93632C39.2289 6.17214 35.5602 9.97816 33.77 14.6546C31.6748 20.1247 33.2 25.2278 35.3836 30.3438C36.5195 33.0063 37.6916 35.6901 37.5029 38.6854C37.2661 42.4872 35.8813 46.37 34.9822 50.0438L29.3668 72.9311C28.4597 76.6262 33.8382 78.2006 34.7454 74.5055C36.3509 67.9688 37.9565 61.4277 39.558 54.8909C40.2925 51.8956 41.0311 48.896 41.7656 45.9007C42.5242 42.8029 43.331 39.6327 43.026 36.4027C42.5323 31.1374 39.1004 26.9303 38.3578 21.7845C37.7036 17.2702 40.4451 13.1484 43.7645 10.6395C47.7463 7.63566 52.8158 6.53908 57.6324 6.99136C59.9845 7.21324 62.4048 7.85327 64.5482 8.91998C67.0128 10.1488 67.9078 13.1612 68.6785 15.7896C69.4411 18.3881 70.5128 21.1957 69.8225 23.8368C69.1281 26.4865 67.9721 29.4605 66.9245 31.9609C64.8292 36.9488 62.9467 41.1133 64.7489 46.3913C66.5873 51.7718 69.8987 56.3544 71.42 61.8757C72.8529 67.0898 74.041 72.0734 78.2877 75.5253C79.4918 76.5067 80.7442 75.9477 81.4506 74.6975C82.3015 73.1785 80.3749 70.4051 79.4276 68.6514Z" fill="#FFFCF7"/>
<path d="M29.891 76.2288C32.5321 64 36.3573 52.0614 38.5769 39.726C38.9141 37.8485 38.7134 35.8986 37.7862 34.2473C36.289 31.5806 34.9002 28.9053 34.0573 25.9142C32.3274 19.787 33.4392 13.6044 37.429 8.76579C41.1498 4.25147 47.1104 2.48074 52.5973 1.87485C58.3532 1.23909 64.3138 2.04126 68.4721 6.64091C72.3013 10.8821 74.0674 15.9938 73.8025 21.8906C73.5416 27.6849 69.2548 32.1609 68.8936 37.84C68.6969 40.9377 69.7245 43.788 70.6838 46.651C71.7635 49.8768 72.6425 53.1708 73.6339 56.4263C75.4964 62.5621 77.8886 68.3991 80.7625 74.0697C81.2482 75.0298 82.625 74.1764 82.1393 73.2164C79.2132 67.4391 76.8129 61.4826 74.9425 55.2231C74.0434 52.2107 73.2165 49.177 72.2171 46.1988C71.0932 42.8493 69.8689 39.4913 70.8082 35.8901C71.5186 33.1593 73.0479 30.6589 74.0313 28.0263C75.0749 25.2358 75.5205 22.4794 75.3679 19.4798C75.103 14.2231 73.365 9.79836 70.0295 5.92834C66.3408 1.6487 61.6526 0.0571808 56.2459 0.00171188C50.8754 -0.053757 45.1275 1.23909 40.327 3.83332C36.0763 6.13315 32.7207 11.936 31.8899 16.7917C30.9506 22.2831 32.5562 27.7617 35.0086 32.5662C35.8515 34.2175 36.9834 35.6853 37.14 37.6181C37.2845 39.4315 36.6302 41.4455 36.2569 43.2077C35.4863 46.8516 34.6113 50.4698 33.7001 54.0796C31.8778 61.2991 29.9271 68.4844 28.3536 75.7722C28.1249 76.8389 29.6622 77.2912 29.891 76.2288Z" fill="#252525"/>
<path d="M28.4601 75.6266C29.1103 77.6235 30.3988 77.8966 32.3495 77.2907C34.4728 76.6336 35.2876 74.4319 36.0824 72.435C37.2906 69.397 37.9167 65.9367 38.7797 62.7707C39.6908 59.4255 40.594 56.076 41.5011 52.7308C42.4283 49.3173 43.4639 45.9252 44.3268 42.4904C44.945 40.0412 45.1698 37.4214 44.0579 35.0917C41.4449 29.6301 37.8445 24.7617 39.3256 18.2462C40.1284 14.7261 41.3124 12.2086 44.3549 10.3739C46.9118 8.83357 49.7616 7.86925 52.6837 7.54924C58.3994 6.92628 64.7493 8.63729 67.6754 14.261C69.3452 17.4696 70.1881 20.6655 69.3452 24.3008C68.6147 27.4498 67.0292 30.2872 65.3474 32.9583C62.2527 37.8779 64.079 44.7731 65.7849 49.9317C67.9163 56.3917 70.4049 62.9541 73.3711 69.0344C74.8362 72.034 79.0788 80.6316 82.8117 75.2896C83.4218 74.4148 82.041 73.57 81.4349 74.4362C79.2153 77.615 76.0483 70.7411 75.2054 69.1026C73.7444 66.2609 72.5683 63.2656 71.3963 60.2788C69.2529 54.8215 66.7362 49.3045 65.6966 43.4504C65.0865 40.0241 65.0544 36.5083 66.9048 33.53C68.41 31.1107 69.8028 28.5549 70.6176 25.7729C72.1148 20.6612 70.8383 15.7501 67.9203 11.4918C65.235 7.57485 60.3903 6.06012 56.0072 5.78705C51.3792 5.4969 46.6709 6.81535 42.7414 9.42239C38.9162 11.9612 37.2544 17.107 37.3548 21.7919C37.4752 27.2834 40.5859 31.2217 42.6852 35.945C44.2145 39.3884 42.3922 43.4504 41.461 46.817C40.4615 50.4352 39.4821 54.0578 38.5027 57.6803C37.5193 61.3157 36.5319 64.951 35.5245 68.5821C35.0308 70.3528 34.533 72.0894 33.7303 73.7364C33.2647 74.6837 33.0078 75.2938 31.928 75.6565C31.0249 75.9594 30.3024 76.113 29.9974 75.1743C29.6642 74.1546 28.1229 74.594 28.4601 75.6266Z" fill="#252525"/>
</svg>
