<svg width="94" height="78" viewBox="0 0 94 78" fill="none" xmlns="http://www.w3.org/2000/svg">
<path d="M59.0987 63.5702L58.6219 63.5711L58.3283 63.9419L49.0792 75.6249L49.0792 75.625C48.0805 76.8867 46.1862 76.8588 45.1828 75.5642L36.2252 64.0068L35.9181 63.6106L35.4206 63.6114L16.6796 63.6446C8.84068 63.6584 2.33831 57.1855 2.19653 49.1459L1.62078 16.4987C1.479 8.4591 7.75265 1.96355 15.5916 1.94969L76.9474 1.8412C84.7863 1.82734 91.2886 8.3003 91.4304 16.3399L92.0062 48.9877C92.148 57.0273 85.8743 63.5229 78.0354 63.5367L59.0987 63.5702Z" fill="#7C72FF" stroke="#252525" stroke-width="2"/>
<path d="M46.6547 50.6858L46.6547 50.6857L31.8607 37.3563L31.8598 37.3555C24.8601 31.0637 25.5994 23.5178 29.4343 19.3654C31.3669 17.2729 34.0848 16.0334 37.0636 16.1896C40.0311 16.3452 43.3925 17.8946 46.5961 21.6377L47.4696 22.6584L48.1886 21.567C50.7886 17.6205 53.7659 16.0334 56.4935 15.8728C59.2432 15.7109 61.9497 16.9853 64.0308 19.1797C68.1896 23.5652 69.6236 31.3794 63.6331 37.4973L49.5118 50.697C49.5117 50.697 49.5117 50.6971 49.5116 50.6971C48.7109 51.4451 47.4916 51.4399 46.6547 50.6858Z" fill="#FEE480" stroke="#252525" stroke-width="2"/>
</svg>
