<svg width="251" height="317" viewBox="0 0 251 317" fill="none" xmlns="http://www.w3.org/2000/svg">
<path d="M0.00610352 40.7197V159.413L104.644 311.546C108.069 316.519 114.709 318.038 119.95 315.09L131.057 308.836L240.311 247.376L227.447 228.199L87.6414 19.5478L77.5766 4.54004L0.00610352 40.7197Z" fill="#252525"/>
<path d="M130.575 307.959L130.575 307.959L246.529 244.235L246.534 244.232C249.915 242.4 250.974 238.035 248.832 234.861L248.83 234.859L94.2884 4.2372C94.2876 4.23601 94.2867 4.23482 94.2859 4.23363C92.4364 1.51612 88.4793 0.201813 85.6207 1.51504C85.6197 1.51551 85.6186 1.51599 85.6176 1.51646L1.00604 41.2641V132.272L123.955 311.602L130.575 307.959Z" fill="#7C72FF" stroke="#252525" stroke-width="2"/>
<path d="M0.00497437 58.6728V114.267L117.805 288.258L224.021 230.072L227.446 228.196L229.679 226.975L92.1962 17.5203L87.6403 19.5451L0.00497437 58.6728Z" fill="#252525"/>
<path d="M0.0114288 64.0946V114.27L117.811 288.26L224.028 230.074L88.9867 24.4011L0.0114288 64.0946Z" fill="#FFFCF7"/>
<path d="M187.452 261.28C186.112 259.345 183.551 258.72 181.467 259.851L162.082 270.303C159.61 271.643 158.896 274.889 160.593 277.122L161.218 277.956C162.648 279.832 165.238 280.338 167.263 279.117L186.023 267.831C188.316 266.491 188.941 263.484 187.452 261.28Z" stroke="#FFFCF7" stroke-width="0.25" stroke-miterlimit="10"/>
<path d="M-4.57764e-05 80.7413V98.1611L76.0518 208.933L173.007 164.118L90.9703 40.8691L-4.57764e-05 80.7413Z" fill="#66E0E3"/>
<path d="M154.515 158.581C150.584 161.112 146.207 162.928 141.621 163.852C139.477 164.298 136.708 164.298 135.666 162.363C134.713 160.606 135.904 158.432 137.393 157.122C139.299 155.454 141.681 154.442 143.646 152.864C145.611 151.285 147.19 148.725 146.475 146.313C145.82 144.109 143.408 142.799 141.115 142.71C138.822 142.62 136.619 143.513 134.534 144.466C112.499 154.531 94.5728 173.023 71.3463 179.842C69.7979 180.289 68.1899 180.706 66.6117 180.348C65.0335 179.991 63.5743 178.681 63.5743 177.102C63.5743 175.673 64.6762 174.542 65.6886 173.559C67.3859 171.891 69.113 170.254 70.8103 168.586C71.7037 167.693 72.6863 166.71 72.7459 165.43C72.8352 163.494 70.6614 162.124 68.7259 162.154C66.7903 162.184 65.0037 163.137 63.1575 163.762C61.3113 164.358 59.0779 164.566 57.6188 163.286C56.1895 162.035 56.0705 159.772 56.8447 158.045C57.6189 156.318 59.1077 155.008 60.5966 153.846C76.736 141.221 98.5033 137.022 113.809 123.384C116.013 121.419 118.127 119.156 118.99 116.297C119.824 113.468 119.02 109.924 116.459 108.465C113.958 107.036 110.831 107.9 108.151 108.942C91.327 115.552 77.3911 127.821 61.8175 136.962C57.202 139.672 52.2887 142.173 46.9585 142.65C45.4399 142.799 43.5937 142.59 42.879 141.25C42.3728 140.327 42.5812 139.196 42.879 138.183C45.7079 128.297 54.5518 120.406 64.7059 118.798C67.1774 118.411 69.9468 118.232 71.7036 116.446C73.5796 114.57 73.6689 111.443 75.4853 109.478C78.1653 106.589 82.8404 107.691 86.771 107.274C92.4586 106.679 97.1337 102.51 100.767 98.073C102.166 96.3459 103.506 94.4997 104.012 92.3259C104.518 90.1521 103.953 87.6211 102.166 86.3407C100.379 85.0305 97.9376 85.2686 95.7936 85.8046C89.2128 87.4424 83.4657 91.373 77.7187 95.0059C64.9739 103.046 51.4847 109.835 37.4595 115.314C34.184 116.595 29.4791 117.279 27.9903 114.093C27.484 112.991 27.5733 111.741 27.8413 110.55C28.9729 105.488 33.1715 101.736 37.519 98.9068C52.0504 89.4673 70.1254 86.698 84.6866 77.3478C86.8008 76.0078 89.064 74.0426 88.8555 71.5413C88.6768 69.2782 86.3542 67.6701 84.0911 67.4617C81.828 67.283 79.6245 68.1764 77.5698 69.1293C61.1624 76.6034 46.8691 88.0082 31.1764 96.8521C28.7049 98.2517 26.144 99.5916 23.3152 99.8596C20.5161 100.128 17.3895 99.0556 15.9899 96.6139C14.9179 94.6783 15.0668 92.2663 15.8113 90.1819C18.0744 83.8691 24.6849 80.4149 30.7595 77.6456C47.4945 70.0523 64.557 63.2035 81.9173 57.1885" stroke="#FFFCF7" stroke-width="0.5" stroke-miterlimit="10" stroke-linecap="round" stroke-linejoin="round"/>
<path d="M115.856 233.669C118.191 234.395 119.994 236.061 120.999 238.072C122.004 240.082 122.265 242.514 121.489 244.86C120.731 247.182 119.082 249.011 117.027 250.031C115.014 251.045 112.576 251.275 110.258 250.526C109.198 250.167 108.631 249.022 108.976 247.984C109.34 246.922 110.485 246.35 111.521 246.691C112.761 247.106 114.063 246.977 115.167 246.412C116.271 245.846 117.16 244.868 117.621 243.619C118.051 242.311 117.911 241.033 117.367 239.906C116.807 238.804 115.833 237.918 114.576 237.528C113.312 237.096 112.034 237.242 110.906 237.79C110.399 238.087 109.803 238.099 109.299 237.883C109.258 237.89 109.258 237.89 109.251 237.849C108.174 237.514 107.613 236.411 107.91 235.338L109.506 230.383L104.333 232.983C103.347 233.486 102.131 233.089 101.626 232.062C101.126 231.078 101.529 229.86 102.515 229.356L111.927 224.587C112.954 224.077 114.146 224.457 114.645 225.442C114.805 225.778 114.859 226.111 114.864 226.409C114.855 226.623 114.823 226.821 114.766 227L112.835 233.185C113.859 233.187 114.903 233.314 115.856 233.669Z" fill="#7C72FF"/>
<path d="M124.436 232.368C123.004 229.425 122.393 226.41 122.781 223.637C123.092 220.919 124.413 218.376 126.941 217.107C129.409 215.869 132.252 216.298 134.621 217.636C137.014 218.992 139.125 221.248 140.574 224.168C142.041 227.063 142.617 230.126 142.247 232.875C141.911 235.576 140.573 238.142 138.129 239.398C135.601 240.667 132.752 240.196 130.407 238.875C127.996 237.543 125.92 235.239 124.436 232.368ZM137.026 225.988C135.867 223.683 134.213 222.013 132.637 221.099C131.026 220.233 129.666 220.136 128.704 220.657C127.694 221.143 126.922 222.316 126.637 224.133C126.418 225.962 126.791 228.29 127.95 230.596C129.102 232.86 130.745 234.595 132.315 235.468C133.95 236.351 135.344 236.399 136.354 235.913C137.341 235.41 138.095 234.261 138.314 232.433C138.558 230.622 138.178 228.253 137.026 225.988Z" fill="#7C72FF"/>
<path d="M153.486 226.01C154.809 225.344 156.433 225.888 157.069 227.192C157.729 228.514 157.172 230.099 155.848 230.765C154.525 231.431 152.95 230.921 152.29 229.6C151.678 228.313 152.187 226.693 153.486 226.01ZM147.123 213.334C148.446 212.669 150.07 213.213 150.706 214.516C151.366 215.838 150.809 217.423 149.486 218.089C148.162 218.755 146.587 218.245 145.927 216.924C145.292 215.62 145.8 214 147.123 213.334Z" fill="#7C72FF"/>
<path d="M154.746 217.102C153.314 214.158 152.703 211.143 153.091 208.37C153.402 205.652 154.723 203.109 157.251 201.84C159.719 200.602 162.561 201.031 164.937 202.411C167.331 203.767 169.442 206.023 170.891 208.942C172.358 211.838 172.934 214.901 172.581 217.625C172.246 220.326 170.907 222.893 168.463 224.149C165.935 225.418 163.086 224.947 160.741 223.626C158.306 222.277 156.23 219.973 154.746 217.102ZM167.353 210.698C166.194 208.392 164.558 206.698 162.982 205.784C161.371 204.918 160.011 204.821 159.049 205.342C158.039 205.828 157.267 207.001 156.982 208.818C156.763 210.647 157.136 212.975 158.295 215.281C159.447 217.545 161.108 219.256 162.659 220.153C164.294 221.036 165.689 221.084 166.699 220.598C167.685 220.095 168.44 218.946 168.659 217.118C168.885 215.332 168.488 212.986 167.353 210.698Z" fill="#7C72FF"/>
<path d="M177.402 205.679C175.97 202.735 175.359 199.721 175.747 196.947C176.058 194.229 177.379 191.686 179.906 190.417C182.375 189.179 185.217 189.608 187.569 190.971C189.963 192.327 192.073 194.583 193.523 197.502C194.989 200.397 195.565 203.46 195.195 206.209C194.86 208.91 193.521 211.477 191.077 212.732C188.549 214.001 185.7 213.531 183.355 212.21C180.962 210.854 178.886 208.55 177.402 205.679ZM190.009 199.275C188.85 196.969 187.196 195.299 185.62 194.385C184.009 193.519 182.649 193.423 181.687 193.944C180.695 194.406 179.905 195.602 179.62 197.42C179.401 199.248 179.774 201.576 180.933 203.882C182.085 206.146 183.746 207.857 185.298 208.754C186.933 209.637 188.327 209.686 189.337 209.199C190.324 208.696 191.078 207.548 191.297 205.72C191.541 203.909 191.144 201.563 190.009 199.275Z" fill="#7C72FF"/>
<path d="M26.6631 42.5364C24.558 42.5364 22.8516 40.8299 22.8516 38.7248C22.8516 36.6198 24.558 34.9133 26.6631 34.9133C28.7681 34.9133 30.4746 36.6198 30.4746 38.7248C30.4746 40.8299 28.7681 42.5364 26.6631 42.5364Z" stroke="#FFFCF7" stroke-width="0.25" stroke-miterlimit="10"/>
</svg>
