<svg width="466" height="446" viewBox="0 0 466 446" fill="none" xmlns="http://www.w3.org/2000/svg">
<path d="M292.016 63.2123L304.621 38.1763L298.688 33.995L301.749 28.1291C302.988 25.7199 306.024 24.9356 308.266 26.3936L340.077 47.172C342.056 48.4585 342.701 51.1414 341.534 53.2362L338.617 58.4731L332.801 55.4143L321.315 78.4579L292.016 63.2123Z" fill="#FDA5C0" stroke="#252525" stroke-width="2"/>
<path d="M200.579 406.177L149.237 380.151L149.102 380.389L142.726 376.808L137.488 374.196L137.554 373.951L85.678 344.935C80.3552 341.884 78.5164 335.079 81.5706 329.455L183 137.938C184.464 135.209 186.972 133.082 189.862 132.102L222.359 121.498L228.311 108.156L229.93 104.474L232.404 99.0104L235 93.1278L282.308 104.756L283.319 102.845L327.657 142.507L320.193 154.235L310.97 168.807L320.177 201.619C320.996 204.564 320.664 207.758 319.161 210.519L215.802 400.956C212.817 406.587 206.085 408.886 200.579 406.177Z" fill="#FDA5C0" stroke="#252525" stroke-width="2"/>
<path d="M259.167 111.342L227.878 105.581L230.316 100.069L259.167 111.342Z" fill="#252525"/>
<path d="M329.501 152.973L225.543 97.7167C221.968 95.7925 220.687 91.247 222.77 87.7069L230.77 73.9412L246.843 46.095C249.203 42.0111 253.81 39.9601 258.36 40.8418C269.156 42.9661 290.13 48.8688 314.81 64.0927C338.332 78.5833 351.594 91.2221 357.943 98.2818C361.003 101.584 361.602 106.487 359.501 110.491L346.494 135.798L339.311 149.867C337.439 153.429 333.046 154.858 329.501 152.973Z" fill="#FDA5C0" stroke="#252525" stroke-width="2"/>
<path d="M346.155 135.708C344.305 133.431 342.368 131.288 340.4 129.107C340.054 128.747 339.708 128.388 339.361 128.029C337.477 126.036 335.545 124.146 333.542 122.25C333.204 121.819 332.78 121.524 332.433 121.165C329.73 118.62 326.908 116.173 324.03 113.899C323.683 113.54 323.289 113.284 322.895 113.028C319.215 110.061 315.43 107.371 311.496 104.739C311.141 104.451 310.685 104.117 310.252 103.893C307.045 101.695 303.641 99.6569 300.19 97.7224C299.756 97.4984 299.331 97.2032 298.858 97.0113C294.649 94.6038 290.304 92.4351 285.802 90.3947C285.408 90.1386 284.935 89.9467 284.532 89.7619C279.999 87.6823 275.44 85.8166 270.715 84.1504C270.312 83.9655 269.799 83.8057 269.287 83.6459C264.229 81.8019 258.974 80.1183 253.724 78.6876C253.273 78.6061 252.8 78.4142 252.279 78.3256C250.291 77.7646 248.224 77.2678 246.258 76.8173C244.533 76.427 242.839 76.0759 241.105 75.7568C240.553 75.6291 240.071 75.5085 239.581 75.459C236.735 74.9558 233.88 74.5238 231 74.3055L247.224 46.1945C249.606 42.0718 254.222 39.9772 258.762 40.8315C259.905 41.0549 261.218 41.3315 262.602 41.6152C263.154 41.743 263.666 41.9028 264.257 41.9985C267.257 42.6975 270.69 43.6205 274.508 44.8708C275.012 45.1018 275.493 45.2225 276.006 45.3823C279.886 46.7109 284.129 48.2564 288.649 50.1543C289.122 50.3462 289.564 50.499 289.998 50.723C294.145 52.4752 298.477 54.4623 302.966 56.898C303.439 57.0899 303.833 57.346 304.267 57.57C307.767 59.4011 311.341 61.4922 315.007 63.7006C315.371 63.9176 315.765 64.1736 316.129 64.3906C316.624 64.6929 317.057 64.9169 317.373 65.2371C321.333 67.6555 324.903 70.0706 328.171 72.3471C328.666 72.6494 329.06 72.9055 329.376 73.2258C333.139 75.8046 336.442 78.3731 339.452 80.7317C339.877 81.027 340.293 81.3934 340.648 81.6816C344.175 84.4529 347.111 87.1286 349.731 89.484C350.077 89.8434 350.502 90.1387 350.879 90.5372C353.442 93.0672 355.59 95.2307 357.281 97.0599C357.535 97.3018 357.75 97.5759 357.974 97.7787C358.096 97.9353 358.25 98.131 358.342 98.2485C361.068 101.48 361.454 106.17 359.457 110.043L346.155 135.708Z" fill="#252525"/>
<path d="M240.5 75.3264C239.965 75.2123 239.498 75.1037 239.021 75.0648C245.804 63.3629 253.511 52.1945 261.998 41.618C262.533 41.7321 263.029 41.8784 263.603 41.9605C254.981 52.5259 247.273 63.6942 240.5 75.3264Z" fill="#FFFCF7"/>
<path d="M253.202 78.3996C252.764 78.3283 252.306 78.1496 251.8 78.0726C257.722 66.0781 265.135 55.0174 273.962 44.9545C274.449 45.1709 274.916 45.2799 275.413 45.4265C266.557 55.4518 259.134 66.5822 253.202 78.3996Z" fill="#FFFCF7"/>
<path d="M270.293 84.045C269.902 83.8701 269.404 83.7215 268.906 83.5729C275.08 72.368 281.519 61.2563 288.232 50.416C288.692 50.5967 289.122 50.7394 289.542 50.9523C282.927 61.8364 276.498 72.878 270.293 84.045Z" fill="#FFFCF7"/>
<path d="M285.539 90.3897C285.157 90.1443 284.697 89.9632 284.306 89.788C290.197 78.87 296.43 67.9812 302.704 57.3087C303.164 57.4897 303.545 57.7351 303.966 57.9483C297.693 68.6209 291.499 79.4776 285.539 90.3897Z" fill="#FFFCF7"/>
<path d="M300.016 97.8676C299.595 97.6537 299.183 97.3696 298.722 97.1878L316 64.9588C316.48 65.2489 316.902 65.4628 317.206 65.7733L300.016 97.8676Z" fill="#FFFCF7"/>
<path d="M311.503 104.92C311.16 104.642 310.719 104.321 310.299 104.108C316.986 94.2152 323.026 83.7354 328.205 72.9694C328.685 73.2586 329.067 73.5039 329.371 73.8136C324.123 84.5738 318.093 94.9835 311.503 104.92Z" fill="#FFFCF7"/>
<path d="M324.169 114.162C323.835 113.813 323.452 113.566 323.069 113.32C329.087 102.958 334.594 92.2678 339.572 81.3894C339.984 81.6741 340.387 82.029 340.731 82.3077C335.694 93.1098 330.187 103.8 324.169 114.162Z" fill="#FFFCF7"/>
<path d="M333.848 122.576C333.523 122.157 333.111 121.873 332.777 121.525C339.139 111.45 344.894 101.004 349.933 90.2126C350.267 90.5611 350.679 90.8452 351.043 91.2318C345.945 101.947 340.181 112.464 333.848 122.576Z" fill="#FFFCF7"/>
<path d="M340.826 129.448C340.492 129.101 340.159 128.753 339.825 128.405C346.17 118.483 352.143 108.245 357.588 97.8209C357.833 98.0546 358.039 98.3206 358.255 98.5163C358.373 98.6682 358.52 98.8581 358.609 98.9721C353.096 109.391 347.132 119.558 340.826 129.448Z" fill="#FFFCF7"/>
<path d="M257.794 209.854L177.674 233.058L216.775 254.926L149.283 301.149L255.074 260.805L220.485 237.847L257.794 209.854Z" fill="#FEE480" stroke="#252525" stroke-width="2"/>
<path d="M304.614 38.1681L332.802 55.488L302.932 41.2581L304.614 38.1681Z" fill="#252525"/>
</svg>
