<svg width="58" height="136" viewBox="0 0 58 136" fill="none" xmlns="http://www.w3.org/2000/svg">
<path d="M2.64074 37.2849C2.28768 39.3008 1.94745 41.2435 1.60024 43.0534C1.09328 45.679 0.609811 48.3292 0.150391 51H7.79762C8.18349 48.7989 8.58618 46.6106 9.00559 44.4361C9.30243 42.905 9.59926 41.2177 9.91172 39.4289L9.91218 39.4263C11.3885 30.9744 13.4117 19.3918 17.6686 14.182C22.9336 7.73747 32.0653 8.39364 38.8066 10.0809C45.1886 11.6745 49.1413 13.1899 49.9771 23.6105C50.1802 26.2508 49.9302 29.4692 49.6881 32.586C49.5787 34.0155 49.4694 35.4059 49.4069 36.6949C49.197 41.1571 48.9631 45.9906 48.6919 51C48.428 55.8738 48.1288 60.9142 47.7821 65.9413C46.9853 77.4164 46.0479 87.5246 44.9152 96.8515C44.7356 98.2967 44.5872 99.8199 44.4231 101.382L44.4219 101.394C43.4692 110.687 42.3896 121.218 36.1273 125.871C34.1041 127.363 27.9173 126.934 25.4098 125.512C18.5235 121.608 18.5122 115.34 18.4966 106.66L18.4966 106.647V106.03C18.4732 96.086 19.5043 85.5795 21.6447 73.909C22.1524 71.1359 20.5276 69.2846 18.7388 68.9565C16.9421 68.6284 14.7549 69.7767 14.2393 72.5655L14.1925 72.8467C11.1303 89.5009 4.76392 124.153 18.5357 132.3C23.9413 135.503 34.5728 136.667 41.1891 133.238C47.3056 130.058 48.4929 123.372 49.5319 117.482C53.9454 92.4849 55.4608 67.0739 56.7419 41.0615C56.8122 39.632 56.8903 38.2337 56.9684 36.8667C57.8433 21.064 58.5932 7.40938 43.8841 2.36313C34.4009 -0.894287 16.5281 -2.80811 9.693 10.7059C6.00595 17.9862 4.24835 28.0553 2.70167 36.937L2.64074 37.2849Z" fill="#7DDF6D"/>
</svg>
