<svg width="261" height="265" viewBox="0 0 261 265" fill="none" xmlns="http://www.w3.org/2000/svg">
<path d="M218.717 77.1904L205.279 59.8681L41.8292 187.223L55.267 204.545C78.1163 233.999 133.227 229.362 178.361 194.195C223.495 159.028 241.562 106.64 218.717 77.1904Z" fill="#E59B00"/>
<path d="M46.284 183.415L41.8223 186.884L55.3458 204.28C65.1152 216.846 80.7543 223.21 98.98 223.692L58.9799 173.544L46.284 183.415Z" fill="#DBA97F"/>
<path d="M172.354 133.337L202.445 171.111C211.853 159.742 218.906 147.676 223.313 135.775L202.426 109.557L172.354 133.337Z" fill="#FCE898"/>
<path d="M207.916 105.122L225.789 127.521C226.416 125.173 226.937 122.847 227.344 120.541L212.287 101.673L207.916 105.122Z" fill="#FCE898"/>
<path d="M41.4241 187.06C18.546 157.577 36.6343 105.139 81.8254 69.9365C127.016 34.7341 182.197 30.0978 205.076 59.5811C227.954 89.0644 209.865 141.503 164.674 176.705C119.483 211.907 64.3022 216.544 41.4241 187.06Z" fill="#FEE475"/>
<path d="M44.1144 184.968C21.9879 156.453 39.4828 105.737 83.1903 71.6898C126.898 37.643 180.267 33.1584 202.393 61.6732C224.52 90.1879 207.025 140.904 163.318 174.951C119.61 208.998 66.241 213.482 44.1144 184.968Z" fill="#FED425"/>
<path d="M34.6911 151.307L187.034 151.994C196.289 140.73 203.166 128.768 207.336 117.001L45.1343 116.268C38.9427 128.119 35.3558 140.106 34.6911 151.307Z" fill="#FCE898"/>
<path d="M141.728 189.232L47.9616 188.813C67.708 208.788 105.627 208.374 141.728 189.232Z" fill="#FCE898"/>
<path d="M107.86 55.8069L196.832 56.2065C191.877 51.7039 185.917 48.3697 179.222 46.1678L134.259 45.9688C125.578 48.1139 116.683 51.4019 107.86 55.8069Z" fill="#FCE898"/>
<path d="M49.755 107.941L209.713 108.66C210.176 106.793 210.54 104.936 210.859 103.091L53.4826 102.389C52.1802 104.228 50.9321 106.078 49.755 107.941Z" fill="#FCE898"/>
<path d="M201.977 62.0056C224.653 91.2062 207.155 142.882 162.958 178.126C163.463 177.741 163.974 177.373 164.475 176.983C209.772 141.724 227.904 89.1983 204.972 59.6671C182.04 30.1358 126.731 34.7852 81.4342 70.0446C80.9329 70.4348 80.4511 70.8402 79.9535 71.2351C124.968 37.0435 179.302 32.8049 201.977 62.0056Z" fill="#FCE898"/>
<path d="M65.6819 170.086C49.9436 149.803 62.388 113.729 93.4772 89.5117C124.566 65.2942 162.528 62.1039 178.266 82.386C194.004 102.668 181.56 138.742 150.471 162.96C119.381 187.177 81.4201 190.368 65.6819 170.086Z" fill="#FCE898"/>
<path d="M66.9587 167.17C51.2204 146.888 63.6648 110.814 94.7541 86.5962C125.843 62.3787 163.805 59.1884 179.543 79.4705C195.281 99.7526 182.837 135.827 151.747 160.044C120.658 184.262 82.697 187.452 66.9587 167.17Z" fill="#FEB724"/>
<path d="M135.018 127.084L139.6 133.219C140.235 134.07 140.652 135.063 140.813 136.109C140.974 137.155 140.875 138.222 140.524 139.213C140.173 140.205 139.582 141.09 138.803 141.791C138.024 142.491 137.081 142.984 136.06 143.226L94.6469 153.005C93.6533 153.236 92.6062 153.116 91.6817 152.664C90.7572 152.213 90.0118 151.457 89.5708 150.525C89.1299 149.592 89.0204 148.54 89.2607 147.545C89.5011 146.55 90.0766 145.673 90.8904 145.062L114.301 127.574L110.731 122.478C109.778 121.111 109.388 119.433 109.642 117.797C109.895 116.162 110.774 114.698 112.092 113.715L132.129 98.7472C133.475 97.7419 135.17 97.3196 136.843 97.5733C138.515 97.827 140.027 98.736 141.046 100.1L147.982 109.386C149.001 110.75 149.444 112.458 149.213 114.133C148.982 115.809 148.096 117.315 146.75 118.32L135.018 127.084Z" fill="#E88C03"/>
<path d="M96.7452 92.5023C127.791 68.3119 165.706 65.1248 181.422 85.3845C182.865 87.2447 184.069 89.2387 185.044 91.3423C183.966 86.9914 182.097 82.9693 179.354 79.4326C163.638 59.1729 125.723 62.3599 94.677 86.5504C66.48 108.521 53.6451 140.26 63.3006 161.079C58.1914 140.503 71.1168 112.471 96.7452 92.5023Z" fill="#FB9D12"/>
</svg>
