<svg width="225" height="218" viewBox="0 0 225 218" fill="none" xmlns="http://www.w3.org/2000/svg">
<path d="M56.2752 125.041C64.571 155.121 96.2895 172.147 127.12 163.069C157.951 153.991 176.22 122.246 167.924 92.1651C159.628 62.0841 127.909 45.0581 97.0785 54.1364C66.2476 63.2147 47.9793 94.9596 56.2752 125.041Z" fill="#FEE475"/>
<path d="M57.7027 124.62C65.7864 153.932 96.6938 170.522 126.736 161.676C156.779 152.83 174.58 121.897 166.496 92.5851C158.412 63.2735 127.505 46.6829 97.4627 55.5291C67.4202 64.3752 49.619 95.3082 57.7027 124.62Z" fill="#FED425"/>
<path d="M127.363 162.073L96.7165 55.4156C89.4808 57.5003 82.6674 61.0119 76.7246 65.8009L104.885 163.799C112.469 164.729 120.118 164.119 127.363 162.073Z" fill="#FCE898"/>
<path d="M74.8824 150.532L58.5801 93.7993C52.4942 114.237 58.8638 136.395 74.8824 150.532Z" fill="#FCE898"/>
<path d="M167.882 107.579L159.647 78.9233C157.157 74.9025 154.135 71.1657 150.596 67.841L166.088 121.753C167.325 117.067 167.905 112.303 167.882 107.579Z" fill="#FCE898"/>
<path d="M136.281 158.488L106.077 53.3772C104.504 53.5514 102.942 53.7876 101.389 54.0931L131.922 160.347C133.403 159.793 134.854 159.17 136.281 158.488Z" fill="#FCE898"/>
<path d="M75.05 89.6789C64.0556 109.141 71.0866 133.609 90.7541 144.33C110.422 155.05 135.278 147.962 146.273 128.5C157.267 109.037 150.236 84.5694 130.568 73.8492C110.901 63.1291 86.0445 70.2163 75.05 89.6789Z" fill="#FCE898"/>
<path d="M72.6846 120.209C78.5419 141.448 100.937 153.469 122.705 147.059C144.473 140.65 157.372 118.236 151.514 96.9975C145.657 75.7588 123.262 63.7376 101.494 70.1474C79.7256 76.5571 66.8273 98.9706 72.6846 120.209Z" fill="#FEB724"/>
<path d="M120.081 104.557L123.862 107.96C124.385 108.432 124.786 109.025 125.026 109.686C125.267 110.347 125.34 111.055 125.24 111.746C125.14 112.438 124.869 113.091 124.452 113.648C124.035 114.206 123.485 114.649 122.851 114.939L97.1353 126.675C96.5179 126.955 95.8201 127.012 95.1592 126.838C94.4984 126.663 93.9148 126.267 93.5067 125.717C93.0987 125.167 92.891 124.495 92.9187 123.816C92.9464 123.137 93.2078 122.49 93.6588 121.987L106.646 107.56L103.66 104.702C102.863 103.935 102.391 102.892 102.344 101.793C102.298 100.695 102.68 99.6275 103.412 98.8162L114.528 86.468C115.275 85.6386 116.325 85.1439 117.447 85.0925C118.569 85.0412 119.672 85.4376 120.513 86.1944L126.235 91.346C127.076 92.1028 127.586 93.1581 127.652 94.2797C127.719 95.4013 127.337 96.4973 126.59 97.3267L120.081 104.557Z" fill="#E88C03"/>
<path d="M128.908 74.1542C148.575 84.8737 155.606 109.343 144.612 128.805C139.39 138.049 131.037 144.495 121.603 147.573C132.259 144.963 141.855 138.162 147.627 127.945C158.62 108.484 151.589 84.0144 131.922 73.2948C121.598 67.6672 109.843 66.9546 99.4141 70.3564C109.057 67.9968 119.566 69.0622 128.908 74.1542Z" fill="#FB9D12"/>
<path d="M160.294 135.176C144.83 162.558 110.048 172.688 82.1595 158.153C82.4802 158.336 82.7945 158.53 83.1214 158.708C111.173 174.003 146.599 163.941 162.246 136.236C177.892 108.531 167.835 73.6704 139.784 58.3757C139.457 58.1975 139.126 58.0397 138.796 57.8672C166.105 73.4357 175.758 107.794 160.294 135.176Z" fill="#FCE898"/>
</svg>
