<svg width="376" height="364" viewBox="0 0 376 364" fill="none" xmlns="http://www.w3.org/2000/svg">
<path d="M94.2933 209.515C108.194 259.918 161.341 288.447 213 273.235C264.66 258.024 295.27 204.833 281.37 154.43C267.469 104.027 214.322 75.4983 162.663 90.7097C111.003 105.921 80.393 159.112 94.2933 209.515Z" fill="#FEE475"/>
<path d="M96.6852 208.81C110.23 257.924 162.018 285.723 212.356 270.901C262.695 256.078 292.522 204.248 278.977 155.134C265.432 106.02 213.645 78.2208 163.306 93.0432C112.968 107.866 83.1403 159.696 96.6852 208.81Z" fill="#FED425"/>
<path d="M213.406 271.566L162.056 92.8533C149.932 96.3464 138.516 102.23 128.558 110.255L175.743 274.459C188.45 276.017 201.268 274.995 213.406 271.566Z" fill="#FCE898"/>
<path d="M125.471 252.228L98.1552 157.168C87.9578 191.412 98.6307 228.54 125.471 252.228Z" fill="#FCE898"/>
<path d="M281.299 180.256L267.501 132.242C263.329 125.505 258.265 119.244 252.335 113.673L278.293 204.007C280.366 196.154 281.337 188.172 281.299 180.256Z" fill="#FCE898"/>
<path d="M228.35 265.56L177.741 89.4377C175.105 89.7296 172.486 90.1253 169.885 90.6372L221.045 268.675C223.526 267.745 225.958 266.701 228.35 265.56Z" fill="#FCE898"/>
<path d="M125.752 150.264C107.33 182.875 119.111 223.873 152.066 241.835C185.02 259.798 226.669 247.923 245.091 215.312C263.513 182.7 251.732 141.702 218.778 123.74C185.823 105.778 144.174 117.653 125.752 150.264Z" fill="#FCE898"/>
<path d="M121.788 201.42C131.602 237.007 169.127 257.15 205.601 246.409C242.076 235.669 263.688 198.114 253.873 162.527C244.059 126.94 206.535 106.797 170.06 117.537C133.586 128.277 111.974 165.833 121.788 201.42Z" fill="#FEB724"/>
<path d="M201.205 175.193L207.54 180.896C208.417 181.687 209.088 182.681 209.491 183.788C209.894 184.895 210.017 186.081 209.849 187.239C209.682 188.398 209.228 189.493 208.529 190.427C207.831 191.36 206.909 192.103 205.846 192.589L162.758 212.254C161.723 212.723 160.554 212.819 159.447 212.526C158.339 212.234 157.361 211.571 156.678 210.649C155.994 209.727 155.646 208.602 155.692 207.463C155.739 206.325 156.177 205.242 156.932 204.398L178.694 180.225L173.691 175.436C172.354 174.151 171.563 172.403 171.485 170.563C171.408 168.722 172.049 166.934 173.274 165.574L191.901 144.884C193.152 143.494 194.911 142.665 196.792 142.579C198.672 142.493 200.52 143.157 201.929 144.425L211.517 153.057C212.926 154.325 213.78 156.094 213.891 157.973C214.003 159.852 213.362 161.689 212.111 163.079L201.205 175.193Z" fill="#E88C03"/>
<path d="M215.996 124.251C248.949 142.212 260.731 183.213 242.31 215.823C233.559 231.313 219.562 242.114 203.754 247.27C221.61 242.897 237.689 231.502 247.36 214.383C265.781 181.773 253.999 140.773 221.046 122.811C203.747 113.382 184.05 112.188 166.576 117.888C182.733 113.934 200.343 115.719 215.996 124.251Z" fill="#FB9D12"/>
<path d="M268.585 226.498C242.674 272.379 184.394 289.353 137.664 264.998C138.202 265.304 138.728 265.629 139.276 265.928C186.278 291.555 245.639 274.697 271.855 228.275C298.072 181.852 281.221 123.441 234.219 97.8132C233.671 97.5145 233.116 97.2502 232.563 96.9612C278.321 123.047 294.497 180.617 268.585 226.498Z" fill="#FCE898"/>
</svg>
