<svg width="76" height="96" viewBox="0 0 76 96" fill="none" xmlns="http://www.w3.org/2000/svg">
<path d="M75.2953 11.6644L62.3647 1.82056L0.028948 83.4123L12.9595 93.2561L75.2953 11.6644Z" fill="#E59B00"/>
<path d="M62.7866 27.9772L49.9385 18.1621L38.1275 33.6693L50.9757 43.4844L62.7866 27.9772Z" fill="#FCE898"/>
<path d="M26.5895 75.2615L13.7466 65.4487L3.00183 79.5584L15.8447 89.3711L26.5895 75.2615Z" fill="#FEB724"/>
<path d="M14.4708 91.0517L1.70264 81.28L0.0323957 83.4778L12.8005 93.2494L14.4708 91.0517Z" fill="#FCE898"/>
<path d="M67.2012 22.1718L54.4263 12.3958L52.226 15.2904L65.001 25.0664L67.2012 22.1718Z" fill="#FCE898"/>
<path d="M62.417 1.82202L42.3786 28.1048L62.4365 3.44933L73.7234 12.0623L55.2588 37.9336L75.2972 11.6509L62.417 1.82202Z" fill="#FCE898"/>
</svg>
