<svg width="154" height="167" viewBox="0 0 154 167" fill="none" xmlns="http://www.w3.org/2000/svg">
<path d="M35.5801 121.981L43.0406 128.407L117.656 43.7718L110.196 37.3461C90.5435 20.4197 57.9117 25.6477 37.3078 49.0185C16.7038 72.3893 15.9305 105.057 35.5801 121.981Z" fill="#E59B00"/>
<path d="M115.451 46.2228L117.489 43.9028L109.988 37.4213C101.595 30.1694 90.8365 26.9693 79.6504 27.4807L109.648 52.8221L115.448 46.2206L115.451 46.2228Z" fill="#DBA97F"/>
<path d="M53.0247 85.8399L27.2985 64.1032C23.7905 71.4497 21.8536 79.1179 21.499 86.5729L39.3584 101.661L53.0247 85.8399Z" fill="#FCE898"/>
<path d="M36.8695 104.676L21.6522 91.7398C21.7258 93.2084 21.8617 94.6605 22.0644 96.0956L34.8844 106.993L36.8695 104.676Z" fill="#FCE898"/>
<path d="M117.629 44.1085C137.39 61.1655 136.751 93.9293 116.201 117.289C95.652 140.648 62.9745 145.757 43.2138 128.7C23.4532 111.643 24.0925 78.8788 44.6418 55.5196C65.191 32.1603 97.8686 27.0514 117.629 44.1085Z" fill="#FEE475"/>
<path d="M116.408 45.4969C135.52 61.9946 134.903 93.6833 115.028 116.276C95.1534 138.868 63.5481 143.809 44.4355 127.311C25.3229 110.813 25.9407 79.1247 45.8153 56.5324C65.6899 33.94 97.2953 28.9993 116.408 45.4969Z" fill="#FED425"/>
<path d="M128.813 65.6358L35.9368 71.5024C32.5326 78.7625 30.7132 86.351 30.4996 93.7052L129.384 87.4624C130.812 79.9687 130.624 72.5022 128.813 65.6358Z" fill="#FCE898"/>
<path d="M56.2979 46.7095L113.456 43.0997C97.4806 31.7132 74.4821 33.5302 56.2979 46.7095Z" fill="#FCE898"/>
<path d="M102.979 127.211L48.7437 130.636C52.6494 133.181 56.9386 134.972 61.4477 136.04L88.8576 134.308C93.7141 132.638 98.4797 130.265 102.979 127.211Z" fill="#FCE898"/>
<path d="M128.157 92.8172L30.6491 98.9761C30.7377 100.136 30.8813 101.282 31.0524 102.422L126.989 96.3636C127.417 95.1857 127.809 94.0034 128.157 92.8172Z" fill="#FCE898"/>
<path d="M44.6711 127.224C25.1115 110.324 25.5403 78.0356 45.4504 54.6776C45.2178 54.9325 44.9799 55.1784 44.7522 55.4375C24.1765 78.8499 23.5295 111.684 43.3068 128.771C63.084 145.859 95.7988 140.731 116.375 117.319C116.602 117.06 116.815 116.792 117.038 116.529C96.4308 139.285 64.2283 144.121 44.6711 127.224Z" fill="#FCE898"/>
<path d="M106.225 55.4659C119.819 67.1999 119.379 89.7396 105.242 105.81C91.1052 121.88 68.625 125.395 55.031 113.66C41.4371 101.926 41.8772 79.3868 56.0141 63.3167C70.1509 47.2467 92.6312 43.7318 106.225 55.4659Z" fill="#FCE898"/>
<path d="M106.018 57.3086C119.612 69.0427 119.171 91.5823 105.035 107.652C90.8977 123.722 68.4175 127.237 54.8235 115.503C41.2296 103.769 41.6697 81.2295 55.8065 65.1595C69.9434 49.0895 92.4237 45.5745 106.018 57.3086Z" fill="#FEB724"/>
<path d="M74.2364 87.8639L71.8428 85.0034C71.5112 84.6065 71.2818 84.1347 71.1753 83.6302C71.0688 83.1257 71.0884 82.6043 71.2324 82.1126C71.3764 81.6209 71.6403 81.1743 72.0004 80.8128C72.3606 80.4513 72.8057 80.1861 73.296 80.0411L93.1754 74.1721C93.6525 74.0328 94.165 74.0631 94.6268 74.2579C95.0886 74.4528 95.4715 74.8002 95.711 75.2418C95.9505 75.6834 96.032 76.1922 95.9419 76.6826C95.8517 77.173 95.5954 77.6151 95.216 77.9344L84.2996 87.069L86.1727 89.4517C86.6728 90.091 86.908 90.8968 86.8284 91.699C86.7489 92.5011 86.3609 93.2367 85.7465 93.7503L76.4029 101.569C75.7753 102.094 74.962 102.345 74.1419 102.266C73.3217 102.188 72.5619 101.786 72.0296 101.15L68.4064 96.8203C67.8741 96.1842 67.6129 95.3655 67.6803 94.5444C67.7476 93.7233 68.1381 92.9669 68.7656 92.4418L74.2364 87.8639Z" fill="#E88C03"/>
<path d="M105.583 103.791C91.4449 119.863 68.9594 123.38 55.3626 111.643C48.0094 105.296 44.7702 95.7888 45.572 85.854C43.4771 97.155 46.5354 108.36 54.8423 115.53C68.4392 127.267 90.9246 123.751 105.063 107.679C111.557 100.297 115.151 91.5507 115.834 83.1156C114.501 90.3088 111.083 97.5394 105.583 103.791Z" fill="#FB9D12"/>
</svg>
