<svg width="38" height="38" viewBox="0 0 38 38" fill="none" xmlns="http://www.w3.org/2000/svg">
<circle cx="19" cy="19" r="18.5" fill="#FDA5C0" stroke="#252525"/>
<path d="M17.8325 12.2144C17.939 12.2165 18.0432 12.2444 18.1356 12.2955L22.5021 14.7019C22.5533 14.722 22.6015 14.7484 22.6456 14.7806L26.9651 17.1619C26.9864 17.1719 27.007 17.183 27.027 17.1953C27.0611 17.2134 27.0934 17.2346 27.1235 17.2585C28.7026 17.7045 29.8572 19.1036 29.8572 20.7643C29.8572 22.7831 28.1502 24.4286 26.0559 24.4286H24.1535C24.1465 24.4284 24.1394 24.428 24.1324 24.4274H11.488C11.3201 24.4268 11.1593 24.3619 11.0409 24.2469C10.9226 24.132 10.8565 23.9765 10.8572 23.8145V12.8273C10.8572 12.7068 10.8943 12.5889 10.9638 12.4886C11.0332 12.3883 11.1319 12.3101 11.2474 12.2638C11.3629 12.2175 11.49 12.2052 11.6128 12.2285C11.7355 12.2517 11.8483 12.3095 11.9371 12.3945L13.0169 13.4355H16.2937L17.3736 12.3945C17.4336 12.3363 17.5052 12.2903 17.584 12.2594C17.6629 12.2285 17.7474 12.2132 17.8325 12.2144ZM17.9253 13.5881L17.005 14.4813C16.8853 14.5947 16.7238 14.6578 16.5559 14.6566H12.7547C12.5869 14.6578 12.4254 14.5947 12.3057 14.4813L12.1189 14.3012V23.2064H24.1535H25.4201H26.0559C27.4704 23.2064 28.5905 22.1277 28.5905 20.7643C28.5905 19.5756 27.7288 18.6074 26.5792 18.3758C26.5127 18.3674 26.4479 18.3489 26.3875 18.3209H21.6189C21.5345 18.3228 21.4506 18.3083 21.3721 18.2785C21.2936 18.2486 21.2221 18.2039 21.1618 18.147C21.1015 18.0902 21.0535 18.0222 21.0208 17.9473C20.988 17.8723 20.9712 17.7918 20.9712 17.7104C20.9712 17.6291 20.988 17.5485 21.0208 17.4735C21.0535 17.3986 21.1015 17.3306 21.1618 17.2738C21.2221 17.2169 21.2936 17.1722 21.3721 17.1424C21.4506 17.1125 21.5345 17.098 21.6189 17.0999H24.3031L22.0852 15.8788H17.8214C17.7374 15.88 17.6541 15.865 17.5762 15.8348C17.4984 15.8047 17.4275 15.7599 17.3677 15.7031C17.3079 15.6463 17.2605 15.5786 17.2281 15.5039C17.1957 15.4293 17.179 15.3492 17.179 15.2683C17.179 15.1874 17.1957 15.1073 17.2281 15.0326C17.2605 14.958 17.3079 14.8903 17.3677 14.8335C17.4275 14.7767 17.4984 14.7319 17.5762 14.7017C17.6541 14.6715 17.7374 14.6566 17.8214 14.6577H19.8673L17.9253 13.5881Z" fill="#252525"/>
</svg>
