<svg width="38" height="38" viewBox="0 0 38 38" fill="none" xmlns="http://www.w3.org/2000/svg">
<circle cx="19" cy="19" r="18.4" fill="#7DDF6D" stroke="#252525" stroke-width="1.2"/>
<path fill-rule="evenodd" clip-rule="evenodd" d="M16.5405 18.4231V21.8159C16.5405 22.6005 16.9935 23.3614 17.8553 23.9492C18.8799 24.6481 20.528 25.124 22.3932 25.124C24.2584 25.124 25.9065 24.6481 26.9312 23.9492C27.7929 23.3614 28.2459 22.6005 28.2459 21.8159V18.4231C28.2459 18.0015 27.9041 17.6597 27.4825 17.6597C27.0609 17.6597 26.7191 18.0015 26.7191 18.4231V21.8159C26.7191 22.1561 26.4443 22.4334 26.0702 22.6879C25.2424 23.2528 23.9005 23.5972 22.3932 23.5972C20.8859 23.5972 19.5441 23.2528 18.7162 22.6879C18.3421 22.4334 18.0673 22.1561 18.0673 21.8159V18.4231C18.0673 18.0015 17.7255 17.6597 17.3039 17.6597C16.8824 17.6597 16.5405 18.0015 16.5405 18.4231Z" fill="#252525"/>
<path fill-rule="evenodd" clip-rule="evenodd" d="M16.5405 21.8161V25.209C16.5405 25.9936 16.9935 26.7544 17.8553 27.3422C18.8799 28.0412 20.528 28.517 22.3932 28.517C24.2584 28.517 25.9065 28.0412 26.9312 27.3422C27.7929 26.7544 28.2459 25.9936 28.2459 25.209V21.8161C28.2459 21.3946 27.9041 21.0527 27.4825 21.0527C27.0609 21.0527 26.7191 21.3946 26.7191 21.8161V25.209C26.7191 25.5491 26.4443 25.8265 26.0702 26.0809C25.2424 26.6459 23.9005 26.9902 22.3932 26.9902C20.8859 26.9902 19.5441 26.6459 18.7162 26.0809C18.3421 25.8265 18.0673 25.5491 18.0673 25.209V21.8161C18.0673 21.3946 17.7255 21.0527 17.3039 21.0527C16.8824 21.0527 16.5405 21.3946 16.5405 21.8161Z" fill="#252525"/>
<path fill-rule="evenodd" clip-rule="evenodd" d="M22.3932 15.1152C20.5288 15.1152 18.8808 15.5911 17.8561 16.29C16.9943 16.8778 16.5405 17.6387 16.5405 18.4233C16.5405 19.2079 16.9943 19.9687 17.8561 20.5565C18.8808 21.2555 20.5288 21.7313 22.3932 21.7313C24.2576 21.7313 25.9057 21.2555 26.9303 20.5565C27.7921 19.9687 28.2459 19.2079 28.2459 18.4233C28.2459 17.6387 27.7921 16.8778 26.9303 16.29C25.9057 15.5911 24.2576 15.1152 22.3932 15.1152ZM22.3932 16.642C23.8996 16.642 25.2415 16.9872 26.0702 17.5513C26.4443 17.8066 26.7191 18.0831 26.7191 18.4233C26.7191 18.7634 26.4443 19.0399 26.0702 19.2952C25.2415 19.8593 23.8996 20.2045 22.3932 20.2045C20.8868 20.2045 19.5449 19.8593 18.7162 19.2952C18.3421 19.0399 18.0673 18.7634 18.0673 18.4233C18.0673 18.0831 18.3421 17.8066 18.7162 17.5513C19.5449 16.9872 20.8868 16.642 22.3932 16.642Z" fill="#252525"/>
<path fill-rule="evenodd" clip-rule="evenodd" d="M9.75464 13.7412V17.134C9.75464 17.7753 10.0507 18.3928 10.6258 18.9178C11.3052 19.5387 12.4146 20.0426 13.7641 20.2835C14.1789 20.3572 14.575 20.0807 14.6497 19.666C14.7235 19.2503 14.4461 18.8542 14.0313 18.7804C13.1712 18.6269 12.4291 18.3538 11.9057 17.989C11.5452 17.7388 11.2814 17.4665 11.2814 17.134V13.7412C11.2814 13.3196 10.9396 12.9778 10.518 12.9778C10.0965 12.9778 9.75464 13.3196 9.75464 13.7412Z" fill="#252525"/>
<path fill-rule="evenodd" clip-rule="evenodd" d="M9.75464 17.134V20.5269C9.75464 21.2436 10.1287 21.9366 10.8488 22.499C11.6996 23.164 13.0796 23.6619 14.6989 23.7976C15.1187 23.8323 15.4877 23.5202 15.5225 23.1003C15.5581 22.6805 15.246 22.3106 14.8261 22.2759C13.5538 22.1698 12.457 21.8178 11.7878 21.2953C11.4943 21.0663 11.2814 20.8195 11.2814 20.5269V17.134C11.2814 16.7124 10.9396 16.3706 10.518 16.3706C10.0965 16.3706 9.75464 16.7124 9.75464 17.134ZM14.8159 15.4893C13.5479 15.3816 12.4537 15.0296 11.787 14.5079C11.4935 14.2789 11.2814 14.0329 11.2814 13.7411C11.2814 13.401 11.5562 13.1245 11.9303 12.8692C12.759 12.3051 14.1009 11.9599 15.6073 11.9599C17.1137 11.9599 18.4556 12.3051 19.2843 12.8692C19.6584 13.1245 19.9332 13.401 19.9332 13.7411C19.9332 14.1627 20.275 14.5045 20.6966 14.5045C21.1182 14.5045 21.46 14.1627 21.46 13.7411C21.46 12.9565 21.0062 12.1957 20.1444 11.6079C19.1198 10.909 17.4717 10.4331 15.6073 10.4331C13.7429 10.4331 12.0949 10.909 11.0702 11.6079C10.2084 12.1957 9.75464 12.9565 9.75464 13.7411C9.75464 14.457 10.1279 15.1492 10.8463 15.7107C11.6954 16.3748 13.0729 16.8736 14.687 17.0102C15.1069 17.0458 15.4767 16.7345 15.5123 16.3146C15.5479 15.8948 15.2358 15.5249 14.8159 15.4893Z" fill="#252525"/>
</svg>
