<svg width="38" height="39" viewBox="0 0 38 39" fill="none" xmlns="http://www.w3.org/2000/svg">
<circle cx="19" cy="19.5" r="18.4" fill="#FFD500" stroke="#252525" stroke-width="1.2"/>
<path d="M16.625 23.232C16.355 23.232 16.0962 23.1248 15.9053 22.9339C15.7144 22.743 15.6071 22.4841 15.6071 22.2141V18.1427C15.6071 17.8728 15.7144 17.6139 15.9053 17.423C16.0962 17.2321 16.355 17.1249 16.625 17.1249C16.895 17.1249 17.1538 17.2321 17.3447 17.423C17.5356 17.6139 17.6429 17.8728 17.6429 18.1427V22.2141C17.6429 22.4841 17.5356 22.743 17.3447 22.9339C17.1538 23.1248 16.895 23.232 16.625 23.232ZM13.5714 23.232C13.3015 23.232 13.0426 23.1248 12.8517 22.9339C12.6608 22.743 12.5536 22.4841 12.5536 22.2141V18.1427C12.5536 17.8728 12.6608 17.6139 12.8517 17.423C13.0426 17.2321 13.3015 17.1249 13.5714 17.1249C13.8414 17.1249 14.1003 17.2321 14.2912 17.423C14.482 17.6139 14.5893 17.8728 14.5893 18.1427V22.2141C14.5893 22.4841 14.482 22.743 14.2912 22.9339C14.1003 23.1248 13.8414 23.232 13.5714 23.232ZM26.8036 17.1249C26.8036 15.4413 25.4335 14.0713 23.75 14.0713H12.5536C10.87 14.0713 9.5 15.4413 9.5 17.1249V23.232C9.5 24.9155 10.87 26.2856 12.5536 26.2856H23.75C25.4335 26.2856 26.8036 24.9155 26.8036 23.232C27.3435 23.232 27.8613 23.0175 28.243 22.6358C28.6248 22.254 28.8393 21.7362 28.8393 21.1963V19.1606C28.8393 18.6207 28.6248 18.1029 28.243 17.7211C27.8613 17.3393 27.3435 17.1249 26.8036 17.1249ZM24.7679 23.232C24.7679 23.7939 24.3108 24.2499 23.75 24.2499H12.5536C11.9927 24.2499 11.5357 23.7939 11.5357 23.232V17.1249C11.5357 16.563 11.9927 16.107 12.5536 16.107H23.75C24.3108 16.107 24.7679 16.563 24.7679 17.1249V23.232Z" fill="#252525"/>
</svg>
