<svg id="q" viewBox="0 0 96 93" fill="none" xmlns="http://www.w3.org/2000/svg">
<path d="M47.9998 1C36.8396 1.00046 26.0437 4.94252 17.5438 12.1208C9.04397 19.2992 3.39477 29.2453 1.60705 40.1796C-0.180666 51.1139 2.00976 62.3228 7.78641 71.8008C13.5631 81.2787 22.5489 88.4072 33.1362 91.9107C35.4862 92.319 36.3675 90.9195 36.3675 89.6948C36.3675 88.5869 36.3087 84.9131 36.3087 81.0061C24.5 83.1637 21.445 78.1489 20.505 75.5248C19.462 72.9726 17.8085 70.711 15.6875 68.9352C14.0425 68.0605 11.6926 65.9029 15.6287 65.8447C17.1317 66.0066 18.5732 66.5257 19.8312 67.358C21.0891 68.1904 22.1263 69.3115 22.855 70.6263C23.4978 71.7725 24.3622 72.7815 25.3985 73.5956C26.4349 74.4096 27.623 75.0127 28.8946 75.3702C30.1662 75.7278 31.4964 75.8327 32.8089 75.6791C34.1215 75.5255 35.3906 75.1163 36.5435 74.475C36.747 72.1033 37.8119 69.8859 39.5399 68.2356C29.0824 67.0693 18.155 63.0455 18.155 45.2018C18.089 40.5654 19.8126 36.0796 22.9725 32.6644C21.5356 28.6348 21.7037 24.2126 23.4425 20.3019C23.4425 20.3019 27.3785 19.0773 36.3674 25.0836C44.0579 22.9842 52.1767 22.9842 59.8672 25.0836C68.8558 19.019 72.7921 20.3019 72.7921 20.3019C74.5311 24.2125 74.6992 28.6348 73.2621 32.6644C76.4315 36.0737 78.1566 40.5634 78.0796 45.2018C78.0796 63.1039 67.0933 67.0693 56.636 68.2356C57.7576 69.364 58.6215 70.7188 59.1689 72.208C59.7163 73.6971 59.9344 75.2858 59.8085 76.866C59.8085 83.1056 59.7497 88.1204 59.7497 89.695C59.7497 90.9196 60.6309 92.3774 62.9809 91.9109C73.5496 88.3788 82.5096 81.2336 88.2617 71.7508C94.0137 62.268 96.1833 51.0648 94.3832 40.1411C92.5831 29.2174 86.9304 19.2842 78.4343 12.1146C69.9381 4.94503 59.1515 1.00576 47.9998 1Z" fill="#A839FF" stroke="#252525" stroke-width="2"/>
</svg>
