<svg id="q" viewBox="0 0 101 86" fill="none" xmlns="http://www.w3.org/2000/svg">
<path d="M3.72113 45.1189C3.39362 46.0637 3.39366 46.0637 3.39375 46.0637L3.39407 46.0639L3.39532 46.0643L3.40018 46.066L3.41924 46.0726L3.49395 46.0984L3.78331 46.1982C4.03599 46.2851 4.40501 46.4118 4.87098 46.5708C5.80287 46.8888 7.12273 47.3363 8.67536 47.8544C11.7674 48.8862 15.7882 50.2 19.5075 51.3295C21.4416 52.1071 23.5108 52.4844 25.5925 52.4386C27.6895 52.3925 29.7554 51.9181 31.6658 51.0442L31.7377 51.0113L31.8035 50.9675L31.2498 50.1348C31.8035 50.9675 31.8036 50.9675 31.8037 50.9674L31.8043 50.967L31.8068 50.9654L31.8163 50.959L31.8542 50.9338L32.0034 50.8345C32.135 50.7468 32.3303 50.6166 32.5851 50.4467C33.0946 50.1068 33.842 49.6076 34.7938 48.9701C36.6974 47.6953 39.4189 45.8675 42.691 43.6554C49.2339 39.2319 57.98 33.2706 66.7907 27.1202C69.8703 25.0019 71.9193 23.9054 73.2079 23.4573C73.7692 23.2621 74.1121 23.2169 74.2957 23.2204C74.2919 23.2868 74.2795 23.3837 74.2467 23.5173C74.1723 23.8202 74.0195 24.2015 73.7921 24.6316C73.3374 25.4914 72.6538 26.4156 71.9772 27.1L71.9769 27.1003C65.5614 33.596 54.9475 43.8353 46.0249 52.0919C45.2381 52.5822 44.5817 53.2583 44.1117 54.0613C43.6233 54.896 43.3519 55.8412 43.322 56.8091C43.2922 57.777 43.5047 58.7373 43.9406 59.6009C44.3681 60.4479 44.9971 61.1754 45.772 61.7177C49.0568 64.5197 55.0926 68.7339 60.3949 72.3203C63.0654 74.1266 65.5643 75.7833 67.4559 77.0343C67.6909 77.1897 67.9156 77.3383 68.1295 77.4797C69.6385 78.4774 70.6071 79.1178 70.8179 79.2746C74.5129 82.2565 79.0814 83.9189 83.811 83.9999L83.9371 84.002L84.0597 83.9728C86.6239 83.3625 87.985 81.3131 88.6873 79.6215C89.0442 78.7617 89.2542 77.9435 89.3753 77.3434C89.4362 77.0418 89.4754 76.7914 89.4997 76.6135C89.5118 76.5244 89.5203 76.4532 89.5259 76.4025C89.528 76.3832 89.5297 76.3669 89.531 76.3537L89.5357 76.3237L89.5633 76.1476L89.6707 75.4625L90.0765 72.8744C90.4252 70.6515 90.9211 67.4916 91.5102 63.7438C92.6884 56.248 94.2392 46.4006 95.7293 36.9936L95.7306 36.9847C96.2726 33.3518 96.8162 29.7838 97.3249 26.445C98.6686 17.6249 99.7687 10.4043 99.9529 7.81228C100.151 5.52907 99.7183 3.84986 98.7556 2.70643C97.7923 1.56221 96.4516 1.13712 95.229 1.03002C94.0089 0.923157 92.7986 1.12042 91.9219 1.32893C91.4775 1.43465 91.1046 1.54674 90.8406 1.63317C90.7084 1.67647 90.6028 1.71356 90.5285 1.74053C90.4914 1.75402 90.462 1.76501 90.4409 1.77299L90.4156 1.78266L90.4078 1.7857L90.4051 1.78675L90.404 1.78716C90.4036 1.78733 90.4032 1.78749 90.7696 2.71794M3.72113 45.1189C3.18478 45.9629 3.18423 45.9625 3.18367 45.9621L3.18242 45.9614L3.17952 45.9595L3.17206 45.9547L3.15083 45.9407C3.13395 45.9295 3.11168 45.9144 3.08474 45.8956C3.03092 45.8581 2.95796 45.8052 2.87163 45.738C2.70004 45.6043 2.46981 45.409 2.23024 45.1582C1.76641 44.6725 1.18623 43.8935 1.03628 42.8799C0.877135 41.8042 1.22957 40.6597 2.27527 39.5586C3.28885 38.4913 4.97138 37.4384 7.56541 36.4119L7.58869 36.4022L7.68106 36.3639L8.04296 36.2136L9.43004 35.6376C10.6322 35.1383 12.3663 34.418 14.4936 33.5341C18.7483 31.7662 24.5762 29.3437 30.869 26.7251C43.4517 21.4891 57.8903 15.4704 65.3297 12.333C68.1941 11.0733 74.4591 8.43833 79.9999 6.12158C82.7748 4.96136 85.3713 3.87957 87.2741 3.08784C88.2255 2.69198 89.0035 2.36861 89.5437 2.14421L90.1676 1.88512L90.3306 1.81743L90.3723 1.80014L90.3828 1.79577L90.3855 1.79467L90.3861 1.79439C90.3863 1.79433 90.3864 1.79429 90.7696 2.71794M3.72113 45.1189L3.39362 46.0637L3.28331 46.0255L3.18478 45.9629L3.72113 45.1189ZM90.7696 2.71794L90.3864 1.79429L90.3947 1.79081L90.4032 1.78749L90.7696 2.71794Z" fill="#5BC4FF" stroke="#252525" stroke-width="2"/>
</svg>
