<svg id="q" viewBox="0 0 114 91" fill="none" xmlns="http://www.w3.org/2000/svg">
<path d="M114 10.9024C109.716 12.725 105.185 13.9299 100.548 14.4795C105.44 11.614 109.105 7.10609 110.865 1.79192C106.268 4.47512 101.236 6.36559 95.988 7.38118C92.4799 3.65075 87.8083 1.16758 82.7059 0.321113C77.6035 -0.525352 72.3589 0.312768 67.7946 2.70403C63.2303 5.09528 59.6045 8.90442 57.4859 13.534C55.3672 18.1637 54.8756 23.3519 56.088 28.285C46.7937 27.824 37.7023 25.451 29.4043 21.32C21.1063 17.189 13.7874 11.3926 7.923 4.30708C5.86608 7.82926 4.78526 11.8181 4.788 15.8769C4.78071 19.6462 5.72404 23.3587 7.534 26.684C9.34397 30.0094 11.9644 32.8442 15.162 34.9362C11.4455 34.8371 7.80835 33.8592 4.56 32.0857V32.3652C4.58785 37.6464 6.47517 42.7561 9.90269 46.83C13.3302 50.9038 18.0876 53.6918 23.37 54.7222C21.3366 55.329 19.2254 55.649 17.1 55.6724C15.6288 55.6555 14.1612 55.5247 12.711 55.2811C14.2153 59.8242 17.1263 63.7944 21.0391 66.6394C24.9519 69.4844 29.6718 71.0627 34.542 71.1546C26.3181 77.4999 16.1645 80.963 5.7 80.9917C3.79469 80.9979 1.89089 80.8859 0 80.6564C10.6842 87.4208 23.1352 91.0117 35.853 90.9965C44.6292 91.0859 53.3357 89.4596 61.4638 86.2126C69.5918 82.9655 76.9786 78.1629 83.1927 72.0852C89.4067 66.0075 94.3234 58.7766 97.6556 50.8148C100.988 42.853 102.669 34.3199 102.6 25.7139C102.6 24.7638 102.6 23.7577 102.6 22.7516C107.073 19.4809 110.93 15.4712 114 10.9024Z" fill="#3EDCFF"/>
<path fill-rule="evenodd" clip-rule="evenodd" d="M31.9979 72.9851C24.2679 78.1632 15.1097 80.9659 5.7 80.9917C5.29227 80.993 4.8846 80.9889 4.47712 80.9794C2.98046 80.9445 1.48625 80.8367 0 80.6564C1.28879 81.4723 2.6033 82.2421 3.94088 82.965C13.6919 88.2347 24.6693 91.0099 35.853 90.9965C44.6292 91.0859 53.3357 89.4596 61.4638 86.2126C69.5918 82.9655 76.9786 78.1629 83.1927 72.0852C89.4067 66.0075 94.3234 58.7766 97.6556 50.8148C100.988 42.853 102.669 34.3199 102.6 25.7139V22.7516C106.067 20.2166 109.164 17.2377 111.811 13.8987C112.579 12.9296 113.31 11.9301 114 10.9024C112.882 11.3779 111.748 11.8113 110.599 12.2021C108.789 12.8177 106.944 13.3273 105.072 13.7283C103.579 14.0484 102.069 14.2992 100.548 14.4795C101.842 13.7214 103.051 12.8482 104.161 11.8755C106.446 9.87311 108.314 7.449 109.655 4.73835C110.125 3.78939 110.529 2.80531 110.865 1.79192C109.973 2.31249 109.065 2.80323 108.142 3.26353C104.308 5.17574 100.218 6.56263 95.988 7.38118C92.4799 3.65075 87.8083 1.16758 82.7059 0.321113C77.6035 -0.525352 72.3589 0.312768 67.7946 2.70403C63.2303 5.09528 59.6045 8.90442 57.4859 13.534C55.6553 17.5342 55.0393 21.9514 55.6878 26.2608C55.7898 26.9389 55.9232 27.6143 56.088 28.285C55.3919 28.2505 54.697 28.2052 54.0034 28.1493C45.4364 27.4587 37.0809 25.1416 29.4043 21.32C21.7472 17.5081 14.9237 12.2779 9.30742 5.92535C8.83742 5.39373 8.37587 4.85425 7.923 4.30708C7.5579 4.93226 7.22356 5.57214 6.92057 6.22449C5.51654 9.24746 4.78575 12.5385 4.788 15.8769C4.78071 19.6462 5.72404 23.3587 7.534 26.684C8.74977 28.9177 10.3312 30.93 12.2076 32.6446C13.1247 33.4826 14.1122 34.2494 15.162 34.9362C13.8591 34.9015 12.566 34.7587 11.296 34.5116C9.67588 34.1963 8.09332 33.7111 6.57598 33.0634C6.07243 32.8485 5.57606 32.6156 5.08789 32.3652C5.0861 32.3643 5.08431 32.3633 5.08252 32.3624C4.90728 32.2724 4.73309 32.1802 4.56 32.0857V32.3652C4.56357 33.0428 4.59777 33.7177 4.6619 34.3879C5.09756 38.9407 6.91497 43.2789 9.90269 46.83C12.4165 49.8178 15.6455 52.1139 19.2724 53.5323C20.5908 54.0479 21.9617 54.4475 23.37 54.7222C21.947 55.1469 20.4859 55.431 19.0084 55.5714C18.3747 55.6316 17.738 55.6654 17.1 55.6724C16.3772 55.6641 15.6552 55.6283 14.9358 55.5652C14.1909 55.4998 13.4487 55.405 12.711 55.2811C12.9529 56.0117 13.2312 56.7274 13.5441 57.426C15.1774 61.0719 17.7555 64.2519 21.0391 66.6394C24.1308 68.8874 27.7265 70.3446 31.5021 70.9025C32.5047 71.0506 33.52 71.1353 34.542 71.1546C33.713 71.7943 32.8644 72.4046 31.9979 72.9851ZM15.8631 57.6342C17.3567 60.5313 19.5254 63.0659 22.2153 65.0218C25.7943 67.6241 30.1162 69.0707 34.5797 69.155L40.2685 69.2624L35.7637 72.7381C27.8696 78.8289 18.275 82.3698 8.29616 82.9172C16.8713 86.9157 26.2823 89.008 35.8506 88.9965L35.862 88.9965L35.8734 88.9966C44.3894 89.0833 52.8368 87.5052 60.7218 84.3553C68.6068 81.2054 75.77 76.5474 81.7942 70.6554C87.8183 64.7635 92.5825 57.7558 95.8106 50.0426C99.0387 42.3296 100.667 34.0646 100.6 25.7299L100.6 25.7219V21.7365L101.419 21.1372C103.901 19.3223 106.185 17.2705 108.238 15.0154C105.797 15.6815 103.305 16.1667 100.783 16.4656L94.5 17L99.5371 12.7538C102.347 11.1078 104.711 8.87212 106.479 6.23754C103.239 7.62817 99.8488 8.67118 96.368 9.34475L95.286 9.55412L94.531 8.75131C91.3265 5.34366 87.0532 3.06965 82.3786 2.29415C77.7037 1.5186 72.9 2.28711 68.7227 4.47562C64.5461 6.66381 61.2362 10.1451 59.3045 14.3663C57.3731 18.5868 56.9257 23.3136 58.0302 27.8077L58.6712 30.4156L55.9889 30.2826C46.4202 29.808 37.059 27.3648 28.513 23.1104C20.8827 19.3118 14.0538 14.1447 8.37612 7.8834C7.32846 10.415 6.78614 13.1283 6.788 15.8755L6.788 15.8807C6.78135 19.3131 7.64026 22.6958 9.29065 25.7279C10.9412 28.7603 13.3331 31.3497 16.257 33.2626L22.1585 37.1236L15.1087 36.9355C12.2536 36.8593 9.44069 36.3051 6.78923 35.3042C7.35417 39.0459 8.94921 42.5901 11.4331 45.5424C14.563 49.2625 18.9136 51.8152 23.7529 52.7592L30.5 54.5L23.9419 56.6387C21.7297 57.2989 19.4334 57.6468 17.122 57.6723L17.0996 57.6725L17.0771 57.6723C16.6721 57.6676 16.2673 57.6549 15.8631 57.6342Z" fill="#252525"/>
</svg>
