<svg id="q" viewBox="0 0 110 77" fill="none" xmlns="http://www.w3.org/2000/svg">
<path d="M108.975 27.1026L108.975 27.1199V27.1372C108.975 30.1586 108.974 46.9244 108.777 49.6648L108.774 49.7062L108.775 49.7478C108.84 55.3832 107.979 60.9913 106.226 66.3498L106.225 66.3543C105.67 68.0776 104.711 69.6448 103.427 70.926C101.491 72.8102 99.0271 74.0659 96.3602 74.5276C78.2801 75.9153 62.9826 76.1634 45.5296 75.915L45.5118 75.9147L45.4941 75.9151C34.7002 76.1449 23.9038 75.5996 13.1886 74.2835C10.5902 73.7962 8.19709 72.5482 6.31511 70.6996C4.7101 68.8979 3.57666 66.7294 3.01526 64.3868L3.01284 64.3767L3.01022 64.3667C2.17621 61.1791 1.68432 57.9123 1.54281 54.6213L1.54229 54.6091L1.54147 54.5969C0.819691 43.9046 0.819513 33.176 1.54093 22.4837C1.55051 22.369 1.56009 22.2542 1.56969 22.1391C1.81178 19.236 2.06544 16.194 2.76369 13.3711C3.48825 10.4419 4.66863 7.8531 6.71681 5.97144L6.71687 5.97151L6.72656 5.96236C8.59597 4.19843 10.9381 3.011 13.4702 2.54346C27.2747 1.31559 41.1349 0.81974 54.9922 1.05801L55.009 1.0583L55.0257 1.05802C68.9341 0.830092 82.8448 1.34254 96.6983 2.59317C99.776 3.15798 102.562 4.76307 104.588 7.13543C107.706 13.3196 109.215 20.1854 108.975 27.1026ZM42.7165 52.7229V54.398L44.1909 53.6032C49.2036 50.9014 54.3593 48.2924 59.2974 45.7935L59.727 45.5761C64.7889 43.0144 69.6151 40.5669 73.7811 38.2669L75.4095 37.3679L73.7615 36.5054L44.1802 21.0246L42.7165 20.2586V21.9106V52.7229Z" fill="#FF1A1A" stroke="#252525" stroke-width="2"/>
</svg>
