<svg width="261" height="265" viewBox="0 0 261 265" fill="none" xmlns="http://www.w3.org/2000/svg">
<path d="M41.3692 77.1904L54.807 59.8681L218.257 187.223L204.819 204.545C181.97 233.999 126.859 229.362 81.7248 194.195C36.5907 159.028 18.5235 106.64 41.3692 77.1904Z" fill="#E59B00"/>
<path d="M213.802 183.415L218.264 186.884L204.74 204.28C194.971 216.846 179.332 223.21 161.106 223.692L201.106 173.544L213.802 183.415Z" fill="#DBA97F"/>
<path d="M87.7316 133.337L57.6411 171.111C48.2328 159.742 41.1804 147.676 36.7728 135.776L57.6602 109.557L87.7316 133.337Z" fill="#FCE898"/>
<path d="M52.1695 105.122L34.2972 127.521C33.67 125.173 33.1489 122.847 32.7424 120.541L47.7987 101.673L52.1695 105.122Z" fill="#FCE898"/>
<path d="M218.662 187.06C241.54 157.577 223.452 105.139 178.261 69.9365C133.069 34.7341 77.8885 30.0978 55.0104 59.5811C32.1323 89.0644 50.2206 141.503 95.4117 176.705C140.603 211.907 195.784 216.544 218.662 187.06Z" fill="#FEE475"/>
<path d="M215.971 184.968C238.098 156.453 220.603 105.737 176.896 71.6898C133.188 37.643 79.8191 33.1584 57.6925 61.6732C35.566 90.1879 53.0609 140.904 96.7684 174.951C140.476 208.998 193.845 213.482 215.971 184.968Z" fill="#FED425"/>
<path d="M225.395 151.307L73.0519 151.994C63.7973 140.73 56.9195 128.768 52.7496 117.001L214.952 116.268C221.143 128.119 224.73 140.106 225.395 151.307Z" fill="#FCE898"/>
<path d="M118.358 189.232L212.124 188.813C192.378 208.788 154.459 208.374 118.358 189.232Z" fill="#FCE898"/>
<path d="M152.226 55.8069L63.2544 56.2065C68.2094 51.7039 74.1691 48.3697 80.8636 46.1678L125.827 45.9688C134.508 48.1139 143.403 51.4019 152.226 55.8069Z" fill="#FCE898"/>
<path d="M210.331 107.941L50.3727 108.66C49.9097 106.793 49.5463 104.936 49.2273 103.091L206.603 102.389C207.906 104.228 209.154 106.078 210.331 107.941Z" fill="#FCE898"/>
<path d="M58.1087 62.0056C35.4334 91.2062 52.9307 142.882 97.1279 178.126C96.623 177.741 96.1118 177.373 95.6106 176.983C50.3141 141.724 32.1823 89.1983 55.1142 59.6671C78.0462 30.1358 133.355 34.7852 178.652 70.0446C179.153 70.4348 179.635 70.8402 180.132 71.2352C135.118 37.0435 80.7839 32.8049 58.1087 62.0056Z" fill="#FCE898"/>
<path d="M194.404 170.085C210.142 149.803 197.698 113.729 166.609 89.5115C135.519 65.2939 97.5582 62.1037 81.8199 82.3858C66.0817 102.668 78.5261 138.742 109.615 162.96C140.705 187.177 178.666 190.367 194.404 170.085Z" fill="#FCE898"/>
<path d="M193.127 167.17C208.866 146.888 196.421 110.814 165.332 86.5965C134.243 62.3789 96.2814 59.1886 80.5431 79.4708C64.8048 99.7529 77.2492 135.827 108.338 160.045C139.428 184.262 177.389 187.452 193.127 167.17Z" fill="#FEB724"/>
<path d="M125.068 127.084L120.486 133.219C119.851 134.07 119.434 135.063 119.273 136.109C119.112 137.155 119.211 138.222 119.562 139.213C119.913 140.205 120.504 141.09 121.283 141.791C122.062 142.491 123.005 142.984 124.026 143.226L165.439 153.005C166.433 153.236 167.48 153.116 168.404 152.664C169.329 152.213 170.074 151.457 170.515 150.525C170.956 149.592 171.066 148.54 170.825 147.545C170.585 146.55 170.009 145.673 169.196 145.062L145.785 127.574L149.355 122.478C150.308 121.111 150.698 119.433 150.444 117.797C150.191 116.162 149.312 114.698 147.994 113.715L127.957 98.7472C126.611 97.7419 124.915 97.3196 123.243 97.5733C121.571 97.827 120.059 98.736 119.04 100.1L112.104 109.386C111.085 110.75 110.642 112.458 110.873 114.133C111.104 115.809 111.99 117.315 113.336 118.32L125.068 127.084Z" fill="#E88C03"/>
<path d="M163.341 92.5021C132.295 68.3116 94.3802 65.1246 78.6639 85.3843C77.2208 87.2445 76.0174 89.2385 75.0419 91.3421C76.12 86.9912 77.9885 82.969 80.7321 79.4323C96.4484 59.1726 134.363 62.3597 165.409 86.5501C193.606 108.521 206.441 140.26 196.785 161.078C201.895 140.503 188.969 112.471 163.341 92.5021Z" fill="#FB9D12"/>
</svg>
