<svg width="243" height="259" viewBox="0 0 243 259" fill="none" xmlns="http://www.w3.org/2000/svg">
<path d="M167.734 48.437L152.354 40.8559L71.5318 209.146L86.9124 216.727C127.428 236.697 178.358 215.209 200.676 168.738C222.994 122.267 208.244 68.4046 167.734 48.437Z" fill="#E59B00"/>
<path d="M73.6804 205.608L71.529 210.097L86.6289 217.55C103.524 225.889 122.264 226.848 139.915 221.718L79.8073 192.837L73.6854 205.611L73.6804 205.608Z" fill="#DBA97F"/>
<path d="M157.868 113.789L209.735 138.847C211.848 125.613 211.278 112.473 208.263 100.295L172.257 82.9019L157.868 113.789Z" fill="#FCE898"/>
<path d="M175.771 76.8063L206.201 91.4401C205.384 89.1483 204.475 86.9063 203.467 84.7165L177.831 72.389L175.771 76.8063Z" fill="#FCE898"/>
<path d="M72.6643 209.695C32.533 189.896 18.0787 136.24 40.3797 89.8513C62.6807 43.4628 113.292 21.9078 153.423 41.707C193.555 61.5062 208.009 115.162 185.708 161.551C163.407 207.939 112.796 229.494 72.6643 209.695Z" fill="#FEE475"/>
<path d="M73.9898 206.937C35.1747 187.787 21.1938 135.892 42.7627 91.0263C64.3315 46.1607 113.282 25.3139 152.098 44.4638C190.913 63.6136 204.894 115.508 183.325 160.374C161.756 205.24 112.805 226.087 73.9898 206.937Z" fill="#FED425"/>
<path d="M44.2402 179.082L191.97 131.971C194.059 118.776 193.424 105.687 190.298 93.6285L33.01 143.782C34.2349 156.558 38.0638 168.637 44.2402 179.082Z" fill="#FCE898"/>
<path d="M169.341 180.499L78.4959 209.472C109.734 221.538 146.115 209.287 169.341 180.499Z" fill="#FCE898"/>
<path d="M58.7954 68.4641L144.995 40.9727C137.471 38.4126 129.681 37.2314 121.876 37.3176L78.312 51.2115C71.2367 55.8918 64.6398 61.6781 58.7954 68.4641Z" fill="#FCE898"/>
<path d="M33.1043 134.57L188.101 85.1367C187.411 83.2857 186.637 81.4783 185.822 79.6927L33.3216 128.328C33.1851 130.418 33.1078 132.5 33.1043 134.57Z" fill="#FCE898"/>
<path d="M152.385 44.5737C191.837 64.0495 206.304 116.453 185.185 162.24C185.44 161.734 185.708 161.241 185.953 160.73C208.119 114.588 193.748 61.2145 153.857 41.522C113.966 21.8296 63.6557 43.2724 41.4898 89.4148C41.2445 89.9254 41.0265 90.4435 40.7912 90.9591C63.3164 45.8665 112.938 25.1003 152.385 44.5737Z" fill="#FCE898"/>
<path d="M85.7326 186.566C58.125 172.945 48.1818 136.033 63.5238 104.12C78.8658 72.2066 113.683 57.3776 141.291 70.9981C168.898 84.6186 178.842 121.531 163.5 153.444C148.158 185.357 113.34 200.186 85.7326 186.566Z" fill="#FCE898"/>
<path d="M85.2648 183.484C57.6573 169.864 47.7141 132.952 63.0561 101.039C78.3981 69.1256 113.216 54.2965 140.823 67.917C168.431 81.5375 178.374 118.45 163.032 150.363C147.69 182.276 112.872 197.105 85.2648 183.484Z" fill="#FEB724"/>
<path d="M107.78 115.742L100.489 114.036C99.478 113.8 98.425 113.815 97.4244 114.08C96.4238 114.345 95.5067 114.851 94.7554 115.554C94.0041 116.256 93.4419 117.133 93.1192 118.105C92.7965 119.077 92.7234 120.115 92.9064 121.125L100.346 162.065C100.528 163.046 101.045 163.937 101.811 164.589C102.578 165.241 103.547 165.613 104.555 165.644C105.563 165.674 106.549 165.36 107.346 164.756C108.144 164.151 108.705 163.292 108.934 162.323L115.447 134.501L121.411 135.706C123.009 136.025 124.666 135.718 126.032 134.851C127.398 133.984 128.366 132.623 128.732 131.058L134.306 107.244C134.68 105.644 134.395 103.96 133.513 102.56C132.632 101.161 131.226 100.162 129.604 99.782L118.568 97.1989C116.947 96.8194 115.243 97.0908 113.832 97.9535C112.421 98.8162 111.418 100.199 111.044 101.799L107.78 115.742Z" fill="#E88C03"/>
<path d="M64.2954 107.542C79.6228 75.6513 114.41 60.8296 141.994 74.4414C156.911 81.8026 166.651 95.9726 170.043 112.474C168.102 93.225 157.853 76.2167 141.001 67.9007C113.418 54.2889 78.6302 69.1107 63.3028 101.001C56.2626 115.649 54.5667 131.344 57.4444 145.355C56.2079 133.103 58.3331 119.947 64.2954 107.542Z" fill="#FB9D12"/>
</svg>
