<svg width="261" height="265" viewBox="0 0 261 265" fill="none" xmlns="http://www.w3.org/2000/svg">
<path d="M218.717 77.1904L205.279 59.8681L41.8294 187.223L55.2672 204.545C78.1166 233.999 133.227 229.362 178.361 194.195C223.496 159.028 241.563 106.64 218.717 77.1904Z" fill="#E59B00"/>
<path d="M46.2845 183.415L41.8228 186.884L55.3463 204.28C65.1157 216.846 80.7548 223.21 98.9805 223.692L58.9804 173.544L46.2845 183.415Z" fill="#DBA97F"/>
<path d="M172.355 133.337L202.445 171.111C211.853 159.742 218.906 147.676 223.313 135.776L202.426 109.557L172.355 133.337Z" fill="#FCE898"/>
<path d="M207.917 105.122L225.789 127.521C226.416 125.173 226.938 122.847 227.344 120.541L212.288 101.673L207.917 105.122Z" fill="#FCE898"/>
<path d="M41.4246 187.06C18.5465 157.577 36.6348 105.139 81.8259 69.9365C127.017 34.7341 182.198 30.0978 205.076 59.5811C227.954 89.0644 209.866 141.503 164.675 176.705C119.484 211.907 64.3027 216.544 41.4246 187.06Z" fill="#FEE475"/>
<path d="M44.1147 184.968C21.9882 156.453 39.483 105.737 83.1905 71.6898C126.898 37.643 180.267 33.1584 202.394 61.6732C224.52 90.1879 207.025 140.904 163.318 174.951C119.61 208.998 66.2412 213.482 44.1147 184.968Z" fill="#FED425"/>
<path d="M34.6916 151.307L187.035 151.994C196.289 140.73 203.167 128.768 207.337 117.001L45.1348 116.268C38.9432 128.119 35.3563 140.106 34.6916 151.307Z" fill="#FCE898"/>
<path d="M141.728 189.232L47.9619 188.813C67.7083 208.788 105.627 208.374 141.728 189.232Z" fill="#FCE898"/>
<path d="M107.86 55.8069L196.832 56.2065C191.877 51.7039 185.917 48.3697 179.223 46.1678L134.259 45.9688C125.578 48.1139 116.683 51.4019 107.86 55.8069Z" fill="#FCE898"/>
<path d="M49.7552 107.941L209.713 108.66C210.176 106.793 210.54 104.936 210.859 103.091L53.4828 102.389C52.1804 104.228 50.9323 106.078 49.7552 107.941Z" fill="#FCE898"/>
<path d="M201.977 62.0056C224.653 91.2062 207.156 142.882 162.958 178.126C163.463 177.741 163.974 177.373 164.476 176.983C209.772 141.724 227.904 89.1983 204.972 59.6671C182.04 30.1358 126.731 34.7852 81.4344 70.0446C80.9332 70.4348 80.4513 70.8402 79.9537 71.2352C124.969 37.0435 179.302 32.8049 201.977 62.0056Z" fill="#FCE898"/>
<path d="M65.6821 170.085C49.9438 149.803 62.3882 113.729 93.4775 89.5115C124.567 65.2939 162.528 62.1037 178.266 82.3858C194.005 102.668 181.56 138.742 150.471 162.96C119.382 187.177 81.4204 190.367 65.6821 170.085Z" fill="#FCE898"/>
<path d="M66.9592 167.17C51.2209 146.888 63.6653 110.814 94.7546 86.5965C125.844 62.3789 163.805 59.1886 179.543 79.4708C195.282 99.7529 182.837 135.827 151.748 160.045C120.659 184.262 82.6975 187.452 66.9592 167.17Z" fill="#FEB724"/>
<path d="M135.018 127.084L139.601 133.219C140.236 134.07 140.652 135.063 140.813 136.109C140.975 137.155 140.875 138.222 140.525 139.213C140.174 140.205 139.582 141.09 138.803 141.791C138.024 142.491 137.082 142.984 136.06 143.226L94.6474 153.005C93.6538 153.236 92.6067 153.116 91.6822 152.664C90.7577 152.213 90.0122 151.457 89.5713 150.525C89.1304 149.592 89.0209 148.54 89.2612 147.545C89.5015 146.55 90.077 145.673 90.8909 145.062L114.301 127.574L110.732 122.478C109.779 121.111 109.388 119.433 109.642 117.797C109.896 116.162 110.774 114.698 112.092 113.715L132.13 98.7472C133.475 97.7419 135.171 97.3196 136.843 97.5733C138.515 97.827 140.027 98.736 141.046 100.1L147.983 109.386C149.002 110.75 149.445 112.458 149.213 114.133C148.982 115.809 148.096 117.315 146.751 118.32L135.018 127.084Z" fill="#E88C03"/>
<path d="M96.7455 92.5021C127.792 68.3116 165.706 65.1246 181.422 85.3843C182.865 87.2445 184.069 89.2385 185.044 91.3421C183.966 86.9912 182.098 82.969 179.354 79.4323C163.638 59.1726 125.723 62.3597 94.6772 86.5501C66.4802 108.521 53.6454 140.26 63.3009 161.078C58.1916 140.503 71.117 112.471 96.7455 92.5021Z" fill="#FB9D12"/>
</svg>
