<svg width="376" height="364" viewBox="0 0 376 364" fill="none" xmlns="http://www.w3.org/2000/svg">
<path d="M94.2933 209.515C108.194 259.918 161.341 288.447 213 273.235C264.66 258.024 295.27 204.833 281.37 154.43C267.469 104.027 214.322 75.4983 162.663 90.7097C111.003 105.921 80.393 159.112 94.2933 209.515Z" fill="#FEE475"/>
<path d="M96.6855 208.811C110.23 257.925 162.018 285.724 212.357 270.901C262.695 256.079 292.522 204.248 278.978 155.134C265.433 106.02 213.645 78.221 163.306 93.0434C112.968 107.866 83.1406 159.696 96.6855 208.811Z" fill="#FED425"/>
<path d="M213.406 271.567L162.056 92.8535C149.932 96.3466 138.516 102.231 128.558 110.255L175.743 274.459C188.45 276.017 201.268 274.995 213.406 271.567Z" fill="#FCE898"/>
<path d="M125.472 252.228L98.1557 157.168C87.9583 191.413 98.6311 228.54 125.472 252.228Z" fill="#FCE898"/>
<path d="M281.299 180.257L267.502 132.243C263.329 125.505 258.266 119.244 252.335 113.673L278.293 204.008C280.366 196.155 281.337 188.173 281.299 180.257Z" fill="#FCE898"/>
<path d="M228.35 265.56L177.741 89.4377C175.105 89.7296 172.487 90.1253 169.886 90.6372L221.045 268.675C223.527 267.745 225.959 266.701 228.35 265.56Z" fill="#FCE898"/>
<path d="M125.752 150.264C107.33 182.875 119.111 223.873 152.066 241.836C185.02 259.798 226.669 247.923 245.091 215.312C263.513 182.701 251.732 141.703 218.778 123.74C185.823 105.778 144.174 117.653 125.752 150.264Z" fill="#FCE898"/>
<path d="M121.789 201.42C131.603 237.007 169.127 257.15 205.602 246.41C242.076 235.67 263.688 198.114 253.874 162.527C244.06 126.94 206.535 106.797 170.061 117.537C133.586 128.277 111.974 165.833 121.789 201.42Z" fill="#FEB724"/>
<path d="M201.205 175.193L207.54 180.896C208.417 181.687 209.088 182.681 209.491 183.788C209.894 184.895 210.017 186.081 209.849 187.239C209.682 188.398 209.228 189.493 208.529 190.427C207.831 191.36 206.909 192.103 205.846 192.589L162.758 212.254C161.723 212.723 160.554 212.819 159.447 212.526C158.339 212.234 157.361 211.571 156.678 210.649C155.994 209.727 155.646 208.602 155.692 207.463C155.739 206.325 156.177 205.242 156.932 204.398L178.694 180.225L173.691 175.436C172.354 174.151 171.563 172.403 171.485 170.563C171.408 168.722 172.049 166.934 173.274 165.574L191.901 144.884C193.152 143.494 194.911 142.665 196.792 142.579C198.672 142.493 200.52 143.157 201.929 144.425L211.517 153.057C212.926 154.325 213.78 156.094 213.891 157.973C214.003 159.852 213.362 161.689 212.111 163.079L201.205 175.193Z" fill="#E88C03"/>
<path d="M215.996 124.251C248.949 142.213 260.731 183.214 242.31 215.823C233.559 231.313 219.562 242.114 203.755 247.27C221.61 242.897 237.689 231.502 247.36 214.383C265.781 181.774 253.999 140.773 221.047 122.812C203.747 113.382 184.05 112.188 166.576 117.888C182.734 113.934 200.343 115.719 215.996 124.251Z" fill="#FB9D12"/>
<path d="M268.586 226.498C242.674 272.379 184.394 289.353 137.664 264.999C138.202 265.305 138.729 265.629 139.276 265.928C186.279 291.556 245.639 274.697 271.856 228.275C298.072 181.853 281.221 123.441 234.219 97.8137C233.671 97.515 233.117 97.2507 232.563 96.9617C278.322 123.048 294.497 180.617 268.586 226.498Z" fill="#FCE898"/>
</svg>
