<svg width="217" height="225" viewBox="0 0 217 225" fill="none" xmlns="http://www.w3.org/2000/svg">
<path d="M111.691 168.373C141.737 167.145 164.637 141.083 162.839 110.162C161.04 79.2403 135.225 55.1685 105.178 56.3961C75.131 57.6236 52.2311 83.6855 54.0296 114.607C55.828 145.529 81.6438 169.6 111.691 168.373Z" fill="#FEE475"/>
<path d="M111.607 166.941C140.886 165.744 163.2 140.349 161.447 110.218C159.695 80.0875 134.539 56.6313 105.261 57.8274C75.9824 59.0235 53.6682 84.419 55.4207 114.55C57.1731 144.68 82.3286 168.137 111.607 166.941Z" fill="#FED425"/>
<path d="M161.957 109.717L55.1518 115.226C55.5309 122.473 57.3414 129.635 60.5409 136.258L158.676 131.194C161.202 124.278 162.298 116.964 161.957 109.717Z" fill="#FCE898"/>
<path d="M139.678 156.464L82.8664 159.396C100.724 169.566 122.914 168.418 139.678 156.464Z" fill="#FCE898"/>
<path d="M119.638 59.7967L90.943 61.2773C86.6255 62.738 82.4586 64.76 78.5658 67.3573L132.553 64.5718C128.423 62.3884 124.078 60.8056 119.638 59.7967Z" fill="#FCE898"/>
<path d="M160.537 100.563L55.2794 105.994C55.0999 107.509 54.9808 109.027 54.929 110.551L161.331 105.061C161.133 103.55 160.865 102.052 160.537 100.563Z" fill="#FCE898"/>
<path d="M82.5905 143.036C98.4629 157.601 122.965 156.337 137.317 140.213C151.67 124.088 150.437 99.209 134.565 84.6439C118.693 70.0789 94.1906 71.343 79.8382 87.4676C65.4859 103.592 66.7182 128.471 82.5905 143.036Z" fill="#FCE898"/>
<path d="M110.734 151.915C131.949 151.049 148.117 132.648 146.848 110.815C145.578 88.9833 127.35 71.9874 106.136 72.8541C84.9212 73.7208 68.7528 92.1218 70.0226 113.954C71.2924 135.786 89.5196 152.782 110.734 151.915Z" fill="#FEB724"/>
<path d="M106.377 104.009L110.396 101.203C110.954 100.814 111.598 100.568 112.27 100.486C112.943 100.404 113.623 100.49 114.251 100.734C114.878 100.979 115.432 101.376 115.865 101.889C116.297 102.402 116.593 103.015 116.727 103.673L122.136 130.373C122.264 131.013 122.165 131.681 121.857 132.263C121.549 132.845 121.051 133.307 120.445 133.57C119.84 133.833 119.164 133.881 118.532 133.707C117.901 133.533 117.351 133.147 116.976 132.614L106.266 117.276L102.932 119.455C102.038 120.037 100.956 120.253 99.9146 120.057C98.8735 119.861 97.9548 119.269 97.3527 118.405L88.1854 105.277C87.5697 104.396 87.3342 103.302 87.5308 102.237C87.7274 101.172 88.34 100.224 89.2337 99.5994L95.3176 95.3511C96.2114 94.727 97.3131 94.4787 98.3805 94.6609C99.4479 94.8431 100.393 95.4408 101.009 96.3225L106.377 104.009Z" fill="#E88C03"/>
<path d="M79.7623 89.0928C94.1139 72.9691 118.617 71.7048 134.489 86.2691C142.028 93.1874 146.258 102.435 147.089 111.962C146.963 101.39 142.672 90.8983 134.34 83.2523C118.468 68.688 93.9645 69.9523 79.6129 86.076C72.0786 94.5406 68.8461 105.42 69.7652 115.952C69.6531 106.385 72.9451 96.7518 79.7623 89.0928Z" fill="#FB9D12"/>
<path d="M143.89 72.9379C166.222 93.4258 168.146 128.286 148.42 151.296C148.661 151.035 148.911 150.782 149.15 150.514C169.625 127.517 167.906 92.0667 145.311 71.3372C122.715 50.6076 87.7976 52.4459 67.3227 75.443C67.0841 75.711 66.8638 75.9872 66.6299 76.2596C87.1999 54.0193 121.558 52.4499 143.89 72.9379Z" fill="#FCE898"/>
</svg>
