<svg width="357" height="722" viewBox="0 0 357 722" fill="none" xmlns="http://www.w3.org/2000/svg">
<path d="M353.988 275.844C352.937 275.844 352.079 274.99 352.079 273.935V198.765C352.079 197.714 352.933 196.856 353.988 196.856H354.768C355.818 196.856 356.676 197.71 356.676 198.765V273.939C356.676 274.99 355.822 275.848 354.768 275.848H353.988V275.844Z" fill="#198E90"/>
<path d="M354.764 197.074C355.697 197.074 356.455 197.832 356.455 198.765V273.94C356.455 274.872 355.697 275.631 354.764 275.631H353.984C353.051 275.631 352.297 274.872 352.297 273.94V198.765C352.297 197.832 353.055 197.074 353.984 197.074H354.764ZM354.764 196.638H353.984C352.811 196.638 351.861 197.588 351.861 198.765V273.94C351.861 275.112 352.811 276.066 353.984 276.066H354.764C355.936 276.066 356.891 275.116 356.891 273.94V198.765C356.891 197.592 355.941 196.638 354.764 196.638Z" fill="#198E90"/>
<path d="M2.13107 158.225C1.08074 158.225 0.222168 157.371 0.222168 156.316L0.222168 134.63C0.222168 133.579 1.07638 132.721 2.13107 132.721H2.90683C3.95716 132.721 4.81137 133.575 4.81137 134.63L4.81137 156.316C4.81137 157.366 3.95716 158.225 2.90683 158.225H2.13107Z" fill="#198E91"/>
<path d="M2.90742 132.943C3.84007 132.943 4.59841 133.701 4.59841 134.634L4.59841 156.32C4.59841 157.253 3.84007 158.011 2.91177 158.011H2.13165C1.199 158.011 0.440666 157.253 0.440666 156.32L0.440666 134.634C0.440666 133.701 1.199 132.943 2.13165 132.943H2.90742ZM2.90742 132.507H2.1273C0.954939 132.507 0.000488281 133.457 0.000488281 134.634L0.000488281 156.32C0.000488281 157.493 0.950581 158.447 2.1273 158.447H2.90742C4.07978 158.447 5.02986 157.497 5.02986 156.32L5.02986 134.634C5.03422 133.457 4.08413 132.507 2.90742 132.507Z" fill="#198E91"/>
<path d="M2.13009 228.853C1.07976 228.853 0.221191 227.999 0.221191 226.944L0.221191 181.872C0.221191 180.821 1.0754 179.963 2.13009 179.963H2.90585C3.95618 179.963 4.81039 180.817 4.81039 181.872L4.81039 226.944C4.81039 227.995 3.95618 228.853 2.90585 228.853H2.13009Z" fill="#198E91"/>
<path d="M2.90693 180.186C3.83959 180.186 4.59792 180.944 4.59792 181.877L4.59792 226.95C4.59792 227.882 3.83958 228.641 2.91128 228.641H2.13117C1.19851 228.641 0.440177 227.882 0.440177 226.95L0.440177 181.873C0.440177 180.94 1.19851 180.182 2.13117 180.182H2.90693M2.90693 179.75H2.12681C0.954451 179.75 0 180.7 0 181.877L0 226.95C0 228.122 0.950093 229.077 2.12681 229.077H2.90693C4.07929 229.077 5.02938 228.126 5.02938 226.95L5.02938 181.873C5.03373 180.7 4.08365 179.75 2.90693 179.75Z" fill="#198E91"/>
<path d="M2.13107 291.778C1.08074 291.778 0.222168 290.923 0.222168 289.869L0.222168 244.796C0.222168 243.746 1.07638 242.887 2.13107 242.887H2.90683C3.95716 242.887 4.81137 243.741 4.81137 244.796L4.81137 289.869C4.81137 290.919 3.95716 291.778 2.90683 291.778H2.13107Z" fill="#198E91"/>
<path d="M2.9079 243.105C3.84056 243.105 4.59889 243.863 4.59889 244.796L4.59889 289.868C4.59889 290.801 3.84056 291.559 2.9079 291.559H2.12779C1.19513 291.559 0.436798 290.801 0.436798 289.868L0.436798 244.796C0.436798 243.863 1.19513 243.105 2.12779 243.105H2.9079ZM2.9079 242.669H2.12779C0.955427 242.669 0.000976563 243.619 0.000976563 244.796L0.000976563 289.868C0.000976563 291.041 0.951069 291.995 2.12779 291.995H2.9079C4.08026 291.995 5.03471 291.045 5.03471 289.868L5.03471 244.796C5.03471 243.623 4.08462 242.669 2.9079 242.669Z" fill="#198E91"/>
<path d="M9.07666 55.349L9.07666 665.682C9.07666 693.008 31.2295 715.161 58.5555 715.161H298.384C325.71 715.161 347.862 693.008 347.862 665.682V55.349C347.862 28.0273 325.714 5.87891 298.392 5.87891L58.5468 5.87891C31.2251 5.87891 9.07666 28.0273 9.07666 55.349ZM297.878 704.758H59.0567C37.2002 704.758 19.4797 687.037 19.4797 665.181L19.4797 55.9679C19.4797 34.1027 37.2046 16.3822 59.0654 16.3822L297.869 16.3822C319.735 16.3822 337.455 34.1071 337.455 55.9679V665.176C337.455 687.037 319.739 704.758 297.878 704.758Z" fill="#252525"/>
<path d="M297.106 0L59.8273 0C28.5135 0 3.12695 25.3866 3.12695 56.696L3.12695 664.492C3.12695 695.806 28.5135 721.189 59.8273 721.189H297.106C328.42 721.189 353.802 695.802 353.802 664.492L353.802 56.696C353.806 25.3822 328.42 0 297.106 0ZM317.254 712.189C310.873 714.886 304.096 716.255 297.106 716.255H59.8273C52.8367 716.255 46.0554 714.886 39.6793 712.189C33.5168 709.583 27.9818 705.852 23.2227 701.093C18.4679 696.338 14.7329 690.803 12.1267 684.636C9.42893 678.256 8.06045 671.479 8.06045 664.488L8.06045 56.696C8.06045 49.7054 9.42893 42.9284 12.1267 36.548C14.7329 30.3855 18.4679 24.8462 23.2227 20.0914C27.9818 15.3322 33.5168 11.6016 39.6793 8.99535C46.0597 6.29762 52.8367 4.92914 59.8273 4.92914L297.106 4.92914C304.096 4.92914 310.873 6.29762 317.254 8.99535C323.416 11.6016 328.951 15.3322 333.71 20.0914C338.465 24.8462 342.2 30.3855 344.806 36.548C347.504 42.9284 348.873 49.7054 348.873 56.696L348.873 664.492C348.873 671.483 347.504 678.26 344.806 684.641C342.2 690.803 338.465 696.342 333.71 701.097C328.951 705.852 323.416 709.583 317.254 712.189Z" fill="#5B7682"/>
<path d="M346.837 35.6894C344.118 29.261 340.226 23.4908 335.271 18.5355C330.315 13.5802 324.541 9.68831 318.117 6.96879C311.466 4.15338 304.397 2.72825 297.11 2.72825L59.8273 2.72825C52.5404 2.72825 45.4714 4.15338 38.8164 6.96879C32.388 9.68831 26.6177 13.5802 21.6624 18.5355C16.7072 23.4908 12.8153 29.2654 10.0957 35.6894C7.28469 42.34 5.8552 49.4091 5.8552 56.696L5.8552 664.492C5.8552 671.779 7.28469 678.848 10.0957 685.499C12.8153 691.927 16.7072 697.698 21.6624 702.653C26.6177 707.608 32.3924 711.5 38.8164 714.22C45.467 717.035 52.536 718.46 59.8273 718.46H297.106C304.393 718.46 311.462 717.035 318.112 714.22C324.541 711.5 330.311 707.608 335.266 702.653C340.222 697.698 344.114 691.923 346.833 685.499C349.644 678.848 351.074 671.779 351.074 664.492L351.074 56.696C351.078 49.4091 349.648 42.3444 346.837 35.6894ZM346.663 664.492C346.663 671.182 345.356 677.676 342.771 683.782C340.274 689.683 336.7 694.983 332.15 699.537C327.596 704.091 322.296 707.665 316.395 710.158C310.289 712.742 303.8 714.05 297.106 714.05H59.8273C53.1331 714.05 46.6437 712.742 40.5379 710.158C34.6368 707.661 29.3373 704.091 24.7829 699.537C20.2329 694.983 16.6548 689.683 14.1619 683.782C11.5775 677.676 10.2701 671.187 10.2701 664.492L10.2701 56.696C10.2701 50.0061 11.5775 43.5124 14.1619 37.4066C16.6592 31.5055 20.2329 26.2059 24.7829 21.6516C29.3373 17.0973 34.6368 13.5235 40.5379 11.0306C46.6437 8.44622 53.1331 7.13876 59.8273 7.13876L297.106 7.13876C303.796 7.13876 310.285 8.44622 316.395 11.0306C322.296 13.5279 327.596 17.0973 332.15 21.6516C336.705 26.2059 340.278 31.5055 342.771 37.4066C345.356 43.5124 346.663 50.0018 346.663 56.696L346.663 664.492ZM346.837 35.6894C344.118 29.261 340.226 23.4908 335.271 18.5355C330.315 13.5802 324.541 9.68831 318.117 6.96879C311.466 4.15338 304.397 2.72825 297.11 2.72825L59.8273 2.72825C52.5404 2.72825 45.4714 4.15338 38.8164 6.96879C32.388 9.68831 26.6177 13.5802 21.6624 18.5355C16.7072 23.4908 12.8153 29.2654 10.0957 35.6894C7.28469 42.34 5.8552 49.4091 5.8552 56.696L5.8552 664.492C5.8552 671.779 7.28469 678.848 10.0957 685.499C12.8153 691.927 16.7072 697.698 21.6624 702.653C26.6177 707.608 32.3924 711.5 38.8164 714.22C45.467 717.035 52.536 718.46 59.8273 718.46H297.106C304.393 718.46 311.462 717.035 318.112 714.22C324.541 711.5 330.311 707.608 335.266 702.653C340.222 697.698 344.114 691.923 346.833 685.499C349.644 678.848 351.074 671.779 351.074 664.492L351.074 56.696C351.078 49.4091 349.648 42.3444 346.837 35.6894ZM346.663 664.492C346.663 671.182 345.356 677.676 342.771 683.782C340.274 689.683 336.7 694.983 332.15 699.537C327.596 704.091 322.296 707.665 316.395 710.158C310.289 712.742 303.8 714.05 297.106 714.05H59.8273C53.1331 714.05 46.6437 712.742 40.5379 710.158C34.6368 707.661 29.3373 704.091 24.7829 699.537C20.2329 694.983 16.6548 689.683 14.1619 683.782C11.5775 677.676 10.2701 671.187 10.2701 664.492L10.2701 56.696C10.2701 50.0061 11.5775 43.5124 14.1619 37.4066C16.6592 31.5055 20.2329 26.2059 24.7829 21.6516C29.3373 17.0973 34.6368 13.5235 40.5379 11.0306C46.6437 8.44622 53.1331 7.13876 59.8273 7.13876L297.106 7.13876C303.796 7.13876 310.285 8.44622 316.395 11.0306C322.296 13.5279 327.596 17.0973 332.15 21.6516C336.705 26.2059 340.278 31.5055 342.771 37.4066C345.356 43.5124 346.663 50.0018 346.663 56.696L346.663 664.492ZM297.106 0L59.8273 0C28.5135 0 3.12695 25.3866 3.12695 56.696L3.12695 664.492C3.12695 695.806 28.5135 721.189 59.8273 721.189H297.106C328.42 721.189 353.802 695.802 353.802 664.492L353.802 56.696C353.806 25.3822 328.42 0 297.106 0ZM351.597 664.492C351.597 694.538 327.151 718.983 297.106 718.983H59.8273C29.7774 718.983 5.33657 694.538 5.33657 664.492L5.33657 56.696C5.33657 26.6505 29.7818 2.20526 59.8273 2.20526L297.106 2.20526C327.151 2.20526 351.597 26.6505 351.597 56.696L351.597 664.492ZM318.117 6.96442C311.466 4.14902 304.397 2.72388 297.11 2.72388L59.8273 2.72388C52.5404 2.72388 45.4714 4.14902 38.8164 6.96442C32.388 9.68395 26.6177 13.5758 21.6624 18.5311C16.7072 23.4864 12.8153 29.2611 10.0957 35.6851C7.28469 42.3357 5.8552 49.4047 5.8552 56.6917L5.8552 664.488C5.8552 671.775 7.28469 678.844 10.0957 685.495C12.8153 691.923 16.7072 697.693 21.6624 702.649C26.6177 707.604 32.3924 711.496 38.8164 714.215C45.467 717.031 52.536 718.456 59.8273 718.456H297.106C304.393 718.456 311.462 717.031 318.112 714.215C324.541 711.496 330.311 707.604 335.266 702.649C340.222 697.693 344.114 691.919 346.833 685.495C349.644 678.844 351.074 671.775 351.074 664.488L351.074 56.696C351.074 49.4091 349.644 42.34 346.833 35.6894C344.114 29.261 340.222 23.4908 335.266 18.5355C330.315 13.5758 324.541 9.68395 318.117 6.96442ZM346.663 664.492C346.663 671.182 345.356 677.676 342.771 683.782C340.274 689.683 336.7 694.983 332.15 699.537C327.596 704.091 322.296 707.665 316.395 710.158C310.289 712.742 303.8 714.05 297.106 714.05H59.8273C53.1331 714.05 46.6437 712.742 40.5379 710.158C34.6368 707.661 29.3373 704.091 24.7829 699.537C20.2329 694.983 16.6548 689.683 14.1619 683.782C11.5775 677.676 10.2701 671.187 10.2701 664.492L10.2701 56.696C10.2701 50.0061 11.5775 43.5124 14.1619 37.4066C16.6592 31.5055 20.2329 26.2059 24.7829 21.6516C29.3373 17.0973 34.6368 13.5235 40.5379 11.0306C46.6437 8.44622 53.1331 7.13876 59.8273 7.13876L297.106 7.13876C303.796 7.13876 310.285 8.44622 316.395 11.0306C322.296 13.5279 327.596 17.0973 332.15 21.6516C336.705 26.2059 340.278 31.5055 342.771 37.4066C345.356 43.5124 346.663 50.0018 346.663 56.696L346.663 664.492Z" fill="#66E0E3"/>
<path d="M295.747 3.38189C303.082 3.38189 310.199 4.82445 316.897 7.67472C323.369 10.4248 329.179 14.3646 334.169 19.3809C339.159 24.3972 343.077 30.2416 345.814 36.744C348.647 43.4775 350.085 50.6293 350.085 58.0034L350.085 663.185C350.085 670.559 348.647 677.711 345.814 684.444C343.077 690.947 339.159 696.791 334.169 701.808C329.179 706.824 323.369 710.764 316.897 713.514C310.199 716.36 303.086 717.807 295.747 717.807H60.97C53.6351 717.807 46.5181 716.364 39.8195 713.514C33.3476 710.764 27.5381 706.824 22.5479 701.808C17.5578 696.791 13.6398 690.947 10.9028 684.444C8.06996 677.711 6.63175 670.559 6.63175 663.185L6.63175 58.0034C6.63175 50.6293 8.06996 43.4775 10.9028 36.744C13.6398 30.2416 17.5578 24.3972 22.5479 19.3809C27.5381 14.3646 33.3476 10.4248 39.8195 7.67472C46.5181 4.82881 53.6307 3.38189 60.97 3.38189L295.747 3.38189ZM295.747 1.30737L60.97 1.30737C29.8218 1.30737 4.57031 26.694 4.57031 58.0034L4.57031 663.185C4.57031 694.499 29.8218 719.881 60.97 719.881H295.747C326.895 719.881 352.147 694.494 352.147 663.185L352.147 58.0034C352.147 26.6896 326.895 1.30737 295.747 1.30737Z" fill="#66E0E3"/>
<path d="M283.029 0.000244141V7.139L279.011 7.139V0.000244141L283.029 0.000244141Z" fill="#B3EEF0"/>
<path d="M10.2657 73.855H3.12695L3.12695 77.8733H10.2657V73.855Z" fill="#B3EEF0"/>
<path d="M10.2657 643.578H3.12695L3.12695 647.596H10.2657V643.578Z" fill="#B3EEF0"/>
<path d="M74.48 721.19V714.051H78.4983V721.19H74.48Z" fill="#B3EEF0"/>
<path d="M353.802 643.578H346.664V647.596H353.802V643.578Z" fill="#B3EEF0"/>
<path d="M353.802 73.8552H346.663V77.8735H353.802V73.8552Z" fill="#B3EEF0"/>
<path d="M241.032 14.7034V22.753C241.032 32.9294 232.782 41.1795 222.602 41.1795L134.33 41.1795C124.15 41.1795 115.899 32.9294 115.899 22.753V14.7034L241.032 14.7034Z" fill="#252525"/>
<path d="M244.098 14.7029C242.402 14.7247 241.034 16.1062 241.034 17.8059V14.7029H244.098Z" fill="#252525"/>
<path d="M112.836 14.7036C114.531 14.7254 115.9 16.107 115.9 17.8067V14.7036H112.836Z" fill="#252525"/>
</svg>
