<svg width="32" height="75" viewBox="0 0 32 75" fill="none" xmlns="http://www.w3.org/2000/svg">
<path d="M31.0477 59.2566C31.058 66.9876 24.2682 73.2659 15.8815 73.2752C7.49473 73.2845 0.689367 67.0248 0.679078 59.2939C0.66879 51.5629 15.7913 0 15.7913 0C15.7913 0 31.0396 51.5209 31.0477 59.2566Z" fill="#7C2D00"/>
<path d="M15.6211 0.574717L15.711 73.2735C15.7671 73.2757 15.8254 73.2731 15.8815 73.2752C24.2682 73.2659 31.058 66.9876 31.0477 59.2566C31.0374 51.5257 15.7913 0 15.7913 0C15.7913 0 15.7303 0.201103 15.6211 0.574717Z" fill="#FF3300"/>
<path d="M23.6247 59.2671C23.629 63.2178 20.1579 66.4257 15.8737 66.4356C11.5869 66.4386 8.10879 63.2409 8.10449 59.2902C8.1002 55.3395 11.5713 52.1316 15.8555 52.1217C20.1396 52.1118 23.6178 55.3095 23.6247 59.2671Z" fill="#EBEBEB"/>
<path d="M21.9372 59.2629C21.9405 62.3572 19.2246 64.8685 15.8736 64.8716C12.5178 64.8726 9.79685 62.3715 9.79358 59.2773C9.79032 56.183 12.5061 53.6716 15.8619 53.6706C19.2128 53.6675 21.9318 56.1734 21.9372 59.2629Z" fill="white"/>
</svg>
