<svg width="259" height="260" viewBox="0 0 259 260" fill="none" xmlns="http://www.w3.org/2000/svg">
<path d="M232.001 133.728H26.3384V136.271H232.001V133.728Z" fill="#BFBFBF"/>
<path d="M232 123.526H26.3379V126.07H232V123.526Z" fill="#BFBFBF"/>
<path d="M135.541 27.0674H132.998V232.73H135.541V27.0674Z" fill="#BFBFBF"/>
<path d="M125.34 27.0674H122.796V232.73H125.34V27.0674Z" fill="#BFBFBF"/>
<path d="M95.7066 32.4718L93.3564 33.4453L172.063 223.457L174.414 222.483L95.7066 32.4718Z" fill="#BFBFBF"/>
<path d="M86.3087 36.3619L83.9585 37.3354L162.665 227.347L165.016 226.373L86.3087 36.3619Z" fill="#BFBFBF"/>
<path d="M60.9408 52.6939L59.1421 54.4927L204.566 199.916L206.365 198.118L60.9408 52.6939Z" fill="#BFBFBF"/>
<path d="M53.727 59.8922L51.9282 61.6909L197.352 207.115L199.151 205.316L53.727 59.8922Z" fill="#BFBFBF"/>
<path d="M36.6298 84.66L35.6562 87.0103L225.668 165.717L226.641 163.367L36.6298 84.66Z" fill="#BFBFBF"/>
<path d="M32.7118 94.0873L31.7383 96.4375L221.75 175.144L222.723 172.794L32.7118 94.0873Z" fill="#BFBFBF"/>
<path d="M225.683 94.0763L35.6714 172.783L36.6449 175.133L226.656 96.4265L225.683 94.0763Z" fill="#BFBFBF"/>
<path d="M221.771 84.6525L31.7593 163.359L32.7328 165.71L222.744 87.0027L221.771 84.6525Z" fill="#BFBFBF"/>
<path d="M204.573 59.8883L59.1489 205.312L60.9476 207.111L206.371 61.687L204.573 59.8883Z" fill="#BFBFBF"/>
<path d="M197.349 52.6812L51.9248 198.105L53.7235 199.904L199.147 54.4799L197.349 52.6812Z" fill="#BFBFBF"/>
<path d="M172.07 36.3662L93.3628 226.377L95.713 227.351L174.42 37.3397L172.07 36.3662Z" fill="#BFBFBF"/>
<path d="M162.643 32.4682L83.936 222.479L86.2863 223.453L164.993 33.4417L162.643 32.4682Z" fill="#BFBFBF"/>
<path d="M229.582 129.899V129.898C229.582 74.436 184.631 29.4847 129.168 29.4847C73.7061 29.4847 28.7547 74.436 28.7547 129.898C28.7547 185.361 73.7061 230.312 129.168 230.312C184.605 230.312 229.556 185.361 229.582 129.899ZM1 129.898C1 59.1214 58.366 1.72998 129.168 1.72998C199.945 1.72998 257.337 59.1215 257.337 129.898C257.337 200.675 199.945 258.067 129.168 258.067C58.3916 258.067 1 200.675 1 129.898Z" fill="#7C72FF" stroke="#252525" stroke-width="2"/>
<path d="M129.169 18.1509C67.4494 18.1509 17.4214 68.1789 17.4214 129.898C17.4214 191.617 67.4494 241.645 129.169 241.645C190.888 241.645 240.916 191.617 240.916 129.898C240.916 68.1789 190.888 18.1509 129.169 18.1509ZM129.169 229.312C74.2586 229.312 29.755 184.808 29.755 129.898C29.755 74.988 74.2586 30.4844 129.169 30.4844C184.079 30.4844 228.582 74.988 228.582 129.898C228.557 184.808 184.053 229.312 129.169 229.312Z" fill="#9A93FF"/>
<path d="M129.168 23.3159C70.3014 23.3159 22.5859 71.0314 22.5859 129.898C22.5859 188.766 70.3014 236.481 129.168 236.481C188.036 236.481 235.751 188.766 235.751 129.898C235.751 71.0314 188.036 23.3159 129.168 23.3159ZM129.168 229.312C74.2584 229.312 29.7548 184.809 29.7548 129.898C29.7548 74.9884 74.2584 30.4848 129.168 30.4848C184.079 30.4848 228.582 74.9884 228.582 129.898C228.556 184.809 184.053 229.312 129.168 229.312Z" fill="#7C72FF"/>
<path d="M124.852 6.53655C126.368 6.48516 127.781 6.45947 129.143 6.45947C130.53 6.45947 131.943 6.48516 133.434 6.53655V11.7013C132.02 11.6499 130.582 11.6242 129.143 11.6242C127.704 11.6242 126.265 11.6499 124.852 11.7013V6.53655Z" fill="#FEE480"/>
<path d="M148.852 13.2946C146.025 12.8321 143.173 12.4467 140.321 12.1898L140.989 7.05078C143.841 7.33343 146.693 7.69316 149.52 8.18136L148.852 13.2946Z" fill="#FEE480"/>
<path d="M191.942 29.7388C189.526 28.2228 187.034 26.7839 184.49 25.4221L187.085 20.9512C189.604 22.2873 192.096 23.7519 194.537 25.2679L191.942 29.7388Z" fill="#FEE480"/>
<path d="M204.48 38.8097C202.245 36.9597 199.983 35.2125 197.671 33.568L200.806 29.4824C203.118 31.1526 205.405 32.8999 207.615 34.7242L204.48 38.8097Z" fill="#FEE480"/>
<path d="M178.374 22.3646C175.805 21.1826 173.133 20.0777 170.435 19.0756L172.413 14.2964C175.085 15.2985 177.758 16.4033 180.353 17.611L178.374 22.3646Z" fill="#FEE480"/>
<path d="M163.908 16.8663C161.159 16.0183 158.383 15.2731 155.608 14.6307L156.945 9.646C159.745 10.2884 162.546 11.0335 165.244 11.8557L163.908 16.8663Z" fill="#FEE480"/>
<path d="M50.6963 34.6983C52.9061 32.874 55.1929 31.1267 57.5055 29.4565L60.6403 33.542C58.3277 35.1865 56.0665 36.9595 53.8311 38.7838L50.6963 34.6983Z" fill="#FEE480"/>
<path d="M28.7271 58.2606C30.3972 55.9224 32.1445 53.6612 33.9688 51.4258L38.08 54.5863C36.23 56.8217 34.4827 59.0829 32.8382 61.3954L28.7271 58.2606Z" fill="#FEE480"/>
<path d="M108.792 8.18136C111.619 7.71886 114.471 7.33343 117.323 7.05078L117.991 12.1898C115.139 12.4724 112.287 12.8321 109.461 13.2946L108.792 8.18136Z" fill="#FEE480"/>
<path d="M63.7754 25.2679C66.2164 23.7519 68.7088 22.2873 71.2269 20.9512L73.8221 25.4221C71.2783 26.7582 68.7859 28.2228 66.3706 29.7388L63.7754 25.2679Z" fill="#FEE480"/>
<path d="M77.9844 17.5857C80.6053 16.378 83.2775 15.2731 85.9241 14.271L87.9026 19.0502C85.179 20.0523 82.5323 21.1572 79.9629 22.3392L77.9844 17.5857Z" fill="#FEE480"/>
<path d="M225.499 61.3954C223.854 59.0829 222.081 56.796 220.257 54.5863L224.368 51.4258C226.192 53.6355 227.94 55.9224 229.61 58.2349L225.499 61.3954Z" fill="#FEE480"/>
<path d="M38.9277 45.7469C40.8805 43.6656 42.9105 41.61 45.0175 39.6572L48.6918 43.3316C46.6105 45.2844 44.5549 47.3143 42.6021 49.4213L38.9277 45.7469Z" fill="#FEE480"/>
<path d="M44.992 220.139C42.9107 218.186 40.8552 216.156 38.9023 214.049L42.5767 210.375C44.5296 212.481 46.5851 214.511 48.6664 216.464L44.992 220.139Z" fill="#FEE480"/>
<path d="M5.78167 134.19C5.73028 132.699 5.70459 131.286 5.70459 129.899C5.70459 128.511 5.73028 127.098 5.78167 125.607H10.9463C10.8949 127.046 10.8693 128.485 10.8693 129.899C10.8693 131.312 10.8949 132.751 10.9463 134.19H5.78167Z" fill="#FEE480"/>
<path d="M209.645 216.464C211.726 214.511 213.782 212.481 215.735 210.375L219.409 214.049C217.456 216.156 215.401 218.186 213.319 220.139L209.645 216.464Z" fill="#FEE480"/>
<path d="M247.365 134.19C247.417 132.751 247.442 131.312 247.442 129.899C247.442 128.485 247.417 127.046 247.365 125.607H252.53C252.581 127.098 252.607 128.511 252.607 129.899C252.607 131.286 252.581 132.699 252.53 134.19H247.365Z" fill="#FEE480"/>
<path d="M215.735 49.3954C213.782 47.2884 211.752 45.2585 209.645 43.3057L213.319 39.6313C215.426 41.5842 217.456 43.6397 219.409 45.721L215.735 49.3954Z" fill="#FEE480"/>
<path d="M20.2227 71.956C21.5588 69.4379 23.0234 66.9454 24.5394 64.5044L29.0104 67.0996C27.4944 69.5149 26.0554 72.0073 24.6936 74.5511L20.2227 71.956Z" fill="#FEE480"/>
<path d="M239.991 88.6322C238.989 85.9085 237.884 83.2619 236.702 80.6924L241.481 78.7139C242.689 81.3347 243.793 83.9813 244.796 86.6536L239.991 88.6322Z" fill="#FEE480"/>
<path d="M233.644 74.5511C232.308 72.0073 230.869 69.5149 229.328 67.0996L233.799 64.5044C235.315 66.9197 236.754 69.4122 238.115 71.956L233.644 74.5511Z" fill="#FEE480"/>
<path d="M246.877 118.747C246.595 115.895 246.235 113.042 245.772 110.216L250.911 109.548C251.374 112.374 251.759 115.226 252.016 118.079L246.877 118.747Z" fill="#FEE480"/>
<path d="M244.436 103.458C243.794 100.683 243.049 97.9078 242.201 95.1585L247.211 93.8223C248.059 96.5459 248.804 99.3467 249.447 102.147L244.436 103.458Z" fill="#FEE480"/>
<path d="M93.0674 11.8561C95.791 11.0338 98.5661 10.2887 101.367 9.62061L102.703 14.6054C99.9279 15.2478 97.1529 15.9929 94.4035 16.8409L93.0674 11.8561Z" fill="#FEE480"/>
<path d="M170.409 240.745C173.132 239.743 175.779 238.639 178.348 237.457L180.327 242.236C177.706 243.444 175.059 244.548 172.387 245.551L170.409 240.745Z" fill="#FEE480"/>
<path d="M184.516 234.374C187.059 233.012 189.552 231.573 191.967 230.057L194.562 234.528C192.121 236.044 189.629 237.509 187.111 238.845L184.516 234.374Z" fill="#FEE480"/>
<path d="M197.671 226.254C199.983 224.609 202.245 222.836 204.48 221.012L207.641 225.123C205.431 226.947 203.144 228.695 200.831 230.365L197.671 226.254Z" fill="#FEE480"/>
<path d="M155.608 245.165C158.383 244.523 161.159 243.778 163.908 242.93L165.244 247.94C162.52 248.762 159.745 249.533 156.919 250.176L155.608 245.165Z" fill="#FEE480"/>
<path d="M129.169 253.337C127.781 253.337 126.368 253.311 124.878 253.259V248.095C126.317 248.146 127.756 248.172 129.169 248.172C130.582 248.172 132.021 248.146 133.46 248.095V253.259C131.97 253.311 130.557 253.337 129.169 253.337Z" fill="#FEE480"/>
<path d="M140.321 247.607C143.199 247.35 146.051 246.964 148.852 246.502L149.52 251.641C146.719 252.103 143.841 252.489 140.989 252.746L140.321 247.607Z" fill="#FEE480"/>
<path d="M242.201 164.638C243.049 161.888 243.794 159.088 244.436 156.338L249.421 157.674C248.779 160.475 248.033 163.276 247.186 165.974L242.201 164.638Z" fill="#FEE480"/>
<path d="M245.772 149.581C246.235 146.754 246.62 143.902 246.877 141.05L252.016 141.718C251.734 144.57 251.374 147.448 250.886 150.249L245.772 149.581Z" fill="#FEE480"/>
<path d="M117.323 252.746C114.471 252.463 111.619 252.103 108.792 251.641L109.461 246.502C112.261 246.964 115.113 247.35 117.991 247.607L117.323 252.746Z" fill="#FEE480"/>
<path d="M13.5415 86.6536C14.5436 83.9813 15.6485 81.3347 16.8561 78.7139L21.6354 80.6924C20.4534 83.2619 19.3485 85.9085 18.3464 88.6322L13.5415 86.6536Z" fill="#FEE480"/>
<path d="M220.257 205.21C222.107 202.974 223.854 200.713 225.499 198.4L229.584 201.535C227.914 203.848 226.167 206.135 224.342 208.344L220.257 205.21Z" fill="#FEE480"/>
<path d="M229.328 192.696C230.844 190.28 232.283 187.788 233.644 185.244L238.115 187.839C236.779 190.357 235.34 192.85 233.799 195.291L229.328 192.696Z" fill="#FEE480"/>
<path d="M236.702 179.104C237.884 176.534 238.989 173.888 239.991 171.164L244.77 173.143C243.768 175.815 242.663 178.487 241.455 181.082L236.702 179.104Z" fill="#FEE480"/>
<path d="M11.1007 165.974C10.2785 163.25 9.5333 160.475 8.86523 157.674L13.8501 156.338C14.4924 159.113 15.2376 161.888 16.0855 164.638L11.1007 165.974Z" fill="#FEE480"/>
<path d="M7.42615 150.249C6.96364 147.422 6.57824 144.57 6.32129 141.718L11.4603 141.05C11.7429 143.902 12.1026 146.78 12.5651 149.581L7.42615 150.249Z" fill="#FEE480"/>
<path d="M8.89062 102.122C9.533 99.3213 10.2781 96.5462 11.1261 93.7969L16.1366 95.133C15.2886 97.8823 14.5435 100.683 13.9011 103.432L8.89062 102.122Z" fill="#FEE480"/>
<path d="M6.32129 118.053C6.60393 115.2 6.96364 112.348 7.42615 109.522L12.5651 110.19C12.1026 112.991 11.7172 115.843 11.4603 118.721L6.32129 118.053Z" fill="#FEE480"/>
<path d="M16.8303 181.082C15.6226 178.461 14.5177 175.815 13.5156 173.143L18.2949 171.164C19.3227 173.888 20.4019 176.56 21.5838 179.104L16.8303 181.082Z" fill="#FEE480"/>
<path d="M57.5055 230.339C55.1672 228.669 52.8804 226.922 50.6963 225.097L53.8568 220.986C56.0923 222.836 58.3534 224.584 60.6659 226.228L57.5055 230.339Z" fill="#FEE480"/>
<path d="M85.9241 245.525C83.2518 244.523 80.5796 243.418 77.9844 242.21L79.9629 237.431C82.5323 238.613 85.179 239.718 87.9026 240.72L85.9241 245.525Z" fill="#FEE480"/>
<path d="M24.5131 195.266C22.9714 192.825 21.5324 190.333 20.1963 187.814L24.6672 185.219C26.0034 187.763 27.4679 190.255 28.9839 192.671L24.5131 195.266Z" fill="#FEE480"/>
<path d="M71.2269 238.845C68.7088 237.509 66.2164 236.07 63.7754 234.528L66.3706 230.057C68.7859 231.573 71.2783 233.012 73.8221 234.374L71.2269 238.845Z" fill="#FEE480"/>
<path d="M33.9688 208.37C32.1445 206.161 30.3972 203.874 28.7271 201.561L32.8125 198.426C34.457 200.739 36.2299 203 38.0543 205.235L33.9688 208.37Z" fill="#FEE480"/>
<path d="M101.392 250.176C98.5915 249.533 95.8164 248.788 93.0928 247.94L94.4289 242.93C97.1783 243.778 99.979 244.523 102.728 245.165L101.392 250.176Z" fill="#FEE480"/>
<path d="M129.169 27.3496C72.537 27.3496 26.6201 73.2664 26.6201 129.898C26.6201 186.53 72.537 232.447 129.169 232.447C185.8 232.447 231.717 186.53 231.717 129.898C231.717 73.2664 185.8 27.3496 129.169 27.3496ZM129.169 229.312C74.2585 229.312 29.7549 184.808 29.7549 129.898C29.7549 74.988 74.2585 30.4844 129.169 30.4844C184.079 30.4844 228.582 74.988 228.582 129.898C228.557 184.808 184.053 229.312 129.169 229.312Z" fill="#7C72FF"/>
</svg>
