<svg width="673" height="575" viewBox="0 0 673 575" fill="none" xmlns="http://www.w3.org/2000/svg">
<path d="M328.196 379.808L266.711 353.469L314.926 276.754L315.409 275.985L314.69 275.43L241.136 218.673L307.398 160.687L382.91 224.827C405.4 243.932 408.757 277.397 390.514 300.588L328.196 379.808Z" fill="#FEE480" stroke="#252525" stroke-width="2"/>
<path d="M273.64 342.397C273.668 342.378 273.696 342.359 273.723 342.341L316.649 369.367L316.944 369.552L317.289 369.515L338.036 367.277C344.309 386.218 344.938 402.281 343.989 413.638C343.507 419.394 342.621 423.941 341.858 427.042C341.477 428.589 341.127 429.776 340.873 430.573L251.248 371.34C255.783 360.928 261.473 353.63 266.058 348.917C268.406 346.504 270.464 344.768 271.928 343.641C272.66 343.077 273.243 342.665 273.64 342.397Z" fill="#7DDF6D" stroke="#252525" stroke-width="2"/>
<path d="M311.935 166.177L351.177 182.886L263.713 247.554L220.149 165.155L311.935 166.177Z" fill="#FDA5C0" stroke="#252525" stroke-width="2"/>
<path d="M291.329 477.146C290.866 477.146 290.404 477.094 289.941 476.966C286.909 476.195 285.059 473.137 285.83 470.105L299.962 413.705C300.708 410.673 303.791 408.823 306.823 409.594C309.855 410.365 311.705 413.422 310.934 416.454L296.802 472.855C296.16 475.424 293.847 477.146 291.329 477.146Z" fill="#252525"/>
<path d="M322.574 414.219C322.574 418.356 319.182 421.748 315.02 421.748H293.95C289.787 421.748 286.396 418.356 286.396 414.219C286.396 410.082 289.787 406.69 293.95 406.69H315.02C319.157 406.69 322.574 410.082 322.574 414.219Z" fill="#252525"/>
<path d="M315.02 406.69H293.95C289.787 406.69 286.396 410.082 286.396 414.219H322.548C322.574 410.082 319.157 406.69 315.02 406.69Z" fill="#252525"/>
<path d="M287.449 410.468H321.495C320.185 408.232 317.769 406.69 314.994 406.69H293.924C291.175 406.69 288.76 408.232 287.449 410.468Z" fill="#9E9E9E"/>
<path d="M517.53 272.925H516.53V273.925V305.684V306.684H517.53C517.613 306.684 517.701 306.688 517.821 306.695L517.831 306.695C517.941 306.701 518.08 306.709 518.224 306.709C527.22 306.709 534.435 299.102 534.435 289.804C534.435 280.506 527.22 272.899 518.224 272.899C518.08 272.899 517.941 272.907 517.831 272.913C517.828 272.913 517.825 272.913 517.821 272.913C517.701 272.92 517.613 272.925 517.53 272.925Z" fill="#FEE480" stroke="#252525" stroke-width="2"/>
<path d="M490.233 217.19L480.366 208.428C480.829 207.914 491.878 195.658 513.513 188.9C520.656 186.665 523.431 182.528 522.994 179.624C522.609 177.055 519.654 175.41 515.491 175.41H443.828V162.203H515.491C528.056 162.203 534.891 169.937 536.047 177.62C537.358 186.202 532.116 196.917 517.444 201.491C499.586 207.092 490.336 217.087 490.233 217.19Z" fill="#BFBFBF"/>
<path d="M534.788 187.23C534.814 186.202 534.763 185.2 534.609 184.224C533.427 176.541 526.617 168.807 514.053 168.807H443.803V175.41H515.466C519.628 175.41 522.583 177.055 522.969 179.624C523.406 182.528 520.631 186.69 513.487 188.9C491.878 195.658 480.803 207.889 480.341 208.428L490.208 217.19C490.285 217.087 499.535 207.092 517.419 201.516C526.874 198.561 532.399 193.063 534.788 187.23Z" fill="#9E9E9E"/>
<path d="M190.51 297.257L190.791 297.496L226.841 328.202L226.842 328.202C230.422 331.258 230.856 336.64 227.805 340.245C226.114 342.255 223.696 343.273 221.285 343.273C219.336 343.273 217.356 342.604 215.754 341.235L190.51 297.257ZM190.51 297.257H190.142H57.8649C53.1243 297.257 49.3105 301.071 49.3105 305.812C49.3105 310.554 53.1522 314.366 57.8649 314.366H184.198L215.753 341.234L190.51 297.257Z" fill="#7C72FF" stroke="#252525" stroke-width="2"/>
<path d="M187.341 305.838L221.284 334.744L226.372 340.243C226.578 340.037 226.809 339.858 227.014 339.626C229.712 336.466 229.327 331.687 226.166 328.989L190.116 298.283H57.8389C53.6764 298.283 50.2847 301.649 50.2847 305.838H57.8389H187.341Z" fill="#9A93FF"/>
<path d="M406.925 314.334L406.04 314.801L406.507 315.686L418.921 339.206L419.388 340.09L420.273 339.623L435.271 331.707L436.155 331.24L435.688 330.356L423.274 306.836L422.807 305.951L421.923 306.418L406.925 314.334Z" fill="#7C72FF" stroke="#252525" stroke-width="2"/>
<path d="M290.339 464.627L290.232 463.635L288.408 446.753L288.297 445.728L289.325 445.649C289.325 445.649 289.327 445.649 289.333 445.648C289.404 445.639 289.927 445.575 290.851 445.418C291.838 445.251 293.258 444.981 295.017 444.572C298.537 443.753 303.412 442.375 308.896 440.138C319.871 435.66 333.238 427.759 343.114 414.047L290.339 464.627ZM290.339 464.627L291.332 464.522C293.081 464.337 333.655 459.624 358.51 425.133L358.51 425.133L362.673 419.351L362.674 419.35C383.832 389.836 403.703 362.155 435.345 340.685C451.312 329.858 468.609 324.911 481.98 322.678C488.662 321.562 494.353 321.125 498.392 320.969C500.411 320.891 502.016 320.883 503.125 320.896C503.679 320.902 504.109 320.913 504.404 320.923C504.552 320.928 504.666 320.933 504.744 320.936C504.765 320.937 504.783 320.938 504.798 320.939C504.843 320.941 504.862 320.942 504.86 320.942L505.866 321.014L505.929 320.006L506.982 303.073L507.045 302.071L506.042 302.013C504.217 301.907 462.154 299.576 424.689 325.001C390.253 348.371 368.379 378.851 347.313 408.205L347.251 408.291L347.251 408.291L343.115 414.046L290.339 464.627Z" fill="#7C72FF" stroke="#252525" stroke-width="2"/>
<path d="M425.225 325.827C390.922 349.107 369.133 379.478 348.038 408.873L343.901 414.629C323.859 442.457 289.736 446.594 289.376 446.645L290.301 455.073C290.301 455.073 328.15 451.013 350.787 419.588C373.424 388.163 394.777 356.738 429.979 332.842C465.181 308.946 505.419 311.464 505.419 311.464L505.959 302.985C504.186 302.908 462.406 300.621 425.225 325.827Z" fill="#9A93FF"/>
<path d="M270.404 375.017L270.229 376.027L271.243 376.177C271.283 376.183 271.352 376.194 271.449 376.21C273.028 376.46 282.019 377.884 293.282 377.884C302.843 377.884 314.157 376.853 323.954 373.169C331.706 370.264 346.258 362.53 363.744 352.56C381.259 342.573 401.794 330.298 421.551 318.267C461.064 294.206 497.487 271.108 500.457 269.218L501.3 268.682L500.765 267.839L491.669 253.501L491.13 252.651L490.284 253.195C489.571 253.653 453.534 276.511 414.05 300.613C394.309 312.663 373.711 325.021 356.239 335.044C338.736 345.085 324.451 352.734 317.29 355.417L317.289 355.418C308.829 358.598 298.216 359.143 289.611 358.865C285.322 358.726 281.561 358.384 278.857 358.074C277.505 357.919 276.419 357.772 275.664 357.662C275.287 357.607 274.992 357.562 274.79 357.529C274.627 357.504 274.534 357.488 274.502 357.482C274.492 357.481 274.488 357.48 274.489 357.48L273.483 357.279L273.308 358.29L270.404 375.017Z" fill="#7C72FF" stroke="#252525" stroke-width="2"/>
<path d="M495.346 261.206L490.798 254.037C489.359 254.936 346.624 345.459 317.614 356.354C300.322 362.829 274.524 358.486 274.267 358.461L272.828 366.812C272.828 366.812 300.861 371.694 320.595 364.294C350.787 352.988 495.346 261.206 495.346 261.206Z" fill="#9A93FF"/>
<path d="M485.524 253.061L485.707 254.057L486.7 253.862L499.65 251.318L500.62 251.128L500.441 250.156L491.936 203.828L491.753 202.83L490.758 203.028L477.808 205.597L476.841 205.789L477.019 206.759L485.524 253.061Z" fill="#9A93FF" stroke="#252525" stroke-width="2"/>
<path d="M556.423 444.898C556.423 452.221 550.488 458.182 543.139 458.182C535.816 458.182 529.854 452.247 529.854 444.898C529.854 437.575 535.79 431.614 543.139 431.614C550.488 431.614 556.423 437.575 556.423 444.898Z" fill="#252525"/>
<path d="M124.287 463.116L125.109 459.442L128.244 460.136L127.421 463.81L124.287 463.116ZM129.271 464.221L130.094 460.547L139.292 462.602L138.47 466.277L129.271 464.221ZM140.32 466.688L141.143 463.013L150.341 465.069L149.519 468.743L140.32 466.688ZM151.343 469.155L152.166 465.48L161.364 467.536L160.542 471.21L151.343 469.155ZM162.392 471.621L163.214 467.947L172.413 470.002L171.591 473.677L162.392 471.621ZM173.441 474.088L174.263 470.414L183.462 472.469L182.64 476.144L173.441 474.088ZM184.49 476.555L185.312 472.88L194.511 474.936L193.689 478.61L184.49 476.555ZM195.513 479.021L196.335 475.347L205.534 477.403L204.712 481.077L195.513 479.021ZM206.562 481.488L207.384 477.814L216.583 479.869L215.761 483.544L206.562 481.488ZM217.611 483.955L218.433 480.28L227.632 482.336L226.809 486.01L217.611 483.955ZM228.659 486.422L229.482 482.747L238.68 484.803L237.858 488.477L228.659 486.422ZM239.683 488.888L240.505 485.214L249.704 487.269L248.881 490.944L239.683 488.888ZM250.731 491.355L251.554 487.681L260.752 489.736L259.93 493.411L250.731 491.355ZM261.78 493.822L262.602 490.147L271.801 492.203L270.979 495.877L261.78 493.822ZM272.829 496.288L273.651 492.614L282.85 494.67L282.028 498.344L272.829 496.288Z" fill="#252525"/>
<path d="M129.168 424.523L132.123 422.441L134.436 425.216L137.827 423.983L139.343 427.246L142.941 426.938L143.583 430.484L147.129 431.101L146.821 434.698L150.084 436.24L148.851 439.631L151.6 441.944L149.544 444.899L151.6 447.854L148.851 450.166L150.084 453.558L146.821 455.1L147.129 458.671L143.583 459.314L142.941 462.859L139.343 462.551L137.827 465.814L134.436 464.581L132.123 467.356L129.168 465.275L126.213 467.356L123.875 464.581L120.483 465.814L118.967 462.551L115.37 462.859L114.753 459.314L111.182 458.671L111.516 455.1L108.227 453.558L109.46 450.166L106.711 447.854L108.767 444.899L106.711 441.944L109.46 439.631L108.227 436.24L111.516 434.698L111.182 431.101L114.753 430.484L115.37 426.938L118.967 427.246L120.483 423.983L123.875 425.216L126.213 422.441L129.168 424.523Z" fill="#252525"/>
<path d="M140.474 444.899C140.474 451.143 135.412 456.23 129.142 456.23C122.899 456.23 117.811 451.168 117.811 444.899C117.811 438.655 122.873 433.567 129.142 433.567C135.412 433.567 140.474 438.655 140.474 444.899Z" fill="#252525"/>
<path d="M535.667 450.701L535.667 450.701C537.534 453.114 540.323 454.378 543.164 454.378C545.177 454.378 547.218 453.744 548.993 452.37C553.129 449.181 553.904 443.207 550.686 439.069L536.288 420.474L501.312 243.387C500.306 238.241 495.306 234.913 490.169 235.917C485.023 236.923 481.695 241.923 482.699 247.06L482.7 247.062L518.107 426.361L518.108 426.363C518.396 427.807 519.029 429.152 519.909 430.316L519.916 430.325L535.667 450.701Z" fill="#9A93FF" stroke="#252525" stroke-width="2"/>
<path d="M543.165 453.378C544.963 453.378 546.813 452.812 548.355 451.605L527.388 424.522L493.214 251.544L490.387 236.898C490.362 236.898 490.361 236.898 490.336 236.898C485.736 237.797 482.756 242.268 483.655 246.868L519.063 426.167C519.32 427.452 519.859 428.685 520.682 429.713L536.432 450.089C538.103 452.247 540.621 453.378 543.165 453.378Z" fill="#7C72FF"/>
<path d="M547.456 444.899C547.456 447.262 545.529 449.19 543.165 449.19C540.801 449.19 538.874 447.262 538.874 444.899C538.874 442.535 540.801 440.607 543.165 440.607C545.529 440.607 547.456 442.535 547.456 444.899Z" fill="#252525"/>
<path d="M503.168 230.638L476.508 235.803L479.06 248.978L505.721 243.813L503.168 230.638Z" fill="#7C72FF" stroke="#252525" stroke-width="2"/>
<path d="M287.496 443.686L287.072 447.439L291.744 447.968L292.169 444.214L287.496 443.686Z" fill="#252525"/>
<path d="M285.239 447.262L276.04 446.209L276.477 442.457L285.675 443.511L285.239 447.262ZM274.19 446.003L264.991 444.95L265.428 441.198L274.627 442.252L274.19 446.003ZM263.141 444.77L253.942 443.716L254.379 439.965L263.578 441.018L263.141 444.77ZM252.092 443.511L242.893 442.457L243.33 438.706L252.529 439.759L252.092 443.511ZM241.043 442.252L231.845 441.198L232.281 437.447L241.48 438.5L241.043 442.252ZM229.995 440.993L220.796 439.939L221.233 436.188L230.431 437.241L229.995 440.993ZM218.971 439.734L209.773 438.68L210.184 434.929L219.382 435.982L218.971 439.734ZM207.923 438.475L198.724 437.421L199.161 433.67L208.359 434.723L207.923 438.475ZM196.874 437.216L187.675 436.162L188.112 432.411L197.311 433.464L196.874 437.216ZM185.825 435.957L176.626 434.903L177.037 431.152L186.236 432.205L185.825 435.957ZM174.776 434.697L165.577 433.644L166.014 429.893L175.213 430.946L174.776 434.697ZM163.727 433.438L154.528 432.385L154.965 428.633L164.164 429.687L163.727 433.438ZM152.678 432.205L143.48 431.152L143.916 427.4L153.115 428.454L152.678 432.205ZM141.655 430.946L132.457 429.893L132.868 426.141L142.066 427.195L141.655 430.946Z" fill="#252525"/>
<path d="M126.366 425.433L125.94 429.186L130.612 429.716L131.039 425.963L126.366 425.433Z" fill="#252525"/>
<path d="M254.714 286.917L254.487 285.881L253.467 286.168C251.644 286.681 250.003 287.683 248.759 289.158C248.759 289.158 248.759 289.158 248.759 289.158L121.931 438.777C118.544 442.767 119.027 448.769 123.022 452.135C124.808 453.66 126.995 454.377 129.143 454.377C131.841 454.377 134.514 453.228 136.382 451.016L258.663 306.766L258.983 306.389L258.877 305.905L254.714 286.917Z" fill="#7C72FF" stroke="#252525" stroke-width="2"/>
<path d="M253.737 287.131C252.093 287.593 250.628 288.493 249.523 289.803L122.693 439.425C119.661 442.996 120.098 448.366 123.67 451.373C123.721 451.424 123.772 451.45 123.849 451.501L129.168 444.898L255.613 295.713L253.737 287.131Z" fill="#9A93FF"/>
<path d="M243.45 206.371L230.544 209.174L245.004 275.763L257.91 272.961L243.45 206.371Z" fill="#9E9E9E"/>
<path d="M281.973 459.764L130.639 435.534L281.973 459.764ZM281.973 459.764L242.714 278.994C241.593 273.878 244.841 268.824 249.979 267.705C255.123 266.584 260.147 269.862 261.266 274.969L261.267 274.971L303.458 469.327L303.458 469.329C304.118 472.398 303.23 475.586 301.075 477.857C299.29 479.756 296.791 480.817 294.207 480.817C293.738 480.817 293.216 480.79 292.705 480.701C292.702 480.7 292.7 480.7 292.697 480.699L127.648 454.262L127.647 454.262C122.481 453.429 118.945 448.577 119.779 443.403C120.611 438.236 125.489 434.701 130.637 435.534L281.973 459.764Z" fill="#7C72FF" stroke="#252525" stroke-width="2"/>
<path d="M129.168 444.898L294.207 471.338L252.016 276.981L250.32 268.682C250.294 268.682 250.243 268.682 250.217 268.682C245.644 269.684 242.74 274.206 243.716 278.78L283.287 460.983L130.505 436.521C125.957 435.776 121.665 438.833 120.843 443.356L129.168 444.898Z" fill="#9A93FF"/>
<path d="M261.43 266.12L238.918 271.063L241.002 280.55L263.513 275.606L261.43 266.12Z" fill="#252525"/>
<path d="M132.765 444.899C132.765 446.878 131.147 448.496 129.168 448.496C127.19 448.496 125.571 446.878 125.571 444.899C125.571 442.895 127.19 441.302 129.168 441.302C131.147 441.302 132.765 442.921 132.765 444.899Z" fill="#252525"/>
<path d="M290.327 439.374C273.625 439.374 260.11 452.915 260.11 469.591C260.11 486.293 273.651 499.808 290.327 499.808C307.003 499.808 320.544 486.267 320.544 469.591C320.544 452.89 307.003 439.374 290.327 439.374ZM271.75 452.556C274.011 450.089 277.839 449.935 280.306 452.196C282.773 454.457 282.927 458.285 280.666 460.752C278.405 463.219 274.576 463.373 272.109 461.112C269.668 458.851 269.489 455.022 271.75 452.556ZM273.882 481.103C270.696 482.105 267.304 480.332 266.302 477.146C265.3 473.959 267.073 470.542 270.259 469.54C273.445 468.538 276.837 470.311 277.839 473.497C278.841 476.709 277.068 480.1 273.882 481.103ZM292.074 489.582C291.355 492.845 288.117 494.901 284.854 494.181C281.591 493.462 279.535 490.224 280.255 486.961C280.974 483.698 284.212 481.642 287.475 482.362C290.738 483.081 292.794 486.319 292.074 489.582ZM293.154 456.821C289.89 456.101 287.835 452.864 288.554 449.601C289.274 446.337 292.511 444.282 295.774 445.001C299.038 445.721 301.093 448.958 300.374 452.221C299.654 455.485 296.417 457.54 293.154 456.821ZM308.879 486.627C306.618 489.094 302.789 489.248 300.322 486.987C297.856 484.726 297.701 480.897 299.963 478.43C302.224 475.964 306.052 475.809 308.519 478.071C310.96 480.332 311.14 484.16 308.879 486.627ZM310.395 469.617C307.209 470.619 303.817 468.846 302.815 465.66C301.813 462.474 303.586 459.082 306.772 458.08C309.958 457.078 313.35 458.851 314.352 462.037C315.354 465.223 313.581 468.615 310.395 469.617Z" fill="#252525"/>
<path d="M305.076 469.591C305.076 477.737 298.472 484.366 290.301 484.366C282.156 484.366 275.526 477.762 275.526 469.591C275.526 461.446 282.13 454.817 290.301 454.817C298.472 454.817 305.076 461.42 305.076 469.591Z" fill="#252525"/>
<path d="M299.165 469.591C299.165 474.473 295.208 478.43 290.326 478.43C285.444 478.43 281.487 474.473 281.487 469.591C281.487 464.709 285.444 460.752 290.326 460.752C295.208 460.752 299.165 464.709 299.165 469.591Z" fill="#252525"/>
<path d="M255.573 525.503C255.136 525.35 254.717 525.148 254.323 524.873C251.711 523.163 250.99 519.64 252.724 517.036L284.784 468.53C286.494 465.918 290.017 465.196 292.621 466.93C295.225 468.664 295.954 472.163 294.22 474.767L262.16 523.273C260.692 525.508 257.972 526.348 255.573 525.503Z" fill="#252525"/>
<path d="M275.52 523.862C275.52 527.998 272.128 531.39 267.966 531.39H246.896C242.759 531.39 239.342 527.998 239.342 523.862C239.342 519.725 242.734 516.333 246.896 516.333H267.966C272.128 516.333 275.52 519.725 275.52 523.862Z" fill="#252525"/>
<path d="M267.966 516.333H246.896C242.759 516.333 239.342 519.725 239.342 523.862H275.495C275.52 519.725 272.128 516.333 267.966 516.333Z" fill="#252525"/>
<path d="M240.396 520.084H274.441C273.131 517.849 270.716 516.307 267.94 516.307H246.871C244.121 516.333 241.706 517.849 240.396 520.084Z" fill="#9E9E9E"/>
<path d="M62.9499 310.542L62.9499 310.542L62.9568 310.539C63.8761 310.087 64.9673 310.477 65.3923 311.36L65.3922 311.36L65.3962 311.368L130.789 444.106C131.24 445.024 130.853 446.112 129.974 446.539C129.712 446.661 129.421 446.726 129.169 446.726C128.484 446.726 127.835 446.34 127.52 445.713C127.52 445.712 127.52 445.712 127.519 445.711L62.129 312.978C62.1289 312.977 62.1288 312.977 62.1287 312.977C61.6779 312.058 62.0674 310.967 62.9499 310.542Z" fill="#7C72FF" stroke="#252525" stroke-width="2"/>
<path d="M293.08 434.94L293.049 434.936L293.018 434.933L145.067 424.45L143.402 424.332L144.083 425.855C146.285 430.782 149.631 436.04 154.668 440.149L154.891 440.331L155.178 440.366L200.298 445.917L200.356 445.924L200.414 445.924L200.42 444.924C200.414 445.924 200.414 445.924 200.414 445.924L200.416 445.924L200.424 445.924L200.455 445.924L200.579 445.925L201.059 445.928C201.48 445.931 202.098 445.935 202.884 445.941C204.456 445.952 206.702 445.968 209.397 445.99C214.788 446.033 221.975 446.097 229.161 446.181C236.348 446.264 243.532 446.367 248.918 446.487C251.612 446.548 253.849 446.612 255.411 446.68C256.194 446.715 256.794 446.749 257.193 446.784C257.315 446.795 257.409 446.804 257.479 446.813C257.569 446.862 257.65 446.892 257.697 446.908C257.827 446.953 257.976 446.988 258.114 447.016C258.403 447.074 258.802 447.135 259.28 447.197C260.243 447.324 261.609 447.467 263.236 447.62C266.493 447.926 270.839 448.272 275.204 448.587C279.57 448.902 283.961 449.187 287.312 449.37C288.987 449.462 290.407 449.529 291.436 449.561C291.949 449.578 292.374 449.586 292.688 449.583C292.844 449.582 292.986 449.578 293.104 449.57C293.158 449.567 293.219 449.561 293.28 449.553C293.397 449.586 293.577 449.648 293.824 449.745C294.333 449.944 295.038 450.255 295.883 450.647C297.568 451.43 299.751 452.511 301.92 453.608C304.086 454.704 306.23 455.812 307.832 456.646C308.633 457.063 309.299 457.412 309.764 457.656C309.825 457.688 309.882 457.718 309.937 457.746L309.276 475.216C308.727 475.229 307.955 475.248 307.003 475.272L306.344 475.289L306.1 475.9C304.402 480.146 301.053 483.519 296.854 485.267L296.173 485.55L296.243 486.285L297.785 502.447L297.894 503.589L299.01 503.325C313.372 499.932 324.785 489.011 326.725 474.71L326.725 474.708C329.277 455.568 314.034 437.749 293.08 434.94Z" fill="#9A93FF" stroke="#252525" stroke-width="2"/>
<path d="M290.872 439.334L290.84 439.329L290.808 439.327L147.508 429.152L145.591 429.016L146.58 430.664C151.087 438.176 158.568 445.325 170.891 446.994C190.736 449.697 221.549 452.242 249.936 454.375L249.943 454.375C262.336 455.227 270.637 454.776 276.771 454.108C279.107 453.854 281.132 453.568 282.929 453.314C283.484 453.235 284.018 453.16 284.532 453.089C286.724 452.789 288.563 452.579 290.326 452.579C299.718 452.579 307.313 460.174 307.313 469.565C307.313 476.624 302.996 482.666 296.855 485.215L296.173 485.498L296.243 486.234L297.785 502.396L297.894 503.54L299.012 503.274C308.961 500.905 317.471 494.948 322.427 486.759L322.467 486.693L322.496 486.622C323.479 484.232 324.169 481.71 324.54 479.057L324.541 479.051C327.094 459.959 311.848 442.169 290.872 439.334Z" fill="#7C72FF" stroke="#252525" stroke-width="2"/>
<path d="M499.123 210.303C499.123 217.601 493.214 223.511 485.916 223.511C478.619 223.511 472.709 217.601 472.709 210.303C472.709 203.006 478.619 197.096 485.916 197.096C493.214 197.096 499.123 203.006 499.123 210.303Z" fill="#252525"/>
<path d="M478.464 160.559H421.268V178.776H478.464V160.559Z" fill="#E09B63"/>
<path d="M491.107 210.303C491.107 213.155 488.794 215.494 485.916 215.494C483.039 215.494 480.726 213.181 480.726 210.303C480.726 207.451 483.039 205.113 485.916 205.113C488.794 205.113 491.107 207.425 491.107 210.303Z" fill="#5FC8D3"/>
<path d="M425.816 160.559H422.989V178.802H425.816V160.559Z" fill="#CC6A48"/>
<path d="M431.469 160.559H428.643V178.802H431.469V160.559Z" fill="#CC6A48"/>
<path d="M437.122 160.559H434.295V178.802H437.122V160.559Z" fill="#CC6A48"/>
<path d="M442.8 160.559H439.974V178.802H442.8V160.559Z" fill="#CC6A48"/>
<path d="M448.453 160.559H445.626V178.802H448.453V160.559Z" fill="#CC6A48"/>
<path d="M454.106 160.559H451.28V178.802H454.106V160.559Z" fill="#CC6A48"/>
<path d="M459.759 160.559H456.933V178.802H459.759V160.559Z" fill="#CC6A48"/>
<path d="M465.411 160.559H462.585V178.802H465.411V160.559Z" fill="#CC6A48"/>
<path d="M471.065 160.559H468.238V178.802H471.065V160.559Z" fill="#CC6A48"/>
<path d="M476.743 160.559H473.917V178.802H476.743V160.559Z" fill="#CC6A48"/>
<path d="M504.706 289.804C504.706 281.909 511.211 275.177 519.998 273.781V305.828C511.211 304.432 504.706 297.7 504.706 289.804Z" fill="#9A93FF" stroke="#252525" stroke-width="2"/>
<path d="M515.502 305.992V306.721L516.196 306.944C517.682 307.422 519.244 307.801 520.901 307.964L521.999 308.072V306.969V272.64V271.537L520.901 271.645C519.244 271.808 517.682 272.187 516.196 272.665L515.502 272.888V273.617V305.992Z" fill="#7C72FF" stroke="#252525" stroke-width="2"/>
<path d="M297.087 373.079L297.981 373.491L297.087 373.079L243.619 489.203L181.633 460.101L226.1 346.671L226.261 346.261L226.067 345.865L171.367 234.716L265.92 229.03L297.477 299.535C307.962 322.96 307.823 349.77 297.087 373.079Z" fill="#FEE480" stroke="#252525" stroke-width="2"/>
<path d="M181.185 455.88C181.185 455.88 181.005 456.077 180.684 456.47C180.734 456.492 180.785 456.512 180.835 456.528L181.185 455.88ZM181.451 457.111C181.479 457.077 181.506 457.045 181.531 457.014L231.956 471.04L232.291 471.134L232.612 470.999L252.476 462.65C264.286 479.527 269.659 495.229 272.079 506.741C273.304 512.572 273.772 517.33 273.934 520.621C274.015 522.266 274.02 523.545 274.005 524.407C274.004 524.42 274.004 524.432 274.004 524.444L167.868 492.376C169.269 480.73 172.738 471.824 175.88 465.804C177.488 462.723 179.01 460.398 180.125 458.849C180.683 458.075 181.138 457.495 181.451 457.111Z" fill="#7DDF6D" stroke="#252525" stroke-width="2"/>
<path d="M254.022 170.187L276.312 242.786H158.382L158.279 242.566C158.036 242.047 157.679 241.286 157.224 240.316C156.315 238.377 155.016 235.603 153.458 232.264C150.341 225.588 146.185 216.655 142.029 207.63C137.873 198.604 133.719 189.489 130.605 182.447C129.047 178.925 127.752 175.928 126.848 173.722C126.396 172.618 126.045 171.722 125.809 171.062C125.754 170.908 125.706 170.77 125.665 170.646C125.792 170.621 125.94 170.595 126.111 170.569C127.019 170.428 128.381 170.3 130.155 170.187C133.694 169.96 138.764 169.798 144.867 169.687C157.068 169.465 173.343 169.448 189.625 169.523C205.905 169.599 222.186 169.768 234.398 169.918C240.503 169.993 245.591 170.063 249.153 170.114C250.934 170.14 252.333 170.161 253.287 170.176L254.022 170.187Z" fill="#FDA5C0" stroke="#252525" stroke-width="2"/>
<path d="M473.648 89.5492L427.749 106.042L403.503 75.1532L462.935 57.5293L473.648 89.5492Z" fill="#FEE480" stroke="#252525" stroke-width="2"/>
<path d="M491.036 93.4224C483.735 99.4326 460.952 86.1538 460.952 86.1538L446.669 61.0425C445.72 47.7732 455.712 36.2505 468.982 35.3021C482.251 34.3536 493.774 44.3455 494.722 57.6148C494.722 57.6148 498.474 87.2995 491.036 93.4224Z" fill="#FEE480"/>
<path d="M492.412 64.1328C492.412 64.1328 499.657 70.7112 499.431 72.6034C499.164 74.8573 491.754 76.7542 491.754 76.7542C491.754 76.7542 492.59 64.1375 492.412 64.1328Z" fill="#FEE480"/>
<path d="M474.333 64.6496C474.333 64.6496 478.202 62.1986 483.047 61.8511C484.08 61.776 482.723 70.1714 481.709 69.7723C477.258 68.0303 474.333 64.6496 474.333 64.6496Z" fill="white"/>
<path d="M481.403 62.6451C483.207 60.5622 486.36 60.3374 488.44 62.1414C490.523 63.9455 490.748 67.0984 488.944 69.1785C487.14 71.2615 483.987 71.4863 481.907 69.6822C479.821 67.8781 479.596 64.7252 481.403 62.6451Z" fill="#252525"/>
<path d="M485.857 81.8112C485.223 81.8112 484.584 81.6562 484.007 81.337C482.734 80.6373 481.96 79.2381 482.025 77.7778C482.039 77.5195 482.241 77.3177 482.518 77.3317C482.777 77.3458 482.979 77.5618 482.964 77.8248C482.913 78.9282 483.5 79.9847 484.462 80.5153C485.458 81.0646 486.697 80.9754 487.618 80.2899C487.824 80.1349 488.12 80.1772 488.275 80.3838C488.43 80.5904 488.388 80.8862 488.181 81.0411C487.496 81.5483 486.679 81.8112 485.857 81.8112Z" fill="#252525"/>
<path d="M439.095 60.9259C439.095 60.9259 427.877 29.9077 449.871 11.1963C471.864 -7.5151 456.407 24.7568 455.862 25.5691C455.862 25.5691 466.169 1.70208 477.56 1.1621C488.951 0.617428 477.56 16.3472 477.56 16.3472C477.56 16.3472 499.694 -10.6235 509.832 4.72126C517.152 15.8072 485.19 30.4477 485.19 30.4477L439.095 60.9259Z" fill="#252525"/>
<path d="M441.71 66.3116L493.21 46.7973L485.195 30.4478L438.24 59.1605L441.71 66.3116Z" fill="#66E0E3"/>
<path d="M441.694 66.363L437.887 59.2915L440.063 57.6597" stroke="#252525" stroke-width="2" stroke-linecap="round" stroke-linejoin="round"/>
<path d="M461.277 85.9453C461.277 85.9453 471.922 91.6696 479.228 94.1046C482.491 95.1926 486.203 96.0321 488.475 95.1926C490.747 94.3531 491.938 93.3376 493.37 91.3848C494.841 89.3802 495.002 88.4026 495.546 85.9453C496.099 83.4477 496.012 81.4306 496.09 78.8738C496.136 77.3875 496.09 75.0661 496.09 75.0661C496.09 75.0661 498.479 74.577 499.354 72.8902C500.229 71.2035 496.09 66.9067 496.09 66.9067C496.09 66.9067 495.779 62.5951 495.546 59.8352C495.349 57.4972 495.538 56.1361 495.002 53.8517C494.372 51.163 492.283 47.3242 492.283 47.3242L493.914 46.2362L485.755 30.4614" stroke="#252525" stroke-width="2" stroke-linecap="round"/>
<path d="M442.015 61.4748C440.527 65.8134 442.837 70.5418 447.176 72.0302C451.514 73.5187 456.242 71.2085 457.731 66.8699C459.219 62.5313 456.909 57.803 452.571 56.3145C448.232 54.8261 443.508 57.1362 442.015 61.4748Z" fill="#FEE480"/>
<path d="M110.598 139.824L109.655 139.501L110.598 139.823C125.33 96.7575 165.815 67.8188 211.332 67.8188H390.558C406.286 67.8188 420.97 75.699 429.664 88.8063L449.447 118.634L397.155 175.993H98.2233L110.598 139.824Z" fill="#66E0E3" stroke="#252525" stroke-width="2"/>
<path d="M564.801 162.267H555.42L464.563 161.403L444.537 118.834L382.688 158.957L394.563 186.022C402.446 203.766 419.965 215.274 439.386 215.458L517.87 216.298V216.491H543.545C547.24 216.491 550.231 213.495 550.231 209.804C550.231 206.109 547.236 203.118 543.545 203.118H541.869L541.977 202.878H552.278C555.974 202.878 558.965 199.883 558.965 196.192C558.965 192.497 555.969 189.506 552.278 189.506H548.006L548.076 189.346H558.537C562.233 189.346 565.224 186.35 565.224 182.66C565.224 178.964 562.228 175.973 558.537 175.973H554.105L554.251 175.654H564.797C568.492 175.654 571.483 172.658 571.483 168.968C571.488 165.263 568.492 162.267 564.801 162.267Z" fill="#FEE480" stroke="#252525" stroke-width="2"/>
<path d="M354.661 119.67L376.419 162.643L387.842 155.572" stroke="#252525" stroke-width="2" stroke-linecap="round"/>
</svg>
