<svg width="1150" height="202" viewBox="0 0 1150 202" fill="none" xmlns="http://www.w3.org/2000/svg">
<path d="M2 134.348L37.9804 130.693C40.1459 143.31 44.5185 152.577 51.0982 158.494C57.7613 164.411 66.7147 167.37 77.9586 167.37C89.8687 167.37 98.8222 164.759 104.819 159.539C110.899 154.231 113.939 148.053 113.939 141.005C113.939 136.48 112.648 132.651 110.066 129.519C107.567 126.299 103.153 123.515 96.8233 121.165C92.4923 119.599 82.6227 116.815 67.2144 112.812C47.3919 107.678 33.4828 101.37 25.4872 93.8866C14.2433 83.3579 8.62139 70.5234 8.62139 55.383C8.62139 45.6374 11.245 36.5445 16.4921 28.1042C21.8225 19.5768 29.4434 13.0943 39.3546 8.65656C49.3492 4.21885 61.3843 2 75.4599 2C98.4474 2 115.73 7.26434 127.307 17.793C138.967 28.3217 145.089 42.3744 145.672 59.9512L108.692 61.648C107.109 51.8154 103.695 44.7673 98.4474 40.5036C93.2835 36.1529 85.4961 33.9776 75.0851 33.9776C64.341 33.9776 55.9289 36.2835 49.8489 40.8952C45.9344 43.8537 43.9771 47.8128 43.9771 52.7726C43.9771 57.2973 45.8094 61.1694 49.4741 64.3889C54.1382 68.4786 65.4654 72.7423 83.4556 77.18C101.446 81.6177 114.73 86.2294 123.309 91.0152C131.971 95.7139 138.717 102.196 143.548 110.463C148.462 118.642 150.919 128.779 150.919 140.874C150.919 151.838 148.004 162.105 142.174 171.677C136.343 181.249 128.098 188.384 117.437 193.082C106.776 197.694 93.4918 200 77.5838 200C54.4297 200 36.6478 194.431 24.2379 183.293C11.828 172.069 4.41535 155.753 2 134.348Z" fill="#0EFFE6"/>
<path d="M223.254 196.606V37.6322H168.909V5.26302H314.455V37.6322H260.234V196.606H223.254Z" fill="#0EFFE6"/>
<path d="M338.441 196.606V5.26302H474.242V37.6322H375.421V80.0514H467.371V112.29H375.421V164.368H477.741V196.606H338.441Z" fill="#0EFFE6"/>
<path d="M509.098 196.606V5.26302H568.441C590.929 5.26302 605.587 6.22017 612.417 8.13448C622.911 11.0059 631.698 17.2709 638.778 26.9295C645.857 36.501 649.397 48.9005 649.397 64.1279C649.397 75.8748 647.356 85.7508 643.275 93.7561C639.194 101.761 633.989 108.07 627.659 112.682C621.412 117.206 615.041 120.208 608.544 121.688C599.716 123.515 586.931 124.428 570.19 124.428H546.078V196.606H509.098ZM546.078 37.6322V91.9288H566.317C580.893 91.9288 590.637 90.9282 595.551 88.9268C600.465 86.9255 604.296 83.793 607.045 79.5293C609.877 75.2657 611.293 70.3059 611.293 64.65C611.293 57.6889 609.335 51.9459 605.421 47.4212C601.506 42.8965 596.551 40.0686 590.554 38.9374C586.14 38.0672 577.27 37.6322 563.944 37.6322H546.078Z" fill="#0EFFE6"/>
<path d="M911.379 196.606H871.151L855.16 153.143H781.95L766.833 196.606H727.604L798.94 5.26302H838.044L911.379 196.606ZM843.291 120.904L818.055 49.9011L793.318 120.904H843.291Z" fill="#FF7F50"/>
<path d="M929.994 196.606V5.26302H966.974V196.606H929.994Z" fill="#FF7F50"/>
<path d="M1002.7 196.606V5.26302H1038.68L1113.64 133.043V5.26302H1148V196.606H1110.9L1037.06 71.8286V196.606H1002.7Z" fill="#FF7F50"/>
<path d="M2 134.348L37.9804 130.693C40.1459 143.31 44.5185 152.577 51.0982 158.494C57.7613 164.411 66.7147 167.37 77.9586 167.37C89.8687 167.37 98.8222 164.759 104.819 159.539C110.899 154.231 113.939 148.053 113.939 141.005C113.939 136.48 112.648 132.651 110.066 129.519C107.567 126.299 103.153 123.515 96.8233 121.165C92.4923 119.599 82.6227 116.815 67.2144 112.812C47.3919 107.678 33.4828 101.37 25.4872 93.8866C14.2433 83.3579 8.62139 70.5234 8.62139 55.383C8.62139 45.6374 11.245 36.5445 16.4921 28.1042C21.8225 19.5768 29.4434 13.0943 39.3546 8.65656C49.3492 4.21885 61.3843 2 75.4599 2C98.4474 2 115.73 7.26434 127.307 17.793C138.967 28.3217 145.089 42.3744 145.672 59.9512L108.692 61.648C107.109 51.8154 103.695 44.7673 98.4474 40.5036C93.2835 36.1529 85.4961 33.9776 75.0851 33.9776C64.341 33.9776 55.9289 36.2835 49.8489 40.8952C45.9344 43.8537 43.9771 47.8128 43.9771 52.7726C43.9771 57.2973 45.8094 61.1694 49.4741 64.3889C54.1382 68.4786 65.4654 72.7423 83.4556 77.18C101.446 81.6177 114.73 86.2294 123.309 91.0152C131.971 95.7139 138.717 102.196 143.548 110.463C148.462 118.642 150.919 128.779 150.919 140.874C150.919 151.838 148.004 162.105 142.174 171.677C136.343 181.249 128.098 188.384 117.437 193.082C106.776 197.694 93.4918 200 77.5838 200C54.4297 200 36.6478 194.431 24.2379 183.293C11.828 172.069 4.41535 155.753 2 134.348Z" stroke="black" stroke-width="3"/>
<path d="M223.254 196.606V37.6322H168.909V5.26302H314.455V37.6322H260.234V196.606H223.254Z" stroke="black" stroke-width="3"/>
<path d="M338.441 196.606V5.26302H474.242V37.6322H375.421V80.0514H467.371V112.29H375.421V164.368H477.741V196.606H338.441Z" stroke="black" stroke-width="3"/>
<path d="M509.098 196.606V5.26302H568.441C590.929 5.26302 605.587 6.22017 612.417 8.13448C622.911 11.0059 631.698 17.2709 638.778 26.9295C645.857 36.501 649.397 48.9005 649.397 64.1279C649.397 75.8748 647.356 85.7508 643.275 93.7561C639.194 101.761 633.989 108.07 627.659 112.682C621.412 117.206 615.041 120.208 608.544 121.688C599.716 123.515 586.931 124.428 570.19 124.428H546.078V196.606H509.098ZM546.078 37.6322V91.9288H566.317C580.893 91.9288 590.637 90.9282 595.551 88.9268C600.465 86.9255 604.296 83.793 607.045 79.5293C609.877 75.2657 611.293 70.3059 611.293 64.65C611.293 57.6889 609.335 51.9459 605.421 47.4212C601.506 42.8965 596.551 40.0686 590.554 38.9374C586.14 38.0672 577.27 37.6322 563.944 37.6322H546.078Z" stroke="black" stroke-width="3"/>
<path d="M911.379 196.606H871.151L855.16 153.143H781.95L766.833 196.606H727.604L798.94 5.26302H838.044L911.379 196.606ZM843.291 120.904L818.055 49.9011L793.318 120.904H843.291Z" stroke="black" stroke-width="3"/>
<path d="M929.994 196.606V5.26302H966.974V196.606H929.994Z" stroke="black" stroke-width="3"/>
<path d="M1002.7 196.606V5.26302H1038.68L1113.64 133.043V5.26302H1148V196.606H1110.9L1037.06 71.8286V196.606H1002.7Z" stroke="black" stroke-width="3"/>
</svg>
