<svg width="314" height="299" viewBox="0 0 314 299" fill="none" xmlns="http://www.w3.org/2000/svg">
<path d="M80.1819 172.213C91.7039 213.795 135.546 237.336 178.105 224.792C220.665 212.248 245.825 168.37 234.303 126.788C222.782 85.2053 178.94 61.6647 136.38 74.2084C93.8209 86.7521 68.66 130.63 80.1819 172.213Z" fill="#FEE475"/>
<path d="M82.1527 171.631C93.38 212.151 136.101 235.089 177.572 222.866C219.043 210.643 243.56 167.887 232.333 127.368C221.106 86.8491 178.385 63.9106 136.914 76.1335C95.4429 88.3564 70.9255 131.112 82.1527 171.631Z" fill="#FED425"/>
<path d="M178.312 223.959L136.013 75.1508C126.107 78.0632 116.784 82.9663 108.657 89.6514L147.525 226.378C157.917 227.672 168.394 226.818 178.312 223.959Z" fill="#FCE898"/>
<path d="M106.391 207.258L83.89 128.105C75.6134 156.625 84.4051 187.54 106.391 207.258Z" fill="#FCE898"/>
<path d="M233.649 148.824L222.284 108.845C218.86 103.235 214.709 98.0228 209.851 93.3855L231.234 168.604C232.915 162.064 233.694 155.416 233.649 148.824Z" fill="#FCE898"/>
<path d="M190.517 219.206L148.828 72.555C146.674 72.7988 144.534 73.1292 142.408 73.5562L184.55 221.802C186.577 221.027 188.564 220.157 190.517 219.206Z" fill="#FCE898"/>
<path d="M106.433 123.089C91.4292 150.251 101.134 184.388 128.108 199.337C155.083 214.286 189.114 204.385 204.117 177.222C219.121 150.06 209.417 115.923 182.442 100.974C155.467 86.0253 121.437 95.9264 106.433 123.089Z" fill="#FCE898"/>
<path d="M102.834 165.537C110.969 194.896 141.923 211.517 171.973 202.661C202.022 193.804 219.787 162.824 211.651 133.465C203.516 104.105 172.562 87.4845 142.513 96.341C112.464 105.198 94.6987 136.178 102.834 165.537Z" fill="#FEB724"/>
<path d="M179.23 146.041L172.779 152.599L179.269 159.143L185.719 152.584L179.23 146.041Z" fill="#E88C03"/>
<path d="M136.175 145.569L129.725 152.127L136.215 158.671L142.665 152.112L136.175 145.569Z" fill="#E88C03"/>
<path d="M157.903 167.595L147.083 156.595L140.595 163.245L157.942 180.879L175.185 163.205L168.659 156.57L157.903 167.595Z" fill="#E88C03"/>
<path d="M157.534 137.125L168.354 148.125L174.842 141.475L157.495 123.841L140.251 141.515L146.778 148.149L157.534 137.125Z" fill="#E88C03"/>
<path d="M157.695 145.887L151.325 152.363L157.733 158.825L164.103 152.348L157.695 145.887Z" fill="#E88C03"/>
<path d="M180.167 101.548C207.14 116.496 216.845 150.636 201.842 177.797C194.715 190.698 183.291 199.697 170.376 203.995C184.966 200.348 198.092 190.855 205.969 176.596C220.972 149.435 211.266 115.295 184.293 100.348C170.133 92.5002 154.027 91.5115 139.75 96.2632C152.953 92.9662 167.354 94.4476 180.167 101.548Z" fill="#FB9D12"/>
<path d="M223.493 186.805C202.467 224.882 155.02 238.983 116.908 218.79C117.346 219.044 117.776 219.313 118.223 219.561C156.559 240.81 204.886 226.804 226.16 188.278C247.434 149.752 233.602 101.292 195.266 80.0422C194.819 79.7945 194.367 79.5754 193.916 79.3358C231.239 100.966 244.519 148.728 223.493 186.805Z" fill="#FCE898"/>
</svg>
