<svg width="314" height="299" viewBox="0 0 314 299" fill="none" xmlns="http://www.w3.org/2000/svg">
<path d="M79.8702 172.213C91.3921 213.795 135.234 237.336 177.793 224.792C220.353 212.248 245.514 168.37 233.992 126.788C222.47 85.2053 178.628 61.6647 136.069 74.2084C93.5091 86.7521 68.3482 130.63 79.8702 172.213Z" fill="#A6ECEE"/>
<path d="M81.841 171.631C93.0683 212.15 135.789 235.089 177.26 222.866C218.731 210.643 243.248 167.887 232.021 127.368C220.794 86.8491 178.073 63.9106 136.602 76.1335C95.1312 88.3564 70.6137 131.112 81.841 171.631Z" fill="#66E0E3"/>
<path d="M178.001 223.959L135.702 75.1508C125.796 78.0632 116.472 82.9663 108.345 89.6514L147.213 226.378C157.605 227.672 168.083 226.818 178.001 223.959Z" fill="#ACEFF0"/>
<path d="M106.079 207.258L83.5783 128.105C75.3016 156.625 84.0933 187.54 106.079 207.258Z" fill="#ACEFF0"/>
<path d="M233.337 148.824L221.972 108.845C218.549 103.235 214.398 98.0228 209.539 93.3855L230.922 168.604C232.603 162.064 233.383 155.416 233.337 148.824Z" fill="#ACEFF0"/>
<path d="M190.206 219.206L148.517 72.555C146.362 72.7988 144.222 73.1292 142.096 73.5562L184.239 221.802C186.266 221.027 188.252 220.157 190.206 219.206Z" fill="#ACEFF0"/>
<path d="M106.121 123.089C91.1175 150.251 100.822 184.388 127.797 199.337C154.772 214.286 188.802 204.385 203.806 177.222C218.809 150.06 209.105 115.923 182.13 100.974C155.155 86.0253 121.125 95.9264 106.121 123.089Z" fill="#ACEEF0"/>
<path d="M102.522 165.537C110.657 194.896 141.612 211.517 171.661 202.661C201.71 193.804 219.475 162.824 211.34 133.465C203.205 104.105 172.25 87.4845 142.201 96.341C112.152 105.198 94.3871 136.178 102.522 165.537Z" fill="#3AD4D8"/>
<path d="M170.592 139.157L130.413 139.578L140.679 129.572L180.858 129.151L170.592 139.157Z" fill="#117899"/>
<path d="M170.591 171.623L130.412 172.044L140.679 162.043L180.858 161.622" fill="#117899"/>
<path d="M140.578 155.705L180.757 155.284L170.693 145.491L130.514 145.912" fill="#117899"/>
<path d="M179.855 101.548C206.828 116.496 216.533 150.636 201.53 177.797C194.404 190.698 182.979 199.697 170.064 203.995C184.655 200.348 197.781 190.855 205.657 176.596C220.66 149.435 210.955 115.295 183.981 100.348C169.821 92.5002 153.715 91.5115 139.439 96.2632C152.641 92.9662 167.042 94.4476 179.855 101.548Z" fill="#117899"/>
<path d="M223.182 186.805C202.155 224.882 154.708 238.983 116.597 218.79C117.035 219.044 117.465 219.313 117.911 219.561C156.247 240.81 204.575 226.804 225.849 188.278C247.123 149.752 233.291 101.292 194.955 80.0422C194.508 79.7945 194.056 79.5754 193.605 79.3358C230.928 100.966 244.208 148.728 223.182 186.805Z" fill="#A6ECEE"/>
</svg>
