<svg width="314" height="299" viewBox="0 0 314 299" fill="none" xmlns="http://www.w3.org/2000/svg">
<path d="M79.6607 172.213C91.1826 213.795 135.024 237.336 177.584 224.792C220.143 212.248 245.304 168.37 233.782 126.788C222.26 85.2053 178.419 61.6647 135.859 74.2084C93.2997 86.7521 68.1387 130.63 79.6607 172.213Z" fill="#C9F2C2"/>
<path d="M81.6315 171.631C92.8588 212.15 135.579 235.089 177.05 222.866C218.522 210.643 243.039 167.887 231.812 127.368C220.584 86.8491 177.864 63.9106 136.393 76.1335C94.9217 88.3564 70.4042 131.112 81.6315 171.631Z" fill="#7DDF6D"/>
<path d="M177.792 223.959L135.492 75.1508C125.586 78.0632 116.263 82.9663 108.136 89.6514L147.004 226.378C157.396 227.672 167.874 226.818 177.792 223.959Z" fill="#AEEBA4"/>
<path d="M105.87 207.258L83.3688 128.105C75.0922 156.625 83.8838 187.54 105.87 207.258Z" fill="#AEEBA4"/>
<path d="M233.128 148.824L221.763 108.845C218.339 103.235 214.188 98.0228 209.33 93.3855L230.713 168.604C232.394 162.064 233.173 155.416 233.128 148.824Z" fill="#AEEBA4"/>
<path d="M189.996 219.206L148.307 72.555C146.153 72.7988 144.013 73.1292 141.887 73.5562L184.029 221.802C186.056 221.027 188.043 220.157 189.996 219.206Z" fill="#AEEBA4"/>
<path d="M105.912 123.089C90.9082 150.251 100.613 184.388 127.587 199.337C154.562 214.286 188.593 204.385 203.596 177.222C218.6 150.06 208.896 115.923 181.921 100.974C154.946 86.0253 120.916 95.9264 105.912 123.089Z" fill="#C9F2C2"/>
<path d="M102.313 165.537C110.448 194.896 141.402 211.517 171.452 202.661C201.501 193.804 219.266 162.824 211.13 133.465C202.995 104.105 172.041 87.4845 141.992 96.341C111.943 105.198 94.1777 136.178 102.313 165.537Z" fill="#48CD32"/>
<path d="M163.918 142.751L169.545 144.474C170.325 144.714 171.033 145.149 171.604 145.741C172.176 146.333 172.594 147.063 172.821 147.866C173.047 148.669 173.076 149.52 172.904 150.343C172.731 151.165 172.364 151.934 171.834 152.579L150.33 178.74C149.812 179.366 149.103 179.792 148.322 179.948C147.54 180.103 146.734 179.978 146.038 179.593C145.343 179.209 144.801 178.588 144.504 177.836C144.206 177.084 144.171 176.246 144.405 175.463L151.179 153.022L146.653 151.476C145.442 151.059 144.442 150.173 143.865 149.005C143.288 147.836 143.179 146.478 143.561 145.215L149.359 126.007C149.748 124.717 150.619 123.632 151.779 122.99C152.939 122.349 154.294 122.204 155.545 122.587L164.063 125.195C165.314 125.578 166.36 126.458 166.969 127.641C167.579 128.825 167.702 130.214 167.313 131.504L163.918 142.751Z" fill="#23891B"/>
<path d="M179.645 101.548C206.618 116.496 216.324 150.636 201.321 177.797C194.194 190.698 182.769 199.697 169.854 203.995C184.445 200.348 197.571 190.855 205.447 176.596C220.45 149.435 210.745 115.295 183.772 100.348C169.611 92.5002 153.505 91.5115 139.229 96.2632C152.432 92.9662 166.832 94.4476 179.645 101.548Z" fill="#23891B"/>
<path d="M222.972 186.805C201.946 224.882 154.499 238.983 116.387 218.79C116.825 219.044 117.255 219.313 117.702 219.561C156.038 240.81 204.365 226.804 225.639 188.278C246.914 149.752 233.081 101.292 194.745 80.0422C194.299 79.7945 193.846 79.5754 193.395 79.3358C230.718 100.966 243.999 148.728 222.972 186.805Z" fill="#C9F2C2"/>
</svg>
