<svg width="376" height="333" viewBox="0 0 376 333" fill="none" xmlns="http://www.w3.org/2000/svg">
<path d="M94.2933 178.515C108.194 228.918 161.341 257.447 213 242.235C264.66 227.024 295.27 173.833 281.37 123.43C267.469 73.0267 214.322 44.4983 162.663 59.7097C111.003 74.9211 80.393 128.112 94.2933 178.515Z" fill="#FEE475"/>
<path d="M96.6855 177.81C110.23 226.924 162.018 254.723 212.357 239.901C262.695 225.078 292.522 173.248 278.978 124.134C265.433 75.0195 213.645 47.2208 163.306 62.0432C112.968 76.8656 83.1406 128.696 96.6855 177.81Z" fill="#FED425"/>
<path d="M213.406 240.566L162.056 61.8533C149.932 65.3464 138.516 71.2303 128.558 79.2546L175.743 243.459C188.45 245.017 201.268 243.995 213.406 240.566Z" fill="#FCE898"/>
<path d="M125.472 221.228L98.1557 126.168C87.9583 160.412 98.6311 197.54 125.472 221.228Z" fill="#FCE898"/>
<path d="M281.299 149.257L267.502 101.242C263.329 94.5051 258.266 88.2438 252.335 82.673L278.293 173.007C280.366 165.155 281.337 157.173 281.299 149.257Z" fill="#FCE898"/>
<path d="M228.35 234.559L177.741 58.4375C175.105 58.7294 172.487 59.1252 169.886 59.6371L221.045 237.675C223.527 236.745 225.959 235.701 228.35 234.559Z" fill="#FCE898"/>
<path d="M125.752 119.264C107.33 151.875 119.111 192.873 152.066 210.835C185.02 228.798 226.669 216.923 245.091 184.312C263.513 151.701 251.732 110.703 218.778 92.7401C185.823 74.7776 144.174 86.6528 125.752 119.264Z" fill="#FCE898"/>
<path d="M121.789 170.42C131.603 206.007 169.127 226.149 205.602 215.409C242.076 204.669 263.688 167.114 253.874 131.527C244.06 95.9394 206.535 75.797 170.061 86.537C133.586 97.2771 111.974 134.833 121.789 170.42Z" fill="#FEB724"/>
<path d="M201.205 144.193L207.54 149.896C208.417 150.687 209.088 151.681 209.491 152.788C209.894 153.895 210.017 155.081 209.849 156.239C209.682 157.398 209.228 158.493 208.529 159.427C207.831 160.36 206.909 161.103 205.846 161.589L162.758 181.254C161.723 181.723 160.554 181.819 159.447 181.526C158.339 181.234 157.361 180.571 156.678 179.649C155.994 178.727 155.646 177.602 155.692 176.463C155.739 175.325 156.177 174.242 156.932 173.398L178.694 149.225L173.691 144.436C172.354 143.151 171.563 141.403 171.485 139.563C171.408 137.722 172.049 135.934 173.274 134.574L191.901 113.884C193.152 112.494 194.911 111.665 196.792 111.579C198.672 111.493 200.52 112.157 201.929 113.425L211.517 122.057C212.926 123.325 213.78 125.094 213.891 126.973C214.003 128.852 213.362 130.689 212.111 132.079L201.205 144.193Z" fill="#E88C03"/>
<path d="M215.996 93.2511C248.949 111.213 260.731 152.213 242.31 184.823C233.559 200.313 219.562 211.114 203.755 216.27C221.61 211.897 237.689 200.502 247.36 183.383C265.781 150.773 253.999 109.773 221.047 91.8112C203.747 82.3818 184.05 81.1877 166.576 86.8877C182.734 82.934 200.343 84.7191 215.996 93.2511Z" fill="#FB9D12"/>
<path d="M268.586 195.498C242.674 241.379 184.394 258.353 137.664 233.998C138.202 234.304 138.729 234.629 139.276 234.928C186.279 260.555 245.639 243.697 271.856 197.275C298.072 150.853 281.221 92.4407 234.219 66.8133C233.671 66.5146 233.117 66.2503 232.563 65.9613C278.322 92.0475 294.497 149.617 268.586 195.498Z" fill="#FCE898"/>
</svg>
