<svg width="243" height="259" viewBox="0 0 243 259" fill="none" xmlns="http://www.w3.org/2000/svg">
<path d="M74.3014 48.4372L89.682 40.856L170.504 209.146L155.123 216.727C114.608 236.697 63.6774 215.209 41.3597 168.738C19.0419 122.267 33.7913 68.4047 74.3014 48.4372Z" fill="#E59B00"/>
<path d="M168.355 205.608L170.507 210.097L155.407 217.55C138.512 225.889 119.771 226.848 102.121 221.718L162.228 192.837L168.35 205.611L168.355 205.608Z" fill="#DBA97F"/>
<path d="M84.1675 113.789L32.3011 138.847C30.1876 125.613 30.758 112.473 33.7728 100.295L69.7782 82.9023L84.1675 113.789Z" fill="#FCE898"/>
<path d="M66.2643 76.8066L35.8342 91.4404C36.6519 89.1486 37.561 86.9066 38.5687 84.7168L64.2046 72.3893L66.2643 76.8066Z" fill="#FCE898"/>
<path d="M169.371 209.695C209.503 189.896 223.957 136.24 201.656 89.8513C179.355 43.4627 128.744 21.9078 88.6124 41.707C48.4811 61.5062 34.0268 115.162 56.3277 161.55C78.6287 207.939 129.24 229.494 169.371 209.695Z" fill="#FEE475"/>
<path d="M168.046 206.937C206.861 187.787 220.842 135.892 199.273 91.0263C177.704 46.1607 128.753 25.3139 89.9383 44.4638C51.1231 63.6136 37.1422 115.508 58.7111 160.374C80.28 205.24 129.231 226.087 168.046 206.937Z" fill="#FED425"/>
<path d="M197.795 179.082L50.066 131.971C47.9771 118.776 48.6115 105.687 51.7374 93.6284L209.026 143.782C207.801 156.558 203.972 168.637 197.795 179.082Z" fill="#FCE898"/>
<path d="M72.6943 180.498L163.54 209.472C132.302 221.538 95.9205 209.287 72.6943 180.498Z" fill="#FCE898"/>
<path d="M183.24 68.4643L97.041 40.9729C104.565 38.4129 112.355 37.2317 120.159 37.3179L163.724 51.2117C170.799 55.8921 177.396 61.6784 183.24 68.4643Z" fill="#FCE898"/>
<path d="M208.931 134.57L53.9345 85.1369C54.625 83.2859 55.3985 81.4784 56.2134 79.6929L208.714 128.329C208.851 130.418 208.928 132.5 208.931 134.57Z" fill="#FCE898"/>
<path d="M89.6501 44.5736C50.198 64.0494 35.7317 116.453 56.8507 162.24C56.5954 161.734 56.3275 161.241 56.0822 160.73C33.9163 114.588 48.287 61.2144 88.178 41.5219C128.069 21.8295 178.38 43.2723 200.546 89.4147C200.791 89.9253 201.009 90.4434 201.244 90.959C178.719 45.8664 129.097 25.1002 89.6501 44.5736Z" fill="#FCE898"/>
<path d="M156.303 186.566C183.911 172.945 193.854 136.033 178.512 104.12C163.17 72.2069 128.352 57.3778 100.745 70.9983C73.1372 84.6188 63.194 121.531 78.536 153.444C93.878 185.357 128.695 200.186 156.303 186.566Z" fill="#FCE898"/>
<path d="M156.771 183.484C184.378 169.864 194.322 132.952 178.98 101.038C163.638 69.1254 128.82 54.2963 101.213 67.9168C73.605 81.5373 63.6617 118.45 79.0037 150.363C94.3457 182.276 129.163 197.105 156.771 183.484Z" fill="#FEB724"/>
<path d="M134.256 115.743L141.547 114.036C142.558 113.8 143.611 113.815 144.611 114.08C145.612 114.345 146.529 114.851 147.28 115.554C148.032 116.256 148.594 117.133 148.916 118.105C149.239 119.077 149.312 120.115 149.129 121.125L141.689 162.065C141.508 163.046 140.991 163.937 140.224 164.589C139.458 165.241 138.489 165.613 137.481 165.644C136.473 165.674 135.487 165.361 134.689 164.756C133.892 164.151 133.331 163.292 133.101 162.324L126.589 134.501L120.625 135.706C119.027 136.025 117.37 135.718 116.004 134.851C114.638 133.984 113.67 132.624 113.304 131.058L107.73 107.244C107.356 105.644 107.641 103.96 108.522 102.56C109.404 101.161 110.81 100.162 112.431 99.7822L123.467 97.199C125.089 96.8195 126.792 97.091 128.203 97.9536C129.615 98.8163 130.618 100.2 130.992 101.799L134.256 115.743Z" fill="#E88C03"/>
<path d="M177.74 107.542C162.413 75.6513 127.625 60.8296 100.042 74.4414C85.1251 81.8026 75.3845 95.9726 71.9922 112.474C73.9336 93.225 84.1829 76.2167 101.035 67.9007C128.618 54.2889 163.405 69.1107 178.733 101.001C185.773 115.649 187.469 131.344 184.591 145.355C185.828 133.103 183.703 119.947 177.74 107.542Z" fill="#FB9D12"/>
</svg>
