<svg width="299" height="178" viewBox="0 0 299 178" fill="none" xmlns="http://www.w3.org/2000/svg">
<path d="M298 36.1694C298 40.5753 294.279 45.0761 286.755 49.3801C279.307 53.6402 268.464 57.5102 254.977 60.773C228.02 67.2948 190.728 71.3387 149.5 71.3387C108.272 71.3387 70.9796 67.2948 44.0227 60.773C30.5364 57.5102 19.6928 53.6402 12.245 49.3801C4.72055 45.0761 1 40.5753 1 36.1694C1 31.7634 4.72055 27.2626 12.245 22.9586C19.6928 18.6985 30.5364 14.8285 44.0227 11.5657C70.9796 5.04389 108.272 1 149.5 1C190.728 1 228.02 5.04389 254.977 11.5657C268.464 14.8285 279.307 18.6985 286.755 22.9586C294.279 27.2626 298 31.7634 298 36.1694Z" stroke="#FDA5C0" stroke-width="2"/>
<path d="M298 88.5072C298 92.9132 294.279 97.414 286.755 101.718C279.307 105.978 268.464 109.848 254.977 113.111C228.02 119.633 190.728 123.677 149.5 123.677C108.272 123.677 70.9796 119.633 44.0227 113.111C30.5364 109.848 19.6928 105.978 12.245 101.718C4.72055 97.414 1 92.9132 1 88.5072C1 84.1013 4.72055 79.6005 12.245 75.2965C19.6928 71.0364 30.5364 67.1664 44.0227 63.9036C70.9796 57.3818 108.272 53.3379 149.5 53.3379C190.728 53.3379 228.02 57.3818 254.977 63.9036C268.464 67.1664 279.307 71.0364 286.755 75.2965C294.279 79.6005 298 84.1013 298 88.5072Z" stroke="#7DDF6D" stroke-width="2"/>
<path d="M298 140.845C298 145.251 294.279 149.752 286.755 154.056C279.307 158.316 268.464 162.186 254.977 165.449C228.02 171.971 190.728 176.014 149.5 176.014C108.272 176.014 70.9796 171.971 44.0227 165.449C30.5364 162.186 19.6928 158.316 12.245 154.056C4.72055 149.752 1 145.251 1 140.845C1 136.439 4.72055 131.938 12.245 127.634C19.6928 123.374 30.5364 119.504 44.0227 116.241C70.9796 109.72 108.272 105.676 149.5 105.676C190.728 105.676 228.02 109.72 254.977 116.241C268.464 119.504 279.307 123.374 286.755 127.634C294.279 131.938 298 136.439 298 140.845Z" stroke="#66E0E3" stroke-width="2"/>
</svg>
