<svg width="1920" height="948" viewBox="0 0 1920 948" fill="none" xmlns="http://www.w3.org/2000/svg">
<path fill-rule="evenodd" clip-rule="evenodd" d="M66 1115V-2H68V1115H66Z" fill="#F4F1EC"/>
<path fill-rule="evenodd" clip-rule="evenodd" d="M134 1115V-2H136V1115H134Z" fill="#F4F1EC"/>
<path fill-rule="evenodd" clip-rule="evenodd" d="M202 1115V-2H204V1115H202Z" fill="#F4F1EC"/>
<path fill-rule="evenodd" clip-rule="evenodd" d="M273 1115V-2H275V1115H273Z" fill="#F4F1EC"/>
<path fill-rule="evenodd" clip-rule="evenodd" d="M339 1115V-2H341V1115H339Z" fill="#F4F1EC"/>
<path fill-rule="evenodd" clip-rule="evenodd" d="M410 1115V-2H412V1115H410Z" fill="#F4F1EC"/>
<path fill-rule="evenodd" clip-rule="evenodd" d="M475 1115V-2H477V1115H475Z" fill="#F4F1EC"/>
<path fill-rule="evenodd" clip-rule="evenodd" d="M546 1115V-2H548V1115H546Z" fill="#F4F1EC"/>
<path fill-rule="evenodd" clip-rule="evenodd" d="M613 1115V-2H615V1115H613Z" fill="#F4F1EC"/>
<path fill-rule="evenodd" clip-rule="evenodd" d="M681 1115V-2H683V1115H681Z" fill="#F4F1EC"/>
<path fill-rule="evenodd" clip-rule="evenodd" d="M751 1115V-2H753V1115H751Z" fill="#F4F1EC"/>
<path fill-rule="evenodd" clip-rule="evenodd" d="M819 1115V-2H821V1115H819Z" fill="#F4F1EC"/>
<path fill-rule="evenodd" clip-rule="evenodd" d="M888 1115V-2H890V1115H888Z" fill="#F4F1EC"/>
<path fill-rule="evenodd" clip-rule="evenodd" d="M959 1115V-2H961V1115H959Z" fill="#F4F1EC"/>
<path fill-rule="evenodd" clip-rule="evenodd" d="M1031 1115V-2H1033V1115H1031Z" fill="#F4F1EC"/>
<path fill-rule="evenodd" clip-rule="evenodd" d="M1099 1115V-2H1101V1115H1099Z" fill="#F4F1EC"/>
<path fill-rule="evenodd" clip-rule="evenodd" d="M1168 1115V-2H1170V1115H1168Z" fill="#F4F1EC"/>
<path fill-rule="evenodd" clip-rule="evenodd" d="M1238 1115V-2H1240V1115H1238Z" fill="#F4F1EC"/>
<path fill-rule="evenodd" clip-rule="evenodd" d="M1306 1115V-2H1308V1115H1306Z" fill="#F4F1EC"/>
<path fill-rule="evenodd" clip-rule="evenodd" d="M1372 1115V-2H1374V1115H1372Z" fill="#F4F1EC"/>
<path fill-rule="evenodd" clip-rule="evenodd" d="M1444 1115V-2H1446V1115H1444Z" fill="#F4F1EC"/>
<path fill-rule="evenodd" clip-rule="evenodd" d="M1508 1115V-2H1510V1115H1508Z" fill="#F4F1EC"/>
<path fill-rule="evenodd" clip-rule="evenodd" d="M1580 1115V-2H1582V1115H1580Z" fill="#F4F1EC"/>
<path fill-rule="evenodd" clip-rule="evenodd" d="M1646 1115V-2H1648V1115H1646Z" fill="#F4F1EC"/>
<path fill-rule="evenodd" clip-rule="evenodd" d="M1717 1115V-2H1719V1115H1717Z" fill="#F4F1EC"/>
<path fill-rule="evenodd" clip-rule="evenodd" d="M1784 1115V-2H1786V1115H1784Z" fill="#F4F1EC"/>
<path fill-rule="evenodd" clip-rule="evenodd" d="M1852 1115V-2H1854V1115H1852Z" fill="#F4F1EC"/>
<path fill-rule="evenodd" clip-rule="evenodd" d="M1920 42.5H0.5V40.5H1920V42.5Z" fill="#F4F1EC"/>
<path fill-rule="evenodd" clip-rule="evenodd" d="M1920 109H0.5V107H1920V109Z" fill="#F4F1EC"/>
<path fill-rule="evenodd" clip-rule="evenodd" d="M1920 176H0.5V174H1920V176Z" fill="#F4F1EC"/>
<path fill-rule="evenodd" clip-rule="evenodd" d="M1920 242.5H0.5V240.5H1920V242.5Z" fill="#F4F1EC"/>
<path fill-rule="evenodd" clip-rule="evenodd" d="M1920 309H0.5V307H1920V309Z" fill="#F4F1EC"/>
<path fill-rule="evenodd" clip-rule="evenodd" d="M1920 375.5H0.5V373.5H1920V375.5Z" fill="#F4F1EC"/>
<path fill-rule="evenodd" clip-rule="evenodd" d="M1920 442H0.5V440H1920V442Z" fill="#F4F1EC"/>
<path fill-rule="evenodd" clip-rule="evenodd" d="M1920 508.5H0.5V506.5H1920V508.5Z" fill="#F4F1EC"/>
<path fill-rule="evenodd" clip-rule="evenodd" d="M1920 575H0.5V573H1920V575Z" fill="#F4F1EC"/>
<path fill-rule="evenodd" clip-rule="evenodd" d="M1920 641.5H0.5V639.5H1920V641.5Z" fill="#F4F1EC"/>
<path fill-rule="evenodd" clip-rule="evenodd" d="M1920 708H0.5V706H1920V708Z" fill="#F4F1EC"/>
<path fill-rule="evenodd" clip-rule="evenodd" d="M1920 774.5H0.5V772.5H1920V774.5Z" fill="#F4F1EC"/>
<path fill-rule="evenodd" clip-rule="evenodd" d="M1920 841H0.5V839H1920V841Z" fill="#F4F1EC"/>
<path fill-rule="evenodd" clip-rule="evenodd" d="M1920 907.5H0.5V905.5H1920V907.5Z" fill="#F4F1EC"/>
</svg>
