<svg width="137" height="37" viewBox="0 0 137 37" fill="none" xmlns="http://www.w3.org/2000/svg">
<path d="M2 24.3949L6.20713 23.7488C6.46034 25.9791 6.97162 27.6172 7.74098 28.6632C8.52008 29.7091 9.56699 30.232 10.8817 30.232C12.2744 30.232 13.3213 29.7706 14.0225 28.8477C14.7334 27.9095 15.0888 26.8174 15.0888 25.5715C15.0888 24.7717 14.9379 24.0949 14.636 23.5412C14.3438 22.9721 13.8277 22.4799 13.0875 22.0646C12.5811 21.7877 11.4271 21.2955 9.62542 20.588C7.30761 19.6805 5.68124 18.5654 4.74632 17.2426C3.43159 15.3815 2.77423 13.1127 2.77423 10.4364C2.77423 8.71369 3.081 7.10635 3.69454 5.61437C4.31782 4.10701 5.20891 2.96111 6.36782 2.17666C7.53647 1.39222 8.94371 1 10.5896 1C13.2774 1 15.2982 1.93056 16.6519 3.79169C18.0153 5.65282 18.7311 8.13689 18.7993 11.2439L14.4753 11.5438C14.2903 9.80576 13.891 8.55988 13.2774 7.8062C12.6736 7.03714 11.7631 6.6526 10.5457 6.6526C9.28944 6.6526 8.30582 7.06021 7.5949 7.87541C7.13718 8.39837 6.90832 9.09822 6.90832 9.97495C6.90832 10.7748 7.12257 11.4592 7.55107 12.0283C8.09644 12.7513 9.42091 13.5049 11.5245 14.2894C13.628 15.0738 15.1814 15.889 16.1845 16.735C17.1973 17.5656 17.9861 18.7115 18.551 20.1727C19.1255 21.6185 19.4128 23.4105 19.4128 25.5485C19.4128 27.4865 19.072 29.3015 18.3903 30.9934C17.7086 32.6853 16.7444 33.9466 15.4979 34.7772C14.2513 35.5924 12.698 36 10.8379 36C8.13053 36 6.05131 35.0156 4.60024 33.0468C3.14917 31.0626 2.28242 28.1786 2 24.3949Z" fill="#12D3C2"/>
<path d="M27.8709 35.4001V7.29862H21.5164V1.5768H38.5348V7.29862H32.1949V35.4001H27.8709Z" fill="#12D3C2"/>
<path d="M41.3396 35.4001V1.5768H57.2186V7.29862H45.6636V14.797H56.4151V20.4957H45.6636V29.7014H57.6276V35.4001H41.3396Z" fill="#12D3C2"/>
<path d="M61.2942 35.4001V1.5768H68.2331C70.8625 1.5768 72.5765 1.74599 73.3751 2.08438C74.6022 2.59196 75.6296 3.69941 76.4574 5.40672C77.2852 7.09866 77.6991 9.29049 77.6991 11.9822C77.6991 14.0587 77.4605 15.8044 76.9833 17.2195C76.5061 18.6346 75.8974 19.7497 75.1573 20.5649C74.4269 21.3648 73.6819 21.8954 72.9223 22.1569C71.89 22.4799 70.3951 22.6414 68.4376 22.6414H65.6182V35.4001H61.2942ZM65.6182 7.29862V16.8965H67.9847C69.689 16.8965 70.8284 16.7196 71.403 16.3659C71.9776 16.0121 72.4256 15.4584 72.747 14.7047C73.0781 13.951 73.2436 13.0743 73.2436 12.0745C73.2436 10.844 73.0148 9.82883 72.5571 9.029C72.0993 8.22918 71.5199 7.72929 70.8187 7.52933C70.3026 7.37552 69.2654 7.29862 67.7072 7.29862H65.6182Z" fill="#12D3C2"/>
<path d="M108.332 35.4001H103.628L101.759 27.7172H93.1983L91.4307 35.4001H86.8438L95.185 1.5768H99.7573L108.332 35.4001ZM100.371 22.0185L97.42 9.46737L94.5276 22.0185H100.371Z" fill="#FF7F50"/>
<path d="M110.509 35.4001V1.5768H114.833V35.4001H110.509Z" fill="#FF7F50"/>
<path d="M119.011 35.4001V1.5768H123.218L131.983 24.1641V1.5768H136V35.4001H131.661L123.028 13.3434V35.4001H119.011Z" fill="#FF7F50"/>
<path d="M1.46696 23.9708L1.92411 23.9007L6.13124 23.2546L6.64527 23.1757L6.70394 23.6924C6.95344 25.8901 7.45085 27.4241 8.14278 28.3656C8.82652 29.2829 9.7239 29.732 10.8817 29.732C12.1531 29.732 13.0368 29.3182 13.6239 28.5458C14.265 27.6997 14.5888 26.7152 14.5888 25.5715C14.5888 24.8334 14.4495 24.2437 14.197 23.7805L14.191 23.7696L14.1912 23.7696C13.9567 23.3127 13.5258 22.8843 12.8453 22.502C12.3705 22.2429 11.2486 21.7626 9.44265 21.0534C7.0794 20.1281 5.35201 18.9658 4.33801 17.5312L4.33794 17.5311C2.95373 15.5716 2.27423 13.1975 2.27423 10.4364C2.27423 8.65294 2.59211 6.98053 3.23211 5.42421L3.23248 5.42331C3.88686 3.84075 4.83477 2.61058 6.08755 1.7626L6.08915 1.76151L6.08916 1.76152C7.35342 0.912891 8.86167 0.5 10.5896 0.5C13.4065 0.5 15.5914 1.484 17.0559 3.49706C18.4973 5.46508 19.2295 8.0588 19.2992 11.2329L19.3096 11.7097L18.8339 11.7427L14.5099 12.0426L14.0291 12.076L13.9781 11.5968C13.7962 9.88833 13.4103 8.76137 12.8897 8.12186L12.8841 8.11501L12.8842 8.11496C12.3981 7.49585 11.651 7.1526 10.5457 7.1526C9.40811 7.1526 8.57197 7.51576 7.97173 8.20404L7.97114 8.20472C7.61239 8.6146 7.40832 9.18665 7.40832 9.97495C7.40832 10.6802 7.5952 11.2557 7.95049 11.7276L1.46696 23.9708ZM1.46696 23.9708L1.50139 24.4321C1.78728 28.2624 2.66813 31.2519 4.19665 33.342L4.19775 33.3435C5.75414 35.4551 7.99132 36.5 10.8379 36.5C12.771 36.5 14.4255 36.0759 15.7715 35.1957L15.7751 35.1933C17.1223 34.2957 18.143 32.9451 18.854 31.1803C19.5612 29.4253 19.9128 27.5465 19.9128 25.5485C19.9128 23.3704 19.6208 21.512 19.0165 19.9903M1.46696 23.9708L19.0165 19.9903M19.0165 19.9903C18.4272 18.4666 17.5939 17.2451 16.5041 16.3505C15.4367 15.4512 13.8222 14.6126 11.6992 13.8209C10.6619 13.4341 9.83164 13.0602 9.20074 12.7012C8.56298 12.3383 8.16348 12.0097 7.95051 11.7276L19.0165 19.9903ZM27.3709 35.4001V35.9001H27.8709H32.1949H32.6949V35.4001V7.79862H38.5348H39.0348V7.29862V1.5768V1.0768H38.5348H21.5164H21.0164V1.5768V7.29862V7.79862H21.5164H27.3709V35.4001ZM40.8396 35.4001V35.9001H41.3396H57.6276H58.1276V35.4001V29.7014V29.2014H57.6276H46.1636V20.9957H56.4151H56.9151V20.4957V14.797V14.297H56.4151H46.1636V7.79862H57.2186H57.7186V7.29862V1.5768V1.0768H57.2186H41.3396H40.8396V1.5768V35.4001ZM60.7942 35.4001V35.9001H61.2942H65.6182H66.1182V35.4001V23.1414H68.4376C70.4118 23.1414 71.9667 22.9798 73.0716 22.6341L73.0716 22.6343L73.085 22.6297C73.9465 22.3331 74.7585 21.7431 75.5265 20.9021L75.5275 20.901C76.3273 20.0201 76.9653 18.8377 77.4571 17.3793C77.957 15.897 78.1991 14.0934 78.1991 11.9822C78.1991 9.24516 77.7791 6.97091 76.9069 5.18779C76.0488 3.41813 74.9475 2.19428 73.5678 1.623C73.0961 1.42363 72.4063 1.29165 71.5398 1.20611C70.6604 1.1193 69.5566 1.0768 68.2331 1.0768H61.2942H60.7942V1.5768V35.4001ZM72.2892 14.5036L72.287 14.5086C71.9974 15.1878 71.6099 15.6513 71.1409 15.9401C70.9368 16.0658 70.5848 16.1853 70.0408 16.2698C69.5054 16.3529 68.8221 16.3965 67.9847 16.3965H66.1182V7.79862H67.7072C69.2763 7.79862 70.2407 7.87881 70.6759 8.00854L70.6816 8.01017C71.2264 8.16552 71.7123 8.55946 72.1231 9.27735C72.5254 9.98036 72.7437 10.9029 72.7437 12.0745C72.7437 13.0196 72.5872 13.8253 72.2892 14.5036ZM108.332 35.9001H108.975L108.817 35.2773L100.242 1.45392L100.146 1.0768H99.7573H95.185H94.7933L94.6995 1.45708L86.3583 35.2804L86.2055 35.9001H86.8438H91.4307H91.8288L91.918 35.5122L93.5963 28.2172H101.366L103.143 35.5184L103.236 35.9001H103.628H108.332ZM110.009 35.4001V35.9001H110.509H114.833H115.333V35.4001V1.5768V1.0768H114.833H110.509H110.009V1.5768V35.4001ZM118.511 35.4001V35.9001H119.011H123.028H123.528V35.4001V15.9926L131.196 35.5824L131.32 35.9001H131.661H136H136.5V35.4001V1.5768V1.0768H136H131.983H131.483V1.5768V21.4935L123.684 1.39592L123.56 1.0768H123.218H119.011H118.511V1.5768V35.4001ZM95.156 21.5185L97.4249 11.6728L99.7397 21.5185H95.156Z" stroke="black"/>
</svg>
