<svg width="451" height="93" viewBox="0 0 451 93" fill="none" xmlns="http://www.w3.org/2000/svg">
<path d="M2 61.8266L16.0656 60.147C16.9122 65.9457 18.6215 70.2048 21.1937 72.9242C23.7985 75.6436 27.2986 77.0033 31.6941 77.0033C36.3501 77.0033 39.8502 75.8036 42.1945 73.4041C44.5713 70.9646 45.7597 68.1252 45.7597 64.886C45.7597 62.8064 45.2551 61.0468 44.2457 59.6071C43.2689 58.1274 41.5433 56.8477 39.0688 55.768C37.3757 55.0481 33.5174 53.7684 27.4939 51.9288C19.7448 49.5693 14.3074 46.67 11.1817 43.2307C6.78622 38.3918 4.58847 32.4931 4.58847 25.5346C4.58847 21.0556 5.61408 16.8765 7.66532 12.9974C9.74912 9.07822 12.7283 6.09888 16.6029 4.05933C20.51 2.01978 25.2148 1 30.7173 1C39.7037 1 46.4598 3.41947 50.9855 8.25841C55.5438 13.0973 57.9369 19.5559 58.1648 27.6341L43.7085 28.414C43.0899 23.895 41.7549 20.6557 39.7037 18.6961C37.685 16.6966 34.6407 15.6968 30.5708 15.6968C26.3707 15.6968 23.0822 16.7565 20.7053 18.8761C19.175 20.2358 18.4099 22.0554 18.4099 24.3349C18.4099 26.4144 19.1262 28.194 20.5588 29.6737C22.3821 31.5533 26.8102 33.5129 33.843 35.5524C40.8758 37.592 46.069 39.7115 49.4227 41.911C52.8088 44.0705 55.4461 47.0499 57.3346 50.849C59.2556 54.6082 60.2161 59.2672 60.2161 64.826C60.2161 69.8649 59.0765 74.5838 56.7973 78.9829C54.5182 83.3819 51.2948 86.6612 47.1272 88.8207C42.9596 90.9402 37.7664 92 31.5476 92C22.4961 92 15.5447 89.4406 10.6933 84.3217C5.842 79.1628 2.94422 71.6645 2 61.8266Z" fill="#F9F9F9"/>
<path d="M88.4938 90.4403V17.3764H67.2489V2.49967H124.146V17.3764H102.95V90.4403H88.4938Z" fill="#F9F9F9"/>
<path d="M133.523 90.4403V2.49967H186.611V17.3764H147.98V36.8721H183.925V51.6889H147.98V75.6236H187.979V90.4403H133.523Z" fill="#F9F9F9"/>
<path d="M200.237 90.4403V2.49967H223.436C232.227 2.49967 237.957 2.93957 240.627 3.81938C244.73 5.13909 248.165 8.01846 250.932 12.4575C253.7 16.8565 255.084 22.5553 255.084 29.5537C255.084 34.9525 254.286 39.4915 252.691 43.1707C251.095 46.8499 249.06 49.7493 246.586 51.8688C244.144 53.9484 241.653 55.3281 239.113 56.0079C235.662 56.8477 230.664 57.2676 224.12 57.2676H214.694V90.4403H200.237ZM214.694 17.3764V42.3309H222.606C228.304 42.3309 232.113 41.871 234.034 40.9512C235.955 40.0314 237.453 38.5917 238.527 36.6322C239.634 34.6726 240.188 32.3931 240.188 29.7937C240.188 26.5944 239.423 23.955 237.892 21.8754C236.362 19.7959 234.425 18.4962 232.08 17.9763C230.355 17.5764 226.887 17.3764 221.678 17.3764H214.694Z" fill="#F9F9F9"/>
<path d="M357.499 90.4403H341.773L335.521 70.4647H306.902L300.992 90.4403H285.657L313.544 2.49967H328.83L357.499 90.4403ZM330.882 55.648L321.016 23.0152L311.346 55.648H330.882Z" fill="white"/>
<path d="M364.776 90.4403V2.49967H379.232V90.4403H364.776Z" fill="white"/>
<path d="M393.2 90.4403V2.49967H407.266L436.569 61.2268V2.49967H450V90.4403H435.495L406.631 33.0929V90.4403H393.2Z" fill="white"/>
<path d="M1.94071 61.3302L1.45561 61.3881L1.50229 61.8744C2.45299 71.7798 5.37686 79.3981 10.3291 84.6642L10.3304 84.6656C15.3011 89.9105 22.3999 92.5 31.5476 92.5C37.8203 92.5 43.0968 91.4314 47.3539 89.2664L47.3573 89.2646C51.6218 87.0549 54.9174 83.6982 57.2413 79.2129C59.5579 74.7415 60.7161 69.9435 60.7161 64.826C60.7161 59.2134 59.7468 54.4718 57.781 50.6239C55.8551 46.7504 53.1593 43.7018 49.6943 41.4912C46.2778 39.2512 41.0286 37.1157 33.9823 35.0722C30.4777 34.0558 27.6357 33.0632 25.4497 32.0958C23.2534 31.1239 21.7618 30.1955 20.918 29.3259C19.5767 27.9405 18.9099 26.286 18.9099 24.3349C18.9099 22.1801 19.6268 20.5033 21.0374 19.2498L21.0381 19.2492C23.2974 17.2345 26.4535 16.1968 30.5708 16.1968C34.5662 16.1968 37.4608 17.1782 39.3518 19.0513L39.3518 19.0514L39.3583 19.0577C41.2911 20.9041 42.6011 24.0114 43.2131 28.4818L43.2756 28.9381L43.7354 28.9132L58.1918 28.1334L58.6784 28.1072L58.6646 27.62C58.4341 19.4474 56.0093 12.8626 51.3501 7.91627C46.6998 2.94452 39.7906 0.5 30.7173 0.5C25.1539 0.5 20.3656 1.53112 16.3715 3.61608L16.37 3.61688C12.4053 5.70385 9.35406 8.75619 7.22385 12.7626L7.22331 12.7636C5.13318 16.7163 4.08847 20.9759 4.08847 25.5346C4.08847 32.6086 6.32683 38.6297 10.8116 43.5669L10.8117 43.567C14.0279 47.1058 19.5686 50.0383 27.3479 52.407C33.3753 54.2478 37.2057 55.5195 38.8709 56.2271C41.2987 57.2868 42.9262 58.5158 43.8284 59.8826L43.8283 59.8827L43.8363 59.8941C44.7765 61.2352 45.2597 62.8899 45.2597 64.886C45.2597 67.9876 44.1274 70.7037 41.8364 73.0551C39.618 75.3256 36.2686 76.5033 31.6941 76.5033C27.4108 76.5033 24.0504 75.1831 21.556 72.5795C19.0848 69.9663 17.3997 65.8243 16.5604 60.0748L16.49 59.5928L16.0063 59.6505L1.94071 61.3302ZM87.9938 90.4403V90.9403H88.4938H102.95H103.45V90.4403V17.8764H124.146H124.646V17.3764V2.49967V1.99967H124.146H67.2489H66.7489V2.49967V17.3764V17.8764H67.2489H87.9938V90.4403ZM133.023 90.4403V90.9403H133.523H187.979H188.479V90.4403V75.6236V75.1236H187.979H148.48V52.1889H183.925H184.425V51.6889V36.8721V36.3721H183.925H148.48V17.8764H186.611H187.111V17.3764V2.49967V1.99967H186.611H133.523H133.023V2.49967V90.4403ZM199.737 90.4403V90.9403H200.237H214.694H215.194V90.4403V57.7676H224.12C230.677 57.7676 235.722 57.3478 239.231 56.4937L239.232 56.4939L239.243 56.4909C241.868 55.7881 244.424 54.3668 246.91 52.2495L246.911 52.2486C249.455 50.0696 251.53 47.1027 253.149 43.3697C254.78 39.61 255.584 34.9986 255.584 29.5537C255.584 22.4935 254.188 16.6943 251.356 12.1926C248.541 7.67636 245.019 4.70737 240.782 3.34393C239.387 2.88445 237.237 2.55151 234.365 2.33106C231.483 2.10977 227.838 1.99967 223.436 1.99967H200.237H199.737V2.49967V90.4403ZM238.092 36.3862L238.089 36.3918C237.062 38.2644 235.64 39.6279 233.818 40.5003C232.931 40.9248 231.563 41.2618 229.676 41.4896C227.798 41.7163 225.443 41.8309 222.606 41.8309H215.194V17.8764H221.678C226.896 17.8764 230.307 18.0784 231.968 18.4634L231.972 18.4644C234.189 18.956 236.025 20.1817 237.49 22.1718C238.943 24.1467 239.688 26.6751 239.688 29.7937C239.688 32.3204 239.15 34.5126 238.092 36.3862ZM357.499 90.9403H358.188L357.974 90.2854L329.306 2.3447L329.193 1.99967H328.83H313.544H313.178L313.067 2.34853L285.18 90.2892L284.974 90.9403H285.657H300.992H301.366L301.472 90.5822L307.275 70.9647H335.154L341.296 90.5897L341.405 90.9403H341.773H357.499ZM364.276 90.4403V90.9403H364.776H379.232H379.732V90.4403V2.49967V1.99967H379.232H364.776H364.276V2.49967V90.4403ZM392.7 90.4403V90.9403H393.2H406.631H407.131V90.4403V35.1985L435.048 90.6651L435.187 90.9403H435.495H450H450.5V90.4403V2.49967V1.99967H450H436.569H436.069V2.49967V59.1049L407.713 2.27643L407.575 1.99967H407.266H393.2H392.7V2.49967V90.4403ZM312.016 55.148L321.021 24.7588L330.208 55.148H312.016Z" stroke="white"/>
</svg>
